<svg width="131" height="100" viewBox="0 0 131 100" fill="none" xmlns="http://www.w3.org/2000/svg">
<g opacity="0.5">
<mask id="path-1-inside-1_571_294" fill="white">
<path fill-rule="evenodd" clip-rule="evenodd" d="M10.2331 0H120.419C126.062 0 130.654 4.59023 130.654 10.2323V89.7677C130.654 95.4098 126.062 100 120.419 100H10.2331C4.59099 100 0.000765548 95.4098 0.000765548 89.7677V23.2714C0.000765548 23.2685 0.000574161 23.2655 0.000382774 23.2626C0.000191387 23.2597 0 23.2567 0 23.2538C0 23.2509 0.000191418 23.2479 0.000382821 23.245C0.000574192 23.242 0.000765548 23.2391 0.000765548 23.2362V10.2323C0.000765548 4.59023 4.59099 0 10.2331 0ZM120.419 96.1192C123.922 96.1192 126.773 93.2698 126.773 89.7677V25.1942H24.6889C23.6174 25.1942 22.7485 24.3253 22.7485 23.2538C22.7485 22.1823 23.6174 21.3134 24.6889 21.3134H126.773V10.2323C126.773 6.73019 123.922 3.88082 120.419 3.88082H10.2331C6.73096 3.88082 3.88159 6.72994 3.88159 10.2323V21.3136H17.723C18.7945 21.3136 19.6634 22.1825 19.6634 23.254C19.6634 24.3256 18.7945 25.1945 17.723 25.1945H3.88159V89.7677C3.88159 93.2698 6.7307 96.1192 10.2331 96.1192H120.419ZM8.93951 12.3879C8.93951 8.9631 11.7259 6.17676 15.1507 6.17676C18.5755 6.17676 21.3618 8.9631 21.3618 12.3879C21.3618 15.8127 18.5755 18.5991 15.1507 18.5991C11.7259 18.5991 8.93951 15.8127 8.93951 12.3879ZM12.8203 12.3882C12.8203 13.673 13.8656 14.7185 15.1507 14.7185C16.4355 14.7185 17.481 13.673 17.481 12.3882C17.481 11.1033 16.4355 10.0578 15.1507 10.0578C13.8658 10.0578 12.8203 11.1033 12.8203 12.3882ZM23.3175 12.3879C23.3175 8.9631 26.1041 6.17676 29.5287 6.17676C32.9535 6.17676 35.7398 8.9631 35.7398 12.3879C35.7398 15.8127 32.9535 18.5991 29.5287 18.5991C26.1036 18.5991 23.3175 15.8125 23.3175 12.3879ZM27.1983 12.3874C27.1983 13.6722 28.2438 14.7177 29.5287 14.7177C30.8135 14.7177 31.859 13.6722 31.859 12.3874C31.859 11.1026 30.8138 10.0571 29.5287 10.0571C28.2436 10.0571 27.1983 11.1026 27.1983 12.3874ZM43.9067 6.17676C40.4819 6.17676 37.6956 8.9631 37.6956 12.3879C37.6956 15.8125 40.4819 18.5991 43.9067 18.5991C47.3315 18.5991 50.1179 15.8127 50.1179 12.3879C50.1179 8.9631 47.3315 6.17676 43.9067 6.17676ZM43.9067 14.7177C42.6216 14.7177 41.5764 13.6722 41.5764 12.3874C41.5764 11.1026 42.6219 10.0571 43.9067 10.0571C45.1916 10.0571 46.237 11.1026 46.237 12.3874C46.237 13.6722 45.1916 14.7177 43.9067 14.7177ZM61.6527 82.8166L68.4395 84.0394C69.3635 84.2058 70.0359 85.0101 70.0357 85.9495V92.9218C70.0357 93.9933 69.167 94.8622 68.0953 94.8622C67.0235 94.8622 66.1549 93.9933 66.1549 92.9218V87.5712L59.8965 86.4438C59.2172 86.321 58.654 85.8469 58.4175 85.198C57.597 82.9455 56.3956 80.8698 54.8467 79.0282C54.4011 78.4989 54.2715 77.7724 54.506 77.1214L56.6649 71.1297L48.6741 66.5171L44.5674 71.378C44.1216 71.9052 43.4301 72.1563 42.7497 72.0369C40.3908 71.6227 37.9811 71.622 35.612 72.0369C34.9315 72.1558 34.2404 71.905 33.7951 71.3778L29.6885 66.5168L21.6997 71.1295L23.8563 77.1214C24.0908 77.7721 23.9609 78.4984 23.5156 79.0276C21.9656 80.8703 20.7652 82.9457 19.9479 85.1959C19.7121 85.8456 19.1481 86.3205 18.4681 86.4433L12.2072 87.5709V92.9213C12.2072 93.9928 11.3383 94.8617 10.2668 94.8617C9.19525 94.8617 8.32635 93.9928 8.32635 92.9213V85.949C8.32635 85.0101 8.99825 84.2061 9.92252 84.0394L16.7112 82.8166C17.515 80.8884 18.5622 79.0777 19.8366 77.4128L17.4986 70.9174C17.1807 70.034 17.5407 69.0495 18.3543 68.5799L29.1536 62.3451C29.9669 61.8753 31.0001 62.0559 31.6059 62.7733L36.0596 68.0451C38.1401 67.7776 40.228 67.7782 42.3032 68.0448L46.7566 62.7733C47.3627 62.0557 48.3954 61.8758 49.2089 62.3448L60.0103 68.5799C60.8241 69.0497 61.1842 70.0345 60.8659 70.9182L58.5259 77.4134C59.7995 79.0771 60.8471 80.8874 61.6527 82.8166ZM39.1816 78.4043C36.4583 78.4043 33.8253 79.1971 31.5679 80.6971C27.707 83.2604 25.4022 87.5546 25.4022 92.1837C25.4022 92.4712 25.4117 92.7611 25.4295 93.0446C25.4979 94.1141 26.4189 94.9251 27.4896 94.8575C28.5591 94.7891 29.3708 93.8666 29.3024 92.7974C29.2894 92.5955 29.283 92.3891 29.283 92.1837C29.283 88.8581 30.9397 85.7727 33.7151 83.9298C35.3344 82.8537 37.2248 82.2851 39.1816 82.2851C44.6397 82.2851 49.0801 86.7255 49.0801 92.1837C49.0801 92.3904 49.0737 92.5968 49.0607 92.7974C48.9923 93.8666 49.8041 94.7893 50.8735 94.8575C50.9156 94.86 50.9572 94.8615 50.9991 94.8615C52.014 94.8615 52.8681 94.0723 52.9339 93.0449C52.952 92.7627 52.9609 92.4728 52.9609 92.1839C52.9609 84.5856 46.7796 78.4043 39.1816 78.4043ZM116.893 57.4256L122.776 61.0244C123.578 61.5149 123.913 62.508 123.572 63.3833L119.051 75.0053C118.711 75.8806 117.792 76.3856 116.871 76.2062L110.102 74.8836C108.654 76.3887 107.022 77.697 105.229 78.7877L105.055 85.6876C105.031 86.6264 104.338 87.4134 103.41 87.5563L91.0841 89.4528C90.9844 89.4676 90.8854 89.475 90.7876 89.475C89.9703 89.475 89.2259 88.9575 88.9536 88.1644L86.7136 81.6375C85.7011 81.3857 84.7023 81.069 83.7323 80.6918C82.7619 80.3142 81.8111 79.8727 80.8944 79.3738L74.8328 82.6713C74.0081 83.1199 72.9797 82.9137 72.392 82.1811L64.5875 72.454C64.0001 71.7217 64.0212 70.6734 64.638 69.9652L69.1719 64.7608C68.588 62.7453 68.2685 60.6784 68.218 58.59L62.3353 54.9914C61.534 54.5014 61.1989 53.508 61.5393 52.6327L66.0604 41.0107C66.4008 40.1354 67.3195 39.6304 68.2409 39.8098L75.0092 41.1324C76.4586 39.6263 78.0907 38.3187 79.8816 37.2291L80.0567 30.3279C80.0804 29.3894 80.7732 28.6024 81.7013 28.4595L94.0274 26.563C94.9565 26.4193 95.8533 26.9626 96.1579 27.8511L98.3974 34.379C99.4102 34.6308 100.409 34.9478 101.38 35.3252C102.35 35.7026 103.3 36.1438 104.216 36.6427L110.278 33.3442C111.103 32.8956 112.132 33.1015 112.719 33.8344L120.524 43.5615C121.111 44.2938 121.09 45.3419 120.474 46.0503L115.939 51.2557C116.523 53.2691 116.843 55.3361 116.893 57.4256ZM109.781 70.8668L116.022 72.0863L119.367 63.4887L113.941 60.1698C113.352 59.8092 112.998 59.1623 113.014 58.4715C113.067 56.0761 112.701 53.706 111.925 51.4267C111.702 50.7722 111.844 50.0482 112.299 49.5269L116.481 44.7251L110.708 37.5295L105.119 40.5707C104.513 40.9007 103.777 40.8836 103.186 40.5261C102.166 39.908 101.085 39.3755 99.9734 38.9429C98.8608 38.5101 97.7036 38.172 96.5341 37.938C95.8573 37.8028 95.3031 37.3179 95.079 36.6649L93.0143 30.6464L83.8956 32.0492L83.7339 38.4149C83.7162 39.1065 83.3319 39.736 82.7256 40.068C80.6135 41.2237 78.7417 42.7232 77.1619 44.525C76.7064 45.0443 76.0087 45.2827 75.3307 45.15L69.0892 43.9305L65.7445 52.5283L71.1697 55.847C71.7594 56.2076 72.1126 56.8547 72.097 57.5455C72.0434 59.9386 72.4099 62.3095 73.1861 64.5921C73.4087 65.2466 73.2663 65.9701 72.8123 66.4914L68.6301 71.2917L74.4036 78.4876L79.9921 75.4473C80.2817 75.2901 80.6007 75.2118 80.9192 75.2118C81.268 75.2118 81.6163 75.3057 81.9246 75.4925C82.9443 76.1103 84.0258 76.6431 85.1384 77.0759C86.2502 77.5084 87.4072 77.8465 88.5767 78.0803C89.2535 78.2155 89.8075 78.7001 90.0315 79.3531L92.097 85.3706L101.215 83.9679L101.377 77.6034C101.395 76.9121 101.778 76.2828 102.385 75.9505C104.499 74.7925 106.371 73.2923 107.949 71.4922C108.405 70.9727 109.102 70.7341 109.781 70.8668ZM104.294 60.4939C103.295 60.1055 102.171 60.6006 101.782 61.5988C100.823 64.0634 98.962 66.0071 96.5416 67.0717C94.1209 68.1364 91.4308 68.1948 88.966 67.2361C87.1417 66.5264 85.5861 65.3105 84.4664 63.7184C82.5492 60.9961 82.1245 57.5202 83.33 54.4211C84.5358 51.3213 87.1978 49.0466 90.4511 48.336C90.4769 48.3304 90.503 48.324 90.5285 48.3173C92.4056 47.9226 94.345 48.0828 96.1443 48.783C99.2144 49.977 101.483 52.611 102.213 55.8284C102.45 56.8734 103.489 57.5284 104.535 57.2911C105.58 57.0538 106.235 56.0147 105.998 54.9694C104.982 50.4928 101.825 46.8281 97.5514 45.1658C95.0131 44.1783 92.2706 43.9632 89.6216 44.5427C89.5909 44.5493 89.5611 44.5567 89.5312 44.5646C85.0464 45.5759 81.3799 48.7284 79.7131 53.0135C78.035 57.3273 78.6257 62.1643 81.2926 65.951C82.8531 68.1698 85.0201 69.8647 87.5592 70.852C89.1803 71.4828 90.8709 71.7972 92.5597 71.7972C94.4448 71.7972 96.327 71.405 98.1041 70.6239C101.474 69.142 104.064 66.4363 105.399 63.0057C105.787 62.0071 105.293 60.8825 104.294 60.4939Z"/>
</mask>
<path fill-rule="evenodd" clip-rule="evenodd" d="M10.2331 0H120.419C126.062 0 130.654 4.59023 130.654 10.2323V89.7677C130.654 95.4098 126.062 100 120.419 100H10.2331C4.59099 100 0.000765548 95.4098 0.000765548 89.7677V23.2714C0.000765548 23.2685 0.000574161 23.2655 0.000382774 23.2626C0.000191387 23.2597 0 23.2567 0 23.2538C0 23.2509 0.000191418 23.2479 0.000382821 23.245C0.000574192 23.242 0.000765548 23.2391 0.000765548 23.2362V10.2323C0.000765548 4.59023 4.59099 0 10.2331 0ZM120.419 96.1192C123.922 96.1192 126.773 93.2698 126.773 89.7677V25.1942H24.6889C23.6174 25.1942 22.7485 24.3253 22.7485 23.2538C22.7485 22.1823 23.6174 21.3134 24.6889 21.3134H126.773V10.2323C126.773 6.73019 123.922 3.88082 120.419 3.88082H10.2331C6.73096 3.88082 3.88159 6.72994 3.88159 10.2323V21.3136H17.723C18.7945 21.3136 19.6634 22.1825 19.6634 23.254C19.6634 24.3256 18.7945 25.1945 17.723 25.1945H3.88159V89.7677C3.88159 93.2698 6.7307 96.1192 10.2331 96.1192H120.419ZM8.93951 12.3879C8.93951 8.9631 11.7259 6.17676 15.1507 6.17676C18.5755 6.17676 21.3618 8.9631 21.3618 12.3879C21.3618 15.8127 18.5755 18.5991 15.1507 18.5991C11.7259 18.5991 8.93951 15.8127 8.93951 12.3879ZM12.8203 12.3882C12.8203 13.673 13.8656 14.7185 15.1507 14.7185C16.4355 14.7185 17.481 13.673 17.481 12.3882C17.481 11.1033 16.4355 10.0578 15.1507 10.0578C13.8658 10.0578 12.8203 11.1033 12.8203 12.3882ZM23.3175 12.3879C23.3175 8.9631 26.1041 6.17676 29.5287 6.17676C32.9535 6.17676 35.7398 8.9631 35.7398 12.3879C35.7398 15.8127 32.9535 18.5991 29.5287 18.5991C26.1036 18.5991 23.3175 15.8125 23.3175 12.3879ZM27.1983 12.3874C27.1983 13.6722 28.2438 14.7177 29.5287 14.7177C30.8135 14.7177 31.859 13.6722 31.859 12.3874C31.859 11.1026 30.8138 10.0571 29.5287 10.0571C28.2436 10.0571 27.1983 11.1026 27.1983 12.3874ZM43.9067 6.17676C40.4819 6.17676 37.6956 8.9631 37.6956 12.3879C37.6956 15.8125 40.4819 18.5991 43.9067 18.5991C47.3315 18.5991 50.1179 15.8127 50.1179 12.3879C50.1179 8.9631 47.3315 6.17676 43.9067 6.17676ZM43.9067 14.7177C42.6216 14.7177 41.5764 13.6722 41.5764 12.3874C41.5764 11.1026 42.6219 10.0571 43.9067 10.0571C45.1916 10.0571 46.237 11.1026 46.237 12.3874C46.237 13.6722 45.1916 14.7177 43.9067 14.7177ZM61.6527 82.8166L68.4395 84.0394C69.3635 84.2058 70.0359 85.0101 70.0357 85.9495V92.9218C70.0357 93.9933 69.167 94.8622 68.0953 94.8622C67.0235 94.8622 66.1549 93.9933 66.1549 92.9218V87.5712L59.8965 86.4438C59.2172 86.321 58.654 85.8469 58.4175 85.198C57.597 82.9455 56.3956 80.8698 54.8467 79.0282C54.4011 78.4989 54.2715 77.7724 54.506 77.1214L56.6649 71.1297L48.6741 66.5171L44.5674 71.378C44.1216 71.9052 43.4301 72.1563 42.7497 72.0369C40.3908 71.6227 37.9811 71.622 35.612 72.0369C34.9315 72.1558 34.2404 71.905 33.7951 71.3778L29.6885 66.5168L21.6997 71.1295L23.8563 77.1214C24.0908 77.7721 23.9609 78.4984 23.5156 79.0276C21.9656 80.8703 20.7652 82.9457 19.9479 85.1959C19.7121 85.8456 19.1481 86.3205 18.4681 86.4433L12.2072 87.5709V92.9213C12.2072 93.9928 11.3383 94.8617 10.2668 94.8617C9.19525 94.8617 8.32635 93.9928 8.32635 92.9213V85.949C8.32635 85.0101 8.99825 84.2061 9.92252 84.0394L16.7112 82.8166C17.515 80.8884 18.5622 79.0777 19.8366 77.4128L17.4986 70.9174C17.1807 70.034 17.5407 69.0495 18.3543 68.5799L29.1536 62.3451C29.9669 61.8753 31.0001 62.0559 31.6059 62.7733L36.0596 68.0451C38.1401 67.7776 40.228 67.7782 42.3032 68.0448L46.7566 62.7733C47.3627 62.0557 48.3954 61.8758 49.2089 62.3448L60.0103 68.5799C60.8241 69.0497 61.1842 70.0345 60.8659 70.9182L58.5259 77.4134C59.7995 79.0771 60.8471 80.8874 61.6527 82.8166ZM39.1816 78.4043C36.4583 78.4043 33.8253 79.1971 31.5679 80.6971C27.707 83.2604 25.4022 87.5546 25.4022 92.1837C25.4022 92.4712 25.4117 92.7611 25.4295 93.0446C25.4979 94.1141 26.4189 94.9251 27.4896 94.8575C28.5591 94.7891 29.3708 93.8666 29.3024 92.7974C29.2894 92.5955 29.283 92.3891 29.283 92.1837C29.283 88.8581 30.9397 85.7727 33.7151 83.9298C35.3344 82.8537 37.2248 82.2851 39.1816 82.2851C44.6397 82.2851 49.0801 86.7255 49.0801 92.1837C49.0801 92.3904 49.0737 92.5968 49.0607 92.7974C48.9923 93.8666 49.8041 94.7893 50.8735 94.8575C50.9156 94.86 50.9572 94.8615 50.9991 94.8615C52.014 94.8615 52.8681 94.0723 52.9339 93.0449C52.952 92.7627 52.9609 92.4728 52.9609 92.1839C52.9609 84.5856 46.7796 78.4043 39.1816 78.4043ZM116.893 57.4256L122.776 61.0244C123.578 61.5149 123.913 62.508 123.572 63.3833L119.051 75.0053C118.711 75.8806 117.792 76.3856 116.871 76.2062L110.102 74.8836C108.654 76.3887 107.022 77.697 105.229 78.7877L105.055 85.6876C105.031 86.6264 104.338 87.4134 103.41 87.5563L91.0841 89.4528C90.9844 89.4676 90.8854 89.475 90.7876 89.475C89.9703 89.475 89.2259 88.9575 88.9536 88.1644L86.7136 81.6375C85.7011 81.3857 84.7023 81.069 83.7323 80.6918C82.7619 80.3142 81.8111 79.8727 80.8944 79.3738L74.8328 82.6713C74.0081 83.1199 72.9797 82.9137 72.392 82.1811L64.5875 72.454C64.0001 71.7217 64.0212 70.6734 64.638 69.9652L69.1719 64.7608C68.588 62.7453 68.2685 60.6784 68.218 58.59L62.3353 54.9914C61.534 54.5014 61.1989 53.508 61.5393 52.6327L66.0604 41.0107C66.4008 40.1354 67.3195 39.6304 68.2409 39.8098L75.0092 41.1324C76.4586 39.6263 78.0907 38.3187 79.8816 37.2291L80.0567 30.3279C80.0804 29.3894 80.7732 28.6024 81.7013 28.4595L94.0274 26.563C94.9565 26.4193 95.8533 26.9626 96.1579 27.8511L98.3974 34.379C99.4102 34.6308 100.409 34.9478 101.38 35.3252C102.35 35.7026 103.3 36.1438 104.216 36.6427L110.278 33.3442C111.103 32.8956 112.132 33.1015 112.719 33.8344L120.524 43.5615C121.111 44.2938 121.09 45.3419 120.474 46.0503L115.939 51.2557C116.523 53.2691 116.843 55.3361 116.893 57.4256ZM109.781 70.8668L116.022 72.0863L119.367 63.4887L113.941 60.1698C113.352 59.8092 112.998 59.1623 113.014 58.4715C113.067 56.0761 112.701 53.706 111.925 51.4267C111.702 50.7722 111.844 50.0482 112.299 49.5269L116.481 44.7251L110.708 37.5295L105.119 40.5707C104.513 40.9007 103.777 40.8836 103.186 40.5261C102.166 39.908 101.085 39.3755 99.9734 38.9429C98.8608 38.5101 97.7036 38.172 96.5341 37.938C95.8573 37.8028 95.3031 37.3179 95.079 36.6649L93.0143 30.6464L83.8956 32.0492L83.7339 38.4149C83.7162 39.1065 83.3319 39.736 82.7256 40.068C80.6135 41.2237 78.7417 42.7232 77.1619 44.525C76.7064 45.0443 76.0087 45.2827 75.3307 45.15L69.0892 43.9305L65.7445 52.5283L71.1697 55.847C71.7594 56.2076 72.1126 56.8547 72.097 57.5455C72.0434 59.9386 72.4099 62.3095 73.1861 64.5921C73.4087 65.2466 73.2663 65.9701 72.8123 66.4914L68.6301 71.2917L74.4036 78.4876L79.9921 75.4473C80.2817 75.2901 80.6007 75.2118 80.9192 75.2118C81.268 75.2118 81.6163 75.3057 81.9246 75.4925C82.9443 76.1103 84.0258 76.6431 85.1384 77.0759C86.2502 77.5084 87.4072 77.8465 88.5767 78.0803C89.2535 78.2155 89.8075 78.7001 90.0315 79.3531L92.097 85.3706L101.215 83.9679L101.377 77.6034C101.395 76.9121 101.778 76.2828 102.385 75.9505C104.499 74.7925 106.371 73.2923 107.949 71.4922C108.405 70.9727 109.102 70.7341 109.781 70.8668ZM104.294 60.4939C103.295 60.1055 102.171 60.6006 101.782 61.5988C100.823 64.0634 98.962 66.0071 96.5416 67.0717C94.1209 68.1364 91.4308 68.1948 88.966 67.2361C87.1417 66.5264 85.5861 65.3105 84.4664 63.7184C82.5492 60.9961 82.1245 57.5202 83.33 54.4211C84.5358 51.3213 87.1978 49.0466 90.4511 48.336C90.4769 48.3304 90.503 48.324 90.5285 48.3173C92.4056 47.9226 94.345 48.0828 96.1443 48.783C99.2144 49.977 101.483 52.611 102.213 55.8284C102.45 56.8734 103.489 57.5284 104.535 57.2911C105.58 57.0538 106.235 56.0147 105.998 54.9694C104.982 50.4928 101.825 46.8281 97.5514 45.1658C95.0131 44.1783 92.2706 43.9632 89.6216 44.5427C89.5909 44.5493 89.5611 44.5567 89.5312 44.5646C85.0464 45.5759 81.3799 48.7284 79.7131 53.0135C78.035 57.3273 78.6257 62.1643 81.2926 65.951C82.8531 68.1698 85.0201 69.8647 87.5592 70.852C89.1803 71.4828 90.8709 71.7972 92.5597 71.7972C94.4448 71.7972 96.327 71.405 98.1041 70.6239C101.474 69.142 104.064 66.4363 105.399 63.0057C105.787 62.0071 105.293 60.8825 104.294 60.4939Z" fill="white"/>
<path fill-rule="evenodd" clip-rule="evenodd" d="M10.2331 0H120.419C126.062 0 130.654 4.59023 130.654 10.2323V89.7677C130.654 95.4098 126.062 100 120.419 100H10.2331C4.59099 100 0.000765548 95.4098 0.000765548 89.7677V23.2714C0.000765548 23.2685 0.000574161 23.2655 0.000382774 23.2626C0.000191387 23.2597 0 23.2567 0 23.2538C0 23.2509 0.000191418 23.2479 0.000382821 23.245C0.000574192 23.242 0.000765548 23.2391 0.000765548 23.2362V10.2323C0.000765548 4.59023 4.59099 0 10.2331 0ZM120.419 96.1192C123.922 96.1192 126.773 93.2698 126.773 89.7677V25.1942H24.6889C23.6174 25.1942 22.7485 24.3253 22.7485 23.2538C22.7485 22.1823 23.6174 21.3134 24.6889 21.3134H126.773V10.2323C126.773 6.73019 123.922 3.88082 120.419 3.88082H10.2331C6.73096 3.88082 3.88159 6.72994 3.88159 10.2323V21.3136H17.723C18.7945 21.3136 19.6634 22.1825 19.6634 23.254C19.6634 24.3256 18.7945 25.1945 17.723 25.1945H3.88159V89.7677C3.88159 93.2698 6.7307 96.1192 10.2331 96.1192H120.419ZM8.93951 12.3879C8.93951 8.9631 11.7259 6.17676 15.1507 6.17676C18.5755 6.17676 21.3618 8.9631 21.3618 12.3879C21.3618 15.8127 18.5755 18.5991 15.1507 18.5991C11.7259 18.5991 8.93951 15.8127 8.93951 12.3879ZM12.8203 12.3882C12.8203 13.673 13.8656 14.7185 15.1507 14.7185C16.4355 14.7185 17.481 13.673 17.481 12.3882C17.481 11.1033 16.4355 10.0578 15.1507 10.0578C13.8658 10.0578 12.8203 11.1033 12.8203 12.3882ZM23.3175 12.3879C23.3175 8.9631 26.1041 6.17676 29.5287 6.17676C32.9535 6.17676 35.7398 8.9631 35.7398 12.3879C35.7398 15.8127 32.9535 18.5991 29.5287 18.5991C26.1036 18.5991 23.3175 15.8125 23.3175 12.3879ZM27.1983 12.3874C27.1983 13.6722 28.2438 14.7177 29.5287 14.7177C30.8135 14.7177 31.859 13.6722 31.859 12.3874C31.859 11.1026 30.8138 10.0571 29.5287 10.0571C28.2436 10.0571 27.1983 11.1026 27.1983 12.3874ZM43.9067 6.17676C40.4819 6.17676 37.6956 8.9631 37.6956 12.3879C37.6956 15.8125 40.4819 18.5991 43.9067 18.5991C47.3315 18.5991 50.1179 15.8127 50.1179 12.3879C50.1179 8.9631 47.3315 6.17676 43.9067 6.17676ZM43.9067 14.7177C42.6216 14.7177 41.5764 13.6722 41.5764 12.3874C41.5764 11.1026 42.6219 10.0571 43.9067 10.0571C45.1916 10.0571 46.237 11.1026 46.237 12.3874C46.237 13.6722 45.1916 14.7177 43.9067 14.7177ZM61.6527 82.8166L68.4395 84.0394C69.3635 84.2058 70.0359 85.0101 70.0357 85.9495V92.9218C70.0357 93.9933 69.167 94.8622 68.0953 94.8622C67.0235 94.8622 66.1549 93.9933 66.1549 92.9218V87.5712L59.8965 86.4438C59.2172 86.321 58.654 85.8469 58.4175 85.198C57.597 82.9455 56.3956 80.8698 54.8467 79.0282C54.4011 78.4989 54.2715 77.7724 54.506 77.1214L56.6649 71.1297L48.6741 66.5171L44.5674 71.378C44.1216 71.9052 43.4301 72.1563 42.7497 72.0369C40.3908 71.6227 37.9811 71.622 35.612 72.0369C34.9315 72.1558 34.2404 71.905 33.7951 71.3778L29.6885 66.5168L21.6997 71.1295L23.8563 77.1214C24.0908 77.7721 23.9609 78.4984 23.5156 79.0276C21.9656 80.8703 20.7652 82.9457 19.9479 85.1959C19.7121 85.8456 19.1481 86.3205 18.4681 86.4433L12.2072 87.5709V92.9213C12.2072 93.9928 11.3383 94.8617 10.2668 94.8617C9.19525 94.8617 8.32635 93.9928 8.32635 92.9213V85.949C8.32635 85.0101 8.99825 84.2061 9.92252 84.0394L16.7112 82.8166C17.515 80.8884 18.5622 79.0777 19.8366 77.4128L17.4986 70.9174C17.1807 70.034 17.5407 69.0495 18.3543 68.5799L29.1536 62.3451C29.9669 61.8753 31.0001 62.0559 31.6059 62.7733L36.0596 68.0451C38.1401 67.7776 40.228 67.7782 42.3032 68.0448L46.7566 62.7733C47.3627 62.0557 48.3954 61.8758 49.2089 62.3448L60.0103 68.5799C60.8241 69.0497 61.1842 70.0345 60.8659 70.9182L58.5259 77.4134C59.7995 79.0771 60.8471 80.8874 61.6527 82.8166ZM39.1816 78.4043C36.4583 78.4043 33.8253 79.1971 31.5679 80.6971C27.707 83.2604 25.4022 87.5546 25.4022 92.1837C25.4022 92.4712 25.4117 92.7611 25.4295 93.0446C25.4979 94.1141 26.4189 94.9251 27.4896 94.8575C28.5591 94.7891 29.3708 93.8666 29.3024 92.7974C29.2894 92.5955 29.283 92.3891 29.283 92.1837C29.283 88.8581 30.9397 85.7727 33.7151 83.9298C35.3344 82.8537 37.2248 82.2851 39.1816 82.2851C44.6397 82.2851 49.0801 86.7255 49.0801 92.1837C49.0801 92.3904 49.0737 92.5968 49.0607 92.7974C48.9923 93.8666 49.8041 94.7893 50.8735 94.8575C50.9156 94.86 50.9572 94.8615 50.9991 94.8615C52.014 94.8615 52.8681 94.0723 52.9339 93.0449C52.952 92.7627 52.9609 92.4728 52.9609 92.1839C52.9609 84.5856 46.7796 78.4043 39.1816 78.4043ZM116.893 57.4256L122.776 61.0244C123.578 61.5149 123.913 62.508 123.572 63.3833L119.051 75.0053C118.711 75.8806 117.792 76.3856 116.871 76.2062L110.102 74.8836C108.654 76.3887 107.022 77.697 105.229 78.7877L105.055 85.6876C105.031 86.6264 104.338 87.4134 103.41 87.5563L91.0841 89.4528C90.9844 89.4676 90.8854 89.475 90.7876 89.475C89.9703 89.475 89.2259 88.9575 88.9536 88.1644L86.7136 81.6375C85.7011 81.3857 84.7023 81.069 83.7323 80.6918C82.7619 80.3142 81.8111 79.8727 80.8944 79.3738L74.8328 82.6713C74.0081 83.1199 72.9797 82.9137 72.392 82.1811L64.5875 72.454C64.0001 71.7217 64.0212 70.6734 64.638 69.9652L69.1719 64.7608C68.588 62.7453 68.2685 60.6784 68.218 58.59L62.3353 54.9914C61.534 54.5014 61.1989 53.508 61.5393 52.6327L66.0604 41.0107C66.4008 40.1354 67.3195 39.6304 68.2409 39.8098L75.0092 41.1324C76.4586 39.6263 78.0907 38.3187 79.8816 37.2291L80.0567 30.3279C80.0804 29.3894 80.7732 28.6024 81.7013 28.4595L94.0274 26.563C94.9565 26.4193 95.8533 26.9626 96.1579 27.8511L98.3974 34.379C99.4102 34.6308 100.409 34.9478 101.38 35.3252C102.35 35.7026 103.3 36.1438 104.216 36.6427L110.278 33.3442C111.103 32.8956 112.132 33.1015 112.719 33.8344L120.524 43.5615C121.111 44.2938 121.09 45.3419 120.474 46.0503L115.939 51.2557C116.523 53.2691 116.843 55.3361 116.893 57.4256ZM109.781 70.8668L116.022 72.0863L119.367 63.4887L113.941 60.1698C113.352 59.8092 112.998 59.1623 113.014 58.4715C113.067 56.0761 112.701 53.706 111.925 51.4267C111.702 50.7722 111.844 50.0482 112.299 49.5269L116.481 44.7251L110.708 37.5295L105.119 40.5707C104.513 40.9007 103.777 40.8836 103.186 40.5261C102.166 39.908 101.085 39.3755 99.9734 38.9429C98.8608 38.5101 97.7036 38.172 96.5341 37.938C95.8573 37.8028 95.3031 37.3179 95.079 36.6649L93.0143 30.6464L83.8956 32.0492L83.7339 38.4149C83.7162 39.1065 83.3319 39.736 82.7256 40.068C80.6135 41.2237 78.7417 42.7232 77.1619 44.525C76.7064 45.0443 76.0087 45.2827 75.3307 45.15L69.0892 43.9305L65.7445 52.5283L71.1697 55.847C71.7594 56.2076 72.1126 56.8547 72.097 57.5455C72.0434 59.9386 72.4099 62.3095 73.1861 64.5921C73.4087 65.2466 73.2663 65.9701 72.8123 66.4914L68.6301 71.2917L74.4036 78.4876L79.9921 75.4473C80.2817 75.2901 80.6007 75.2118 80.9192 75.2118C81.268 75.2118 81.6163 75.3057 81.9246 75.4925C82.9443 76.1103 84.0258 76.6431 85.1384 77.0759C86.2502 77.5084 87.4072 77.8465 88.5767 78.0803C89.2535 78.2155 89.8075 78.7001 90.0315 79.3531L92.097 85.3706L101.215 83.9679L101.377 77.6034C101.395 76.9121 101.778 76.2828 102.385 75.9505C104.499 74.7925 106.371 73.2923 107.949 71.4922C108.405 70.9727 109.102 70.7341 109.781 70.8668ZM104.294 60.4939C103.295 60.1055 102.171 60.6006 101.782 61.5988C100.823 64.0634 98.962 66.0071 96.5416 67.0717C94.1209 68.1364 91.4308 68.1948 88.966 67.2361C87.1417 66.5264 85.5861 65.3105 84.4664 63.7184C82.5492 60.9961 82.1245 57.5202 83.33 54.4211C84.5358 51.3213 87.1978 49.0466 90.4511 48.336C90.4769 48.3304 90.503 48.324 90.5285 48.3173C92.4056 47.9226 94.345 48.0828 96.1443 48.783C99.2144 49.977 101.483 52.611 102.213 55.8284C102.45 56.8734 103.489 57.5284 104.535 57.2911C105.58 57.0538 106.235 56.0147 105.998 54.9694C104.982 50.4928 101.825 46.8281 97.5514 45.1658C95.0131 44.1783 92.2706 43.9632 89.6216 44.5427C89.5909 44.5493 89.5611 44.5567 89.5312 44.5646C85.0464 45.5759 81.3799 48.7284 79.7131 53.0135C78.035 57.3273 78.6257 62.1643 81.2926 65.951C82.8531 68.1698 85.0201 69.8647 87.5592 70.852C89.1803 71.4828 90.8709 71.7972 92.5597 71.7972C94.4448 71.7972 96.327 71.405 98.1041 70.6239C101.474 69.142 104.064 66.4363 105.399 63.0057C105.787 62.0071 105.293 60.8825 104.294 60.4939Z" fill="url(#paint0_linear_571_294)"/>
<path d="M0.000382774 23.2626L-0.997499 23.3277L-0.997496 23.3277L0.000382774 23.2626ZM0.000382821 23.245L0.998264 23.31L0.998264 23.31L0.000382821 23.245ZM126.773 89.7677L127.773 89.7678V89.7677H126.773ZM126.773 25.1942H127.773V24.1942H126.773V25.1942ZM126.773 21.3134V22.3134H127.773V21.3134H126.773ZM3.88159 21.3136H2.88159V22.3136H3.88159V21.3136ZM3.88159 25.1945V24.1945H2.88159V25.1945H3.88159ZM68.4395 84.0394L68.2622 85.0236L68.2623 85.0236L68.4395 84.0394ZM61.6527 82.8166L60.7299 83.2019L60.9396 83.7042L61.4753 83.8008L61.6527 82.8166ZM70.0357 85.9495L69.0357 85.9492V85.9495H70.0357ZM66.1549 87.5712H67.1549V86.7352L66.3321 86.587L66.1549 87.5712ZM59.8965 86.4438L59.7187 87.4278L59.7192 87.4279L59.8965 86.4438ZM58.4175 85.198L57.4778 85.5402L57.4779 85.5404L58.4175 85.198ZM54.8467 79.0282L55.612 78.3845L55.6117 78.3841L54.8467 79.0282ZM54.506 77.1214L53.5652 76.7825L53.5652 76.7825L54.506 77.1214ZM56.6649 71.1297L57.6057 71.4687L57.8892 70.6818L57.1648 70.2637L56.6649 71.1297ZM48.6741 66.5171L49.174 65.651L48.4498 65.2329L47.9102 65.8717L48.6741 66.5171ZM44.5674 71.378L45.331 72.0237L45.3313 72.0234L44.5674 71.378ZM42.7497 72.0369L42.5768 73.0218L42.5768 73.0219L42.7497 72.0369ZM35.612 72.0369L35.7841 73.022L35.7845 73.0219L35.612 72.0369ZM33.7951 71.3778L34.5591 70.7325L34.559 70.7324L33.7951 71.3778ZM29.6885 66.5168L30.4524 65.8715L29.9127 65.2326L29.1884 65.6508L29.6885 66.5168ZM21.6997 71.1295L21.1997 70.2635L20.4757 70.6815L20.7588 71.4681L21.6997 71.1295ZM23.8563 77.1214L22.9154 77.4601L22.9155 77.4605L23.8563 77.1214ZM23.5156 79.0276L22.7504 78.3838L22.7503 78.3839L23.5156 79.0276ZM19.9479 85.1959L19.008 84.8545L19.0079 84.8548L19.9479 85.1959ZM18.4681 86.4433L18.6453 87.4274L18.6457 87.4274L18.4681 86.4433ZM12.2072 87.5709L12.0299 86.5867L11.2072 86.7349V87.5709H12.2072ZM9.92252 84.0394L9.74525 83.0553L9.7451 83.0553L9.92252 84.0394ZM16.7112 82.8166L16.8884 83.8008L17.4245 83.7042L17.6342 83.2014L16.7112 82.8166ZM19.8366 77.4128L20.6307 78.0207L20.9623 77.5875L20.7775 77.0742L19.8366 77.4128ZM17.4986 70.9174L16.5577 71.2561L16.5577 71.2561L17.4986 70.9174ZM18.3543 68.5799L18.8542 69.446L18.8543 69.446L18.3543 68.5799ZM29.1536 62.3451L29.6536 63.2111L29.6538 63.211L29.1536 62.3451ZM31.6059 62.7733L30.8419 63.4185L30.842 63.4186L31.6059 62.7733ZM36.0596 68.0451L35.2957 68.6904L35.6471 69.1063L36.1871 69.0369L36.0596 68.0451ZM42.3032 68.0448L42.1757 69.0367L42.7157 69.1061L43.0671 68.6902L42.3032 68.0448ZM46.7566 62.7733L47.5205 63.4186L47.5206 63.4185L46.7566 62.7733ZM49.2089 62.3448L49.7089 61.4788L49.7084 61.4785L49.2089 62.3448ZM60.0103 68.5799L60.5103 67.7139L60.5102 67.7139L60.0103 68.5799ZM60.8659 70.9182L61.8067 71.2571L61.8068 71.257L60.8659 70.9182ZM58.5259 77.4134L57.5851 77.0744L57.4001 77.5878L57.7319 78.0212L58.5259 77.4134ZM31.5679 80.6971L32.1211 81.5302L32.1214 81.53L31.5679 80.6971ZM25.4295 93.0446L24.4315 93.1075L24.4316 93.1085L25.4295 93.0446ZM27.4896 94.8575L27.5526 95.8555L27.5534 95.8554L27.4896 94.8575ZM29.3024 92.7974L30.3004 92.7335L30.3004 92.733L29.3024 92.7974ZM33.7151 83.9298L34.2682 84.7628L34.2685 84.7626L33.7151 83.9298ZM49.0607 92.7974L48.0628 92.7326L48.0628 92.7335L49.0607 92.7974ZM50.8735 94.8575L50.81 95.8554L50.813 95.8556L50.8735 94.8575ZM52.9339 93.0449L51.9359 92.9808L51.9359 92.9809L52.9339 93.0449ZM122.776 61.0244L123.298 60.1715L123.298 60.1714L122.776 61.0244ZM116.893 57.4256L115.894 57.4498L115.907 57.9944L116.371 58.2786L116.893 57.4256ZM123.572 63.3833L124.504 63.7458L124.504 63.7458L123.572 63.3833ZM119.051 75.0053L118.119 74.6428L118.119 74.6429L119.051 75.0053ZM116.871 76.2062L116.679 77.1877L116.679 77.1878L116.871 76.2062ZM110.102 74.8836L110.294 73.9022L109.76 73.7977L109.382 74.1901L110.102 74.8836ZM105.229 78.7877L104.71 77.9334L104.244 78.217L104.23 78.7623L105.229 78.7877ZM105.055 85.6876L104.055 85.6622V85.6623L105.055 85.6876ZM103.41 87.5563L103.562 88.5446L103.562 88.5446L103.41 87.5563ZM91.0841 89.4528L91.2309 90.442L91.2362 90.4411L91.0841 89.4528ZM88.9536 88.1644L88.0078 88.489L88.0078 88.4891L88.9536 88.1644ZM86.7136 81.6375L87.6595 81.3129L87.4829 80.7984L86.955 80.6671L86.7136 81.6375ZM83.7323 80.6918L83.3697 81.6238L83.3699 81.6239L83.7323 80.6918ZM80.8944 79.3738L81.3725 78.4955L80.8946 78.2354L80.4166 78.4954L80.8944 79.3738ZM74.8328 82.6713L75.3106 83.5498L75.3107 83.5497L74.8328 82.6713ZM72.392 82.1811L73.1721 81.5554L73.172 81.5553L72.392 82.1811ZM64.5875 72.454L63.8074 73.0797L63.8075 73.0798L64.5875 72.454ZM64.638 69.9652L63.884 69.3084L63.8839 69.3084L64.638 69.9652ZM69.1719 64.7608L69.9259 65.4176L70.2841 65.0064L70.1324 64.4825L69.1719 64.7608ZM68.218 58.59L69.2177 58.5658L69.2045 58.0212L68.7398 57.7369L68.218 58.59ZM62.3353 54.9914L62.8571 54.1383L62.8569 54.1382L62.3353 54.9914ZM61.5393 52.6327L60.6074 52.2702L60.6073 52.2702L61.5393 52.6327ZM66.0604 41.0107L66.9924 41.3732L66.9924 41.3731L66.0604 41.0107ZM68.2409 39.8098L68.4327 38.8283L68.432 38.8282L68.2409 39.8098ZM75.0092 41.1324L74.8174 42.1138L75.352 42.2183L75.7297 41.8258L75.0092 41.1324ZM79.8816 37.2291L80.4014 38.0834L80.8675 37.7998L80.8813 37.2545L79.8816 37.2291ZM80.0567 30.3279L81.0564 30.3533V30.3532L80.0567 30.3279ZM81.7013 28.4595L81.5493 27.4711L81.5491 27.4711L81.7013 28.4595ZM94.0274 26.563L94.1795 27.5513L94.1802 27.5512L94.0274 26.563ZM96.1579 27.8511L95.212 28.1755L95.2121 28.1756L96.1579 27.8511ZM98.3974 34.379L97.4515 34.7035L97.6281 35.2181L98.1561 35.3494L98.3974 34.379ZM101.38 35.3252L101.743 34.3933L101.742 34.3932L101.38 35.3252ZM104.216 36.6427L103.738 37.521L104.216 37.7812L104.694 37.5211L104.216 36.6427ZM110.278 33.3442L109.801 32.4658L109.801 32.4658L110.278 33.3442ZM112.719 33.8344L111.939 34.4598L111.939 34.4602L112.719 33.8344ZM120.524 43.5615L119.744 44.1873L119.744 44.1873L120.524 43.5615ZM120.474 46.0503L121.228 46.7071L121.228 46.7069L120.474 46.0503ZM115.939 51.2557L115.185 50.5989L114.827 51.0103L114.979 51.5343L115.939 51.2557ZM116.022 72.0863L115.83 73.0678L116.651 73.2281L116.954 72.4488L116.022 72.0863ZM109.781 70.8668L109.589 71.8482L109.589 71.8482L109.781 70.8668ZM119.367 63.4887L120.299 63.8512L120.602 63.072L119.888 62.6357L119.367 63.4887ZM113.941 60.1698L114.463 59.3168L114.463 59.3167L113.941 60.1698ZM113.014 58.4715L114.014 58.4941L114.014 58.4937L113.014 58.4715ZM111.925 51.4267L110.978 51.7489L110.978 51.749L111.925 51.4267ZM112.299 49.5269L113.052 50.1838L113.053 50.1837L112.299 49.5269ZM116.481 44.7251L117.235 45.3819L117.784 44.7514L117.261 44.0993L116.481 44.7251ZM110.708 37.5295L111.488 36.9036L110.964 36.2514L110.23 36.6511L110.708 37.5295ZM105.119 40.5707L104.641 39.6924L104.641 39.6925L105.119 40.5707ZM103.186 40.5261L102.668 41.3814L102.668 41.3815L103.186 40.5261ZM99.9734 38.9429L100.336 38.011L100.336 38.0109L99.9734 38.9429ZM96.5341 37.938L96.7303 36.9574L96.73 36.9574L96.5341 37.938ZM95.079 36.6649L94.1331 36.9894L94.1331 36.9894L95.079 36.6649ZM93.0143 30.6464L93.9602 30.3219L93.6889 29.5309L92.8623 29.658L93.0143 30.6464ZM83.8956 32.0492L83.7436 31.0608L82.9172 31.1879L82.896 32.0238L83.8956 32.0492ZM83.7339 38.4149L84.7335 38.4404V38.4404L83.7339 38.4149ZM82.7256 40.068L83.2057 40.9453L83.2059 40.9451L82.7256 40.068ZM77.1619 44.525L77.9137 45.1845L77.9138 45.1843L77.1619 44.525ZM75.3307 45.15L75.5228 44.1686L75.5225 44.1685L75.3307 45.15ZM69.0892 43.9305L69.2809 42.949L68.4603 42.7887L68.1572 43.5679L69.0892 43.9305ZM65.7445 52.5283L64.8125 52.1658L64.5094 52.9451L65.2227 53.3814L65.7445 52.5283ZM71.1697 55.847L70.6479 56.7L70.648 56.7002L71.1697 55.847ZM72.097 57.5455L71.0973 57.523V57.5231L72.097 57.5455ZM73.1861 64.5921L74.1329 64.2702L74.1329 64.2701L73.1861 64.5921ZM72.8123 66.4914L73.5663 67.1483L73.5664 67.1481L72.8123 66.4914ZM68.6301 71.2917L67.8761 70.6348L67.3268 71.2653L67.8501 71.9175L68.6301 71.2917ZM74.4036 78.4876L73.6236 79.1134L74.1469 79.7656L74.8815 79.366L74.4036 78.4876ZM79.9921 75.4473L79.5151 74.5684L79.5142 74.5689L79.9921 75.4473ZM81.9246 75.4925L81.4064 76.3477L81.4064 76.3478L81.9246 75.4925ZM85.1384 77.0759L85.5009 76.1439L85.5009 76.1439L85.1384 77.0759ZM88.5767 78.0803L88.3807 79.0609L88.5767 78.0803ZM90.0315 79.3531L89.0856 79.6777L89.0857 79.6778L90.0315 79.3531ZM92.097 85.3706L91.1511 85.6953L91.4226 86.4861L92.249 86.359L92.097 85.3706ZM101.215 83.9679L101.367 84.9563L102.194 84.8291L102.215 83.9932L101.215 83.9679ZM101.377 77.6034L100.377 77.5779L100.377 77.578L101.377 77.6034ZM102.385 75.9505L101.904 75.0735L101.904 75.0736L102.385 75.9505ZM107.949 71.4922L107.197 70.833L107.197 70.8331L107.949 71.4922ZM101.782 61.5988L100.85 61.236L100.85 61.2363L101.782 61.5988ZM104.294 60.4939L104.657 59.562L104.656 59.5619L104.294 60.4939ZM96.5416 67.0717L96.9442 67.9871L96.9442 67.9871L96.5416 67.0717ZM88.966 67.2361L88.6035 68.168L88.6035 68.1681L88.966 67.2361ZM84.4664 63.7184L85.2843 63.1431L85.284 63.1426L84.4664 63.7184ZM83.33 54.4211L82.398 54.0585L82.398 54.0585L83.33 54.4211ZM90.4511 48.336L90.2384 47.3589L90.2377 47.359L90.4511 48.336ZM90.5285 48.3173L90.3227 47.3387L90.2997 47.3436L90.2769 47.3495L90.5285 48.3173ZM96.1443 48.783L95.7816 49.715L95.7818 49.715L96.1443 48.783ZM102.213 55.8284L103.189 55.6072L103.188 55.6071L102.213 55.8284ZM104.535 57.2911L104.756 58.2663L104.756 58.2663L104.535 57.2911ZM105.998 54.9694L105.022 55.1906L105.022 55.1909L105.998 54.9694ZM97.5514 45.1658L97.1888 46.0978L97.1888 46.0978L97.5514 45.1658ZM89.6216 44.5427L89.8333 45.52L89.8353 45.5196L89.6216 44.5427ZM89.5312 44.5646L89.7512 45.5401L89.7694 45.536L89.7874 45.5312L89.5312 44.5646ZM79.7131 53.0135L80.645 53.376L79.7131 53.0135ZM81.2926 65.951L82.1106 65.3757L82.1102 65.3752L81.2926 65.951ZM87.5592 70.852L87.9218 69.9201L87.9216 69.92L87.5592 70.852ZM98.1041 70.6239L98.5065 71.5393L98.5067 71.5393L98.1041 70.6239ZM105.399 63.0057L104.467 62.6429L104.467 62.643L105.399 63.0057ZM120.419 -1H10.2331V1H120.419V-1ZM131.654 10.2323C131.654 4.03772 126.614 -1 120.419 -1V1C125.51 1 129.654 5.14274 129.654 10.2323H131.654ZM131.654 89.7677V10.2323H129.654V89.7677H131.654ZM120.419 101C126.614 101 131.654 95.9623 131.654 89.7677H129.654C129.654 94.8572 125.51 99 120.419 99V101ZM10.2331 101H120.419V99H10.2331V101ZM-0.999234 89.7677C-0.999234 95.9621 4.03871 101 10.2331 101V99C5.14328 99 1.00077 94.8575 1.00077 89.7677H-0.999234ZM-0.999234 23.2714V89.7677H1.00077V23.2714H-0.999234ZM-0.997496 23.3277C-0.997311 23.3305 -0.997768 23.3239 -0.998159 23.3159C-0.998596 23.3069 -0.999234 23.2912 -0.999234 23.2714H1.00077C1.00077 23.2486 1.00003 23.23 0.999451 23.2181C0.998916 23.2072 0.998268 23.1976 0.998261 23.1975L-0.997496 23.3277ZM-1 23.2538C-1 23.2765 -0.999265 23.2952 -0.998687 23.307C-0.998152 23.318 -0.997506 23.3275 -0.997499 23.3277L0.998264 23.1975C0.99808 23.1947 0.998535 23.2013 0.998926 23.2093C0.999361 23.2182 1 23.234 1 23.2538H-1ZM-0.997498 23.1799C-0.997505 23.18 -0.998152 23.1896 -0.998687 23.2005C-0.999265 23.2124 -1 23.231 -1 23.2538H1C1 23.2736 0.999361 23.2893 0.998926 23.2982C0.998535 23.3062 0.998079 23.3129 0.998264 23.31L-0.997498 23.1799ZM-0.999234 23.2362C-0.999234 23.2164 -0.998595 23.2006 -0.99816 23.1917C-0.997769 23.1837 -0.997313 23.1771 -0.997499 23.1799L0.998264 23.31C0.99827 23.3099 0.998917 23.3004 0.999452 23.2894C1.00003 23.2776 1.00077 23.2589 1.00077 23.2362H-0.999234ZM-0.999234 10.2323V23.2362H1.00077V10.2323H-0.999234ZM10.2331 -1C4.03871 -1 -0.999234 4.03794 -0.999234 10.2323H1.00077C1.00077 5.14251 5.14328 1 10.2331 1V-1ZM125.773 89.7676C125.773 92.7172 123.37 95.1192 120.419 95.1192V97.1192C124.474 97.1192 127.773 93.8225 127.773 89.7678L125.773 89.7676ZM125.773 25.1942V89.7677H127.773V25.1942H125.773ZM24.6889 26.1942H126.773V24.1942H24.6889V26.1942ZM21.7485 23.2538C21.7485 24.8776 23.0651 26.1942 24.6889 26.1942V24.1942C24.1697 24.1942 23.7485 23.773 23.7485 23.2538H21.7485ZM24.6889 20.3134C23.0651 20.3134 21.7485 21.63 21.7485 23.2538H23.7485C23.7485 22.7346 24.1697 22.3134 24.6889 22.3134V20.3134ZM126.773 20.3134H24.6889V22.3134H126.773V20.3134ZM125.773 10.2323V21.3134H127.773V10.2323H125.773ZM120.419 4.88082C123.37 4.88082 125.773 7.28284 125.773 10.2323H127.773C127.773 6.17754 124.474 2.88082 120.419 2.88082V4.88082ZM10.2331 4.88082H120.419V2.88082H10.2331V4.88082ZM4.88159 10.2323C4.88159 7.28225 7.28322 4.88082 10.2331 4.88082V2.88082C6.1787 2.88082 2.88159 6.17763 2.88159 10.2323H4.88159ZM4.88159 21.3136V10.2323H2.88159V21.3136H4.88159ZM17.723 20.3136H3.88159V22.3136H17.723V20.3136ZM20.6634 23.254C20.6634 21.6302 19.3468 20.3136 17.723 20.3136V22.3136C18.2422 22.3136 18.6634 22.7348 18.6634 23.254H20.6634ZM17.723 26.1945C19.3468 26.1945 20.6634 24.8778 20.6634 23.254H18.6634C18.6634 23.7733 18.2422 24.1945 17.723 24.1945V26.1945ZM3.88159 26.1945H17.723V24.1945H3.88159V26.1945ZM4.88159 89.7677V25.1945H2.88159V89.7677H4.88159ZM10.2331 95.1192C7.28301 95.1192 4.88159 92.7176 4.88159 89.7677H2.88159C2.88159 93.8221 6.17839 97.1192 10.2331 97.1192V95.1192ZM120.419 95.1192H10.2331V97.1192H120.419V95.1192ZM15.1507 5.17676C11.1736 5.17676 7.93951 8.41082 7.93951 12.3879H9.93951C9.93951 9.51538 12.2781 7.17676 15.1507 7.17676V5.17676ZM22.3618 12.3879C22.3618 8.41082 19.1278 5.17676 15.1507 5.17676V7.17676C18.0232 7.17676 20.3618 9.51538 20.3618 12.3879H22.3618ZM15.1507 19.5991C19.1278 19.5991 22.3618 16.365 22.3618 12.3879H20.3618C20.3618 15.2604 18.0232 17.5991 15.1507 17.5991V19.5991ZM7.93951 12.3879C7.93951 16.365 11.1736 19.5991 15.1507 19.5991V17.5991C12.2781 17.5991 9.93951 15.2604 9.93951 12.3879H7.93951ZM15.1507 13.7185C14.4179 13.7185 13.8203 13.1208 13.8203 12.3882H11.8203C11.8203 14.2252 13.3132 15.7185 15.1507 15.7185V13.7185ZM16.481 12.3882C16.481 13.1207 15.8832 13.7185 15.1507 13.7185V15.7185C16.9878 15.7185 18.481 14.2253 18.481 12.3882H16.481ZM15.1507 11.0578C15.8832 11.0578 16.481 11.6556 16.481 12.3882H18.481C18.481 10.551 16.9878 9.05783 15.1507 9.05783V11.0578ZM13.8203 12.3882C13.8203 11.6556 14.4181 11.0578 15.1507 11.0578V9.05783C13.3135 9.05783 11.8203 10.551 11.8203 12.3882H13.8203ZM29.5287 5.17676C25.5518 5.17676 22.3175 8.41079 22.3175 12.3879H24.3175C24.3175 9.51541 26.6564 7.17676 29.5287 7.17676V5.17676ZM36.7398 12.3879C36.7398 8.41081 33.5057 5.17676 29.5287 5.17676V7.17676C32.4012 7.17676 34.7398 9.51538 34.7398 12.3879H36.7398ZM29.5287 19.5991C33.5057 19.5991 36.7398 16.365 36.7398 12.3879H34.7398C34.7398 15.2604 32.4012 17.5991 29.5287 17.5991V19.5991ZM22.3175 12.3879C22.3175 16.3647 25.5513 19.5991 29.5287 19.5991V17.5991C26.6559 17.5991 24.3175 15.2602 24.3175 12.3879H22.3175ZM29.5287 13.7177C28.7961 13.7177 28.1983 13.12 28.1983 12.3874H26.1983C26.1983 14.2245 27.6915 15.7177 29.5287 15.7177V13.7177ZM30.859 12.3874C30.859 13.12 30.2612 13.7177 29.5287 13.7177V15.7177C31.3658 15.7177 32.859 14.2245 32.859 12.3874H30.859ZM29.5287 11.0571C30.2614 11.0571 30.859 11.6548 30.859 12.3874H32.859C32.859 10.5503 31.3661 9.05707 29.5287 9.05707V11.0571ZM28.1983 12.3874C28.1983 11.6548 28.7959 11.0571 29.5287 11.0571V9.05707C27.6912 9.05707 26.1983 10.5503 26.1983 12.3874H28.1983ZM38.6956 12.3879C38.6956 9.51538 41.0342 7.17676 43.9067 7.17676V5.17676C39.9296 5.17676 36.6956 8.41082 36.6956 12.3879H38.6956ZM43.9067 17.5991C41.0342 17.5991 38.6956 15.2602 38.6956 12.3879H36.6956C36.6956 16.3647 39.9296 19.5991 43.9067 19.5991V17.5991ZM49.1179 12.3879C49.1179 15.2604 46.7792 17.5991 43.9067 17.5991V19.5991C47.8838 19.5991 51.1179 16.365 51.1179 12.3879H49.1179ZM43.9067 7.17676C46.7792 7.17676 49.1179 9.51538 49.1179 12.3879H51.1179C51.1179 8.41082 47.8838 5.17676 43.9067 5.17676V7.17676ZM40.5764 12.3874C40.5764 14.2245 42.0693 15.7177 43.9067 15.7177V13.7177C43.174 13.7177 42.5764 13.12 42.5764 12.3874H40.5764ZM43.9067 9.05707C42.0696 9.05707 40.5764 10.5503 40.5764 12.3874H42.5764C42.5764 11.6548 43.1741 11.0571 43.9067 11.0571V9.05707ZM47.237 12.3874C47.237 10.5503 45.7438 9.05707 43.9067 9.05707V11.0571C44.6393 11.0571 45.237 11.6548 45.237 12.3874H47.237ZM43.9067 15.7177C45.7438 15.7177 47.237 14.2245 47.237 12.3874H45.237C45.237 13.12 44.6393 13.7177 43.9067 13.7177V15.7177ZM68.6168 83.0553L61.83 81.8324L61.4753 83.8008L68.2622 85.0236L68.6168 83.0553ZM71.0357 85.9498C71.0361 84.5264 70.0171 83.3074 68.6167 83.0553L68.2623 85.0236C68.7099 85.1042 69.0358 85.4939 69.0357 85.9492L71.0357 85.9498ZM71.0357 92.9218V85.9495H69.0357V92.9218H71.0357ZM68.0953 95.8622C69.7194 95.8622 71.0357 94.5455 71.0357 92.9218H69.0357C69.0357 93.4411 68.6147 93.8622 68.0953 93.8622V95.8622ZM65.1549 92.9218C65.1549 94.5455 66.4711 95.8622 68.0953 95.8622V93.8622C67.5759 93.8622 67.1549 93.4411 67.1549 92.9218H65.1549ZM65.1549 87.5712V92.9218H67.1549V87.5712H65.1549ZM59.7192 87.4279L65.9776 88.5553L66.3321 86.587L60.0738 85.4596L59.7192 87.4279ZM57.4779 85.5404C57.8363 86.5235 58.6896 87.2419 59.7187 87.4278L60.0743 85.4597C59.7448 85.4002 59.4717 85.1702 59.357 84.8555L57.4779 85.5404ZM54.0814 79.6718C55.5554 81.4243 56.6976 83.3981 57.4778 85.5402L59.3571 84.8557C58.4965 82.4929 57.2359 80.3153 55.612 78.3845L54.0814 79.6718ZM53.5652 76.7825C53.2099 77.7687 53.4062 78.8698 54.0817 79.6722L55.6117 78.3841C55.3961 78.128 55.3331 77.7761 55.4468 77.4604L53.5652 76.7825ZM55.7241 70.7908L53.5652 76.7825L55.4468 77.4604L57.6057 71.4687L55.7241 70.7908ZM48.1741 67.3831L56.1649 71.9958L57.1648 70.2637L49.174 65.651L48.1741 67.3831ZM45.3313 72.0234L49.438 67.1624L47.9102 65.8717L43.8035 70.7327L45.3313 72.0234ZM42.5768 73.0219C43.608 73.2029 44.6559 72.8221 45.331 72.0237L43.8038 70.7323C43.5873 70.9884 43.2521 71.1098 42.9226 71.052L42.5768 73.0219ZM35.7845 73.0219C38.0396 72.627 40.3324 72.6278 42.5768 73.0218L42.9227 71.052C40.4493 70.6177 37.9227 70.617 35.4395 71.0519L35.7845 73.0219ZM33.0312 72.023C33.706 72.8221 34.7536 73.2021 35.7841 73.022L35.4399 71.0518C35.1094 71.1096 34.7748 70.9879 34.5591 70.7325L33.0312 72.023ZM28.9246 67.1621L33.0312 72.0231L34.559 70.7324L30.4524 65.8715L28.9246 67.1621ZM22.1997 71.9955L30.1885 67.3828L29.1884 65.6508L21.1997 70.2635L22.1997 71.9955ZM24.7972 76.7828L22.6406 70.7908L20.7588 71.4681L22.9154 77.4601L24.7972 76.7828ZM24.2808 79.6715C24.9556 78.8695 25.1525 77.7687 24.797 76.7824L22.9155 77.4605C23.029 77.7756 22.9662 78.1273 22.7504 78.3838L24.2808 79.6715ZM20.8878 85.5373C21.6649 83.398 22.8059 81.4248 24.2809 79.6714L22.7503 78.3839C21.1253 80.3158 19.8656 82.4934 19.008 84.8545L20.8878 85.5373ZM18.6457 87.4274C19.6757 87.2415 20.5304 86.5221 20.8879 85.5371L19.0079 84.8548C18.8938 85.1691 18.6206 85.3996 18.2905 85.4592L18.6457 87.4274ZM12.3844 88.5551L18.6453 87.4274L18.2908 85.4591L12.0299 86.5867L12.3844 88.5551ZM13.2072 92.9213V87.5709H11.2072V92.9213H13.2072ZM10.2668 95.8617C11.8906 95.8617 13.2072 94.5451 13.2072 92.9213H11.2072C11.2072 93.4406 10.786 93.8617 10.2668 93.8617V95.8617ZM7.32635 92.9213C7.32635 94.5451 8.64296 95.8617 10.2668 95.8617V93.8617C9.74754 93.8617 9.32635 93.4406 9.32635 92.9213H7.32635ZM7.32635 85.949V92.9213H9.32635V85.949H7.32635ZM9.7451 83.0553C8.34463 83.3078 7.32635 84.5263 7.32635 85.949H9.32635C9.32635 85.494 9.65187 85.1043 10.0999 85.0236L9.7451 83.0553ZM16.5339 81.8324L9.74525 83.0553L10.0998 85.0236L16.8884 83.8008L16.5339 81.8324ZM19.0426 76.805C17.7159 78.5381 16.6253 80.4238 15.7881 82.4318L17.6342 83.2014C18.4047 81.3531 19.4086 79.6172 20.6307 78.0207L19.0426 76.805ZM16.5577 71.2561L18.8957 77.7515L20.7775 77.0742L18.4395 70.5788L16.5577 71.2561ZM17.8544 67.7139C16.6215 68.4254 16.0759 69.9174 16.5577 71.2561L18.4396 70.5788C18.2854 70.1505 18.46 69.6735 18.8542 69.446L17.8544 67.7139ZM28.6536 61.479L17.8543 67.7139L18.8543 69.446L29.6536 63.2111L28.6536 61.479ZM32.3699 62.128C31.4518 61.041 29.8861 60.7671 28.6534 61.4792L29.6538 63.211C30.0477 62.9835 30.5484 63.0709 30.8419 63.4185L32.3699 62.128ZM36.8235 67.3997L32.3698 62.1279L30.842 63.4186L35.2957 68.6904L36.8235 67.3997ZM42.4306 67.053C40.2709 66.7755 38.0973 66.7749 35.9321 67.0532L36.1871 69.0369C38.1829 68.7804 40.1851 68.7809 42.1757 69.0367L42.4306 67.053ZM45.9927 62.1279L41.5393 67.3995L43.0671 68.6902L47.5205 63.4186L45.9927 62.1279ZM49.7084 61.4785C48.4763 60.7681 46.9114 61.0402 45.9927 62.128L47.5206 63.4185C47.814 63.0711 48.3145 62.9834 48.7095 63.2111L49.7084 61.4785ZM60.5102 67.7139L49.7089 61.4788L48.709 63.2109L59.5104 69.446L60.5102 67.7139ZM61.8068 71.257C62.2889 69.918 61.7434 68.4258 60.5103 67.7139L59.5103 69.446C59.9048 69.6737 60.0794 70.151 59.9251 70.5794L61.8068 71.257ZM59.4667 77.7523L61.8067 71.2571L59.9251 70.5792L57.5851 77.0744L59.4667 77.7523ZM62.5754 82.4313C61.7366 80.4225 60.6458 78.5375 59.32 76.8055L57.7319 78.0212C58.9533 79.6168 59.9575 81.3523 60.7299 83.2019L62.5754 82.4313ZM32.1214 81.53C34.2139 80.1396 36.6541 79.4043 39.1816 79.4043V77.4043C36.2624 77.4043 33.4367 78.2547 31.0145 79.8642L32.1214 81.53ZM26.4022 92.1837C26.4022 87.8901 28.5389 83.9084 32.1211 81.5302L31.0148 79.864C26.8752 82.6124 24.4022 87.2192 24.4022 92.1837H26.4022ZM26.4275 92.9818C26.411 92.7186 26.4022 92.4497 26.4022 92.1837H24.4022C24.4022 92.4928 24.4124 92.8037 24.4315 93.1075L26.4275 92.9818ZM27.4266 93.8594C26.9064 93.8923 26.4606 93.4991 26.4275 92.9808L24.4316 93.1085C24.5352 94.7291 25.9314 95.9579 27.5526 95.8555L27.4266 93.8594ZM28.3045 92.8612C28.3376 93.3791 27.9443 93.8263 27.4258 93.8595L27.5534 95.8554C29.1739 95.7518 30.4041 94.3541 30.3004 92.7335L28.3045 92.8612ZM28.283 92.1837C28.283 92.4095 28.29 92.6374 28.3045 92.8617L30.3004 92.733C30.2888 92.5536 30.283 92.3687 30.283 92.1837H28.283ZM33.1619 83.0967C30.108 85.1246 28.283 88.5224 28.283 92.1837H30.283C30.283 89.1938 31.7714 86.4208 34.2682 84.7628L33.1619 83.0967ZM39.1816 81.2851C37.0294 81.2851 34.9462 81.911 33.1616 83.0969L34.2685 84.7626C35.7227 83.7963 37.4203 83.2851 39.1816 83.2851V81.2851ZM50.0801 92.1837C50.0801 86.1733 45.192 81.2851 39.1816 81.2851V83.2851C44.0874 83.2851 48.0801 87.2778 48.0801 92.1837H50.0801ZM50.0586 92.8621C50.0731 92.6387 50.0801 92.4106 50.0801 92.1837H48.0801C48.0801 92.3701 48.0744 92.5549 48.0628 92.7326L50.0586 92.8621ZM50.9371 93.8595C50.419 93.8265 50.0256 93.3793 50.0587 92.8612L48.0628 92.7335C47.9591 94.3539 49.1891 95.7522 50.81 95.8554L50.9371 93.8595ZM50.9991 93.8615C50.9816 93.8615 50.9607 93.8609 50.9341 93.8593L50.813 95.8556C50.8706 95.8591 50.9329 95.8615 50.9991 95.8615V93.8615ZM51.9359 92.9809C51.9041 93.4785 51.49 93.8615 50.9991 93.8615V95.8615C52.5379 95.8615 53.8321 94.6661 53.9318 93.1088L51.9359 92.9809ZM51.9609 92.1839C51.9609 92.4525 51.9526 92.721 51.9359 92.9808L53.9318 93.109C53.9514 92.8044 53.9609 92.4931 53.9609 92.1839H51.9609ZM39.1816 79.4043C46.2274 79.4043 51.9609 85.1379 51.9609 92.1839H53.9609C53.9609 84.0333 47.3319 77.4043 39.1816 77.4043V79.4043ZM123.298 60.1714L117.415 56.5725L116.371 58.2786L122.254 61.8774L123.298 60.1714ZM124.504 63.7458C125.02 62.4194 124.512 60.9145 123.298 60.1715L122.254 61.8773C122.643 62.1152 122.805 62.5967 122.64 63.0208L124.504 63.7458ZM119.983 75.3679L124.504 63.7458L122.64 63.0208L118.119 74.6428L119.983 75.3679ZM116.679 77.1878C118.074 77.4595 119.467 76.695 119.983 75.3678L118.119 74.6429C117.955 75.0662 117.509 75.3118 117.062 75.2247L116.679 77.1878ZM109.911 75.8651L116.679 77.1877L117.062 75.2248L110.294 73.9022L109.911 75.8651ZM105.749 79.6419C107.615 78.5066 109.314 77.1442 110.823 75.5771L109.382 74.1901C107.993 75.6331 106.428 76.8875 104.71 77.9334L105.749 79.6419ZM106.054 85.7129L106.229 78.813L104.23 78.7623L104.055 85.6622L106.054 85.7129ZM103.562 88.5446C104.968 88.3281 106.018 87.1356 106.054 85.7128L104.055 85.6623C104.043 86.1171 103.708 86.4986 103.258 86.5679L103.562 88.5446ZM91.2362 90.4411L103.562 88.5446L103.258 86.5679L90.9321 88.4644L91.2362 90.4411ZM90.7876 90.475C90.9359 90.475 91.0839 90.4637 91.2309 90.4419L90.9374 88.4636C90.8848 88.4714 90.8348 88.475 90.7876 88.475V90.475ZM88.0078 88.4891C88.4205 89.6913 89.5486 90.475 90.7876 90.475V88.475C90.392 88.475 90.0313 88.2237 89.8994 87.8397L88.0078 88.4891ZM85.7678 81.9622L88.0078 88.489L89.8995 87.8397L87.6595 81.3129L85.7678 81.9622ZM83.3699 81.6239C84.3796 82.0165 85.4188 82.3459 86.4722 82.608L86.955 80.6671C85.9833 80.4254 85.025 80.1215 84.0947 79.7598L83.3699 81.6239ZM80.4164 80.2522C81.3703 80.7713 82.3596 81.2307 83.3697 81.6238L84.095 79.7599C83.1641 79.3976 82.2518 78.9741 81.3725 78.4955L80.4164 80.2522ZM75.3107 83.5497L81.3723 80.2523L80.4166 78.4954L74.355 81.7929L75.3107 83.5497ZM71.612 82.8068C72.5027 83.9172 74.061 84.2295 75.3106 83.5498L74.355 81.7928C73.9552 82.0103 73.4567 81.9102 73.1721 81.5554L71.612 82.8068ZM63.8075 73.0798L71.612 82.8069L73.172 81.5553L65.3675 71.8282L63.8075 73.0798ZM63.8839 69.3084C62.9493 70.3815 62.9172 71.9699 63.8074 73.0797L65.3676 71.8283C65.0829 71.4734 65.0931 70.9653 65.3921 70.622L63.8839 69.3084ZM68.4178 64.1039L63.884 69.3084L65.392 70.6221L69.9259 65.4176L68.4178 64.1039ZM67.2183 58.6141C67.2709 60.7889 67.6037 62.9413 68.2113 65.039L70.1324 64.4825C69.5723 62.5494 69.2661 60.5678 69.2177 58.5658L67.2183 58.6141ZM61.8134 55.8444L67.6962 59.443L68.7398 57.7369L62.8571 54.1383L61.8134 55.8444ZM60.6073 52.2702C60.0916 53.5964 60.5992 55.1019 61.8136 55.8445L62.8569 54.1382C62.4688 53.9009 62.3063 53.4196 62.4713 52.9952L60.6073 52.2702ZM65.1284 40.6481L60.6074 52.2702L62.4713 52.9952L66.9924 41.3732L65.1284 40.6481ZM68.432 38.8282C67.0368 38.5566 65.6446 39.3211 65.1284 40.6482L66.9924 41.3731C67.1571 40.9497 67.6021 40.7042 68.0499 40.7913L68.432 38.8282ZM75.201 40.151L68.4327 38.8283L68.0492 40.7912L74.8174 42.1138L75.201 40.151ZM79.3618 36.3748C77.4976 37.5091 75.7979 38.8707 74.2886 40.439L75.7297 41.8258C77.1193 40.3819 78.6839 39.1284 80.4014 38.0834L79.3618 36.3748ZM79.057 30.3026L78.8819 37.2038L80.8813 37.2545L81.0564 30.3533L79.057 30.3026ZM81.5491 27.4711C80.143 27.6877 79.093 28.88 79.057 30.3027L81.0564 30.3532C81.0678 29.8987 81.4035 29.5171 81.8535 29.4479L81.5491 27.4711ZM93.8754 25.5746L81.5493 27.4711L81.8534 29.4479L94.1795 27.5513L93.8754 25.5746ZM97.1039 27.5268C96.6424 26.181 95.2834 25.3569 93.8746 25.5747L94.1802 27.5512C94.6297 27.4817 95.0641 27.7442 95.212 28.1755L97.1039 27.5268ZM99.3433 34.0545L97.1038 27.5266L95.2121 28.1756L97.4515 34.7035L99.3433 34.0545ZM101.742 34.3932C100.732 34.0004 99.6926 33.6706 98.6387 33.4085L98.1561 35.3494C99.1279 35.5911 100.086 35.8952 101.018 36.2572L101.742 34.3932ZM104.695 35.7644C103.741 35.2452 102.752 34.7861 101.743 34.3933L101.017 36.2571C101.948 36.6191 102.859 37.0424 103.738 37.521L104.695 35.7644ZM109.801 32.4658L103.738 35.7643L104.694 37.5211L110.756 34.2226L109.801 32.4658ZM113.5 33.209C112.609 32.0977 111.05 31.7862 109.801 32.4658L110.756 34.2227C111.156 34.005 111.655 34.1054 111.939 34.4598L113.5 33.209ZM121.304 42.9357L113.499 33.2086L111.939 34.4602L119.744 44.1873L121.304 42.9357ZM121.228 46.7069C122.162 45.6337 122.194 44.0456 121.304 42.9356L119.744 44.1873C120.029 44.5421 120.019 45.05 119.719 45.3936L121.228 46.7069ZM116.693 51.9126L121.228 46.7071L119.719 45.3934L115.185 50.5989L116.693 51.9126ZM117.893 57.4013C117.84 55.2256 117.507 53.0731 116.9 50.9772L114.979 51.5343C115.539 53.4651 115.845 55.4467 115.894 57.4498L117.893 57.4013ZM116.214 71.1049L109.972 69.8854L109.589 71.8482L115.83 73.0678L116.214 71.1049ZM118.435 63.1262L115.09 71.7238L116.954 72.4488L120.299 63.8512L118.435 63.1262ZM113.42 61.0228L118.845 64.3417L119.888 62.6357L114.463 59.3168L113.42 61.0228ZM112.014 58.449C111.991 59.4963 112.526 60.4766 113.42 61.0229L114.463 59.3167C114.177 59.1419 114.006 58.8284 114.014 58.4941L112.014 58.449ZM110.978 51.749C111.716 53.918 112.065 56.1716 112.014 58.4494L114.014 58.4937C114.069 55.9807 113.685 53.494 112.871 51.1044L110.978 51.749ZM111.545 48.87C110.856 49.6601 110.64 50.7571 110.978 51.7489L112.871 51.1045C112.763 50.7873 112.832 50.4363 113.052 50.1838L111.545 48.87ZM115.727 44.0683L111.544 48.8701L113.053 50.1837L117.235 45.3819L115.727 44.0683ZM109.928 38.1553L115.701 45.3509L117.261 44.0993L111.488 36.9036L109.928 38.1553ZM105.597 41.4491L111.186 38.4078L110.23 36.6511L104.641 39.6924L105.597 41.4491ZM102.668 41.3815C103.563 41.9231 104.678 41.9492 105.597 41.449L104.641 39.6925C104.347 39.8521 103.991 39.8441 103.704 39.6706L102.668 41.3815ZM99.6109 39.8749C100.669 40.2864 101.697 40.7933 102.668 41.3814L103.704 39.6708C102.635 39.0227 101.502 38.4645 100.336 38.011L99.6109 39.8749ZM96.3379 38.9186C97.4506 39.1412 98.5522 39.4631 99.6109 39.8749L100.336 38.0109C99.1695 37.5572 97.9566 37.2028 96.7303 36.9574L96.3379 38.9186ZM94.1331 36.9894C94.4727 37.979 95.3125 38.7136 96.3381 38.9186L96.73 36.9574C96.4022 36.8919 96.1335 36.6569 96.0249 36.3404L94.1331 36.9894ZM92.0685 30.9709L94.1331 36.9894L96.0249 36.3404L93.9602 30.3219L92.0685 30.9709ZM84.0477 33.0375L93.1664 31.6348L92.8623 29.658L83.7436 31.0608L84.0477 33.0375ZM84.7335 38.4404L84.8953 32.0746L82.896 32.0238L82.7342 38.3895L84.7335 38.4404ZM83.2059 40.9451C84.1245 40.4422 84.7068 39.4883 84.7335 38.4404L82.7342 38.3895C82.7256 38.7247 82.5394 39.0299 82.2454 39.1909L83.2059 40.9451ZM77.9138 45.1843C79.4161 43.4709 81.1957 42.0451 83.2057 40.9453L82.2456 39.1908C80.0313 40.4024 78.0673 41.9755 76.41 43.8658L77.9138 45.1843ZM75.1386 46.1314C76.1665 46.3325 77.2235 45.9712 77.9137 45.1845L76.4101 43.8656C76.1892 44.1175 75.8509 44.2328 75.5228 44.1686L75.1386 46.1314ZM68.8974 44.9119L75.1389 46.1314L75.5225 44.1685L69.2809 42.949L68.8974 44.9119ZM66.6765 52.8909L70.0211 44.293L68.1572 43.5679L64.8125 52.1658L66.6765 52.8909ZM71.6915 54.9939L66.2663 51.6753L65.2227 53.3814L70.6479 56.7L71.6915 54.9939ZM73.0968 57.568C73.1204 56.5211 72.5851 55.5403 71.6913 54.9938L70.648 56.7002C70.9337 56.8748 71.1048 57.1883 71.0973 57.523L73.0968 57.568ZM74.1329 64.2701C73.394 62.0975 73.0458 59.8431 73.0968 57.5679L71.0973 57.5231C71.041 60.0341 71.4257 62.5215 72.2394 64.9141L74.1329 64.2701ZM73.5664 67.1481C74.2543 66.3582 74.4701 65.262 74.1329 64.2702L72.2393 64.914C72.3472 65.2313 72.2782 65.582 72.0581 65.8347L73.5664 67.1481ZM69.3841 71.9486L73.5663 67.1483L72.0583 65.8345L67.8761 70.6348L69.3841 71.9486ZM75.1836 77.8618L69.4101 70.6659L67.8501 71.9175L73.6236 79.1134L75.1836 77.8618ZM79.5142 74.5689L73.9257 77.6091L74.8815 79.366L80.47 76.3258L79.5142 74.5689ZM80.9192 74.2118C80.4367 74.2118 79.9534 74.3305 79.5151 74.5684L80.4691 76.3262C80.6101 76.2497 80.7647 76.2118 80.9192 76.2118V74.2118ZM82.4429 74.6373C81.9754 74.354 81.4474 74.2118 80.9192 74.2118V76.2118C81.0887 76.2118 81.2573 76.2574 81.4064 76.3477L82.4429 74.6373ZM85.5009 76.1439C84.4422 75.7321 83.4129 75.2249 82.4428 74.6372L81.4064 76.3478C82.4758 76.9956 83.6093 77.5541 84.7758 78.0079L85.5009 76.1439ZM88.7727 77.0997C87.6602 76.8773 86.5589 76.5555 85.5009 76.1439L84.7758 78.0079C85.9415 78.4614 87.1543 78.8158 88.3807 79.0609L88.7727 77.0997ZM90.9774 79.0286C90.6379 78.0391 89.7983 77.3047 88.7727 77.0997L88.3807 79.0609C88.7086 79.1264 88.9771 79.3612 89.0856 79.6777L90.9774 79.0286ZM93.0428 85.046L90.9773 79.0285L89.0857 79.6778L91.1511 85.6953L93.0428 85.046ZM101.063 82.9795L91.9449 84.3822L92.249 86.359L101.367 84.9563L101.063 82.9795ZM100.377 77.578L100.216 83.9425L102.215 83.9932L102.377 77.6287L100.377 77.578ZM101.904 75.0736C100.986 75.5769 100.404 76.5305 100.377 77.5779L102.377 77.6288C102.385 77.2937 102.571 76.9887 102.865 76.8275L101.904 75.0736ZM107.197 70.8331C105.697 72.5445 103.917 73.9713 101.904 75.0735L102.865 76.8276C105.081 75.6138 107.046 74.0401 108.701 72.1514L107.197 70.8331ZM109.973 69.8854C108.944 69.6842 107.887 70.046 107.197 70.833L108.701 72.1515C108.922 71.8994 109.26 71.784 109.589 71.8482L109.973 69.8854ZM102.714 61.9616C102.902 61.4776 103.448 61.2377 103.932 61.4259L104.656 59.5619C103.143 58.9733 101.439 59.7235 100.85 61.236L102.714 61.9616ZM96.9442 67.9871C99.6074 66.8157 101.659 64.6731 102.714 61.9614L100.85 61.2363C99.9875 63.4537 98.3166 65.1985 96.139 66.1564L96.9442 67.9871ZM88.6035 68.1681C91.3154 69.2229 94.2808 69.1585 96.9442 67.9871L96.139 66.1564C93.9611 67.1142 91.5462 67.1667 89.3285 66.3041L88.6035 68.1681ZM83.6484 64.2937C84.8822 66.0479 86.5967 67.3874 88.6035 68.168L89.3285 66.3041C87.6867 65.6654 86.29 64.573 85.2843 63.1431L83.6484 64.2937ZM82.398 54.0585C81.071 57.4703 81.5389 61.2984 83.6488 64.2942L85.284 63.1426C83.5594 60.6938 83.1781 57.5702 84.262 54.7836L82.398 54.0585ZM90.2377 47.359C86.6576 48.1411 83.7254 50.6461 82.398 54.0585L84.262 54.7836C85.3461 51.9966 87.7381 49.9522 90.6646 49.3129L90.2377 47.359ZM90.2769 47.3495C90.26 47.3539 90.2475 47.3569 90.2384 47.3589L90.6639 49.3131C90.7064 49.3038 90.7459 49.2941 90.7801 49.2852L90.2769 47.3495ZM96.507 47.8511C94.5277 47.0809 92.3908 46.9038 90.3227 47.3387L90.7343 49.2959C92.4204 48.9413 94.1623 49.0848 95.7816 49.715L96.507 47.8511ZM103.188 55.6071C102.385 52.0664 99.8871 49.1657 96.5068 47.851L95.7818 49.715C98.5417 50.7884 100.581 53.1557 101.238 56.0497L103.188 55.6071ZM104.314 56.3159C103.807 56.431 103.303 56.1136 103.189 55.6072L101.238 56.0496C101.597 57.6331 103.172 58.6259 104.756 58.2663L104.314 56.3159ZM105.022 55.1909C105.137 55.6972 104.82 56.2008 104.313 56.3159L104.756 58.2663C106.34 57.9067 107.333 56.3321 106.973 54.748L105.022 55.1909ZM97.1888 46.0978C101.152 47.6395 104.08 51.0376 105.022 55.1906L106.973 54.7482C105.884 49.9479 102.497 46.0167 97.9139 44.2339L97.1888 46.0978ZM89.8353 45.5196C92.2912 44.9823 94.8332 45.1813 97.1888 46.0978L97.9139 44.2339C95.1929 43.1752 92.25 42.944 89.4078 43.5658L89.8353 45.5196ZM89.7874 45.5312C89.807 45.526 89.8215 45.5225 89.8333 45.52L89.4098 43.5653C89.3604 43.5761 89.3151 43.5874 89.275 43.598L89.7874 45.5312ZM80.645 53.376C82.1911 49.4015 85.5904 46.4783 89.7512 45.5401L89.3112 43.5891C84.5024 44.6735 80.5687 48.0554 78.7811 52.6509L80.645 53.376ZM82.1102 65.3752C79.636 61.8621 79.0885 57.3774 80.645 53.376L78.7811 52.6509C76.9815 57.2773 77.6154 62.4665 80.4751 66.5268L82.1102 65.3752ZM87.9216 69.92C85.5654 69.0038 83.5572 67.4326 82.1106 65.3757L80.4747 66.5262C82.149 68.907 84.4748 70.7256 87.1968 71.784L87.9216 69.92ZM92.5597 70.7972C90.9957 70.7972 89.428 70.5062 87.9218 69.9201L87.1965 71.784C88.9327 72.4595 90.7462 72.7972 92.5597 72.7972V70.7972ZM97.7017 69.7084C96.0506 70.4342 94.3053 70.7972 92.5597 70.7972V72.7972C94.5842 72.7972 96.6034 72.3758 98.5065 71.5393L97.7017 69.7084ZM104.467 62.643C103.228 65.8267 100.828 68.3335 97.7015 69.7085L98.5067 71.5393C102.119 69.9506 104.9 67.046 106.331 63.3683L104.467 62.643ZM103.931 61.4258C104.416 61.6142 104.655 62.1592 104.467 62.6429L106.331 63.3684C106.92 61.855 106.17 60.1508 104.657 59.562L103.931 61.4258Z" fill="black" mask="url(#path-1-inside-1_571_294)"/>
</g>
<defs>
<linearGradient id="paint0_linear_571_294" x1="2.43361e-07" y1="100" x2="132.247" y2="97.8461" gradientUnits="userSpaceOnUse">
<stop stop-color="#D07BF1"/>
<stop offset="1" stop-color="#8A9EF6"/>
</linearGradient>
</defs>
</svg>
