<svg width="19" height="15" viewBox="0 0 19 15" fill="none" xmlns="http://www.w3.org/2000/svg">
<path d="M16.9194 1.06329C16.7837 1.02126 16.6396 1 16.487 1H2.46956C2.31695 1 2.17285 1.02126 2.03706 1.06329C1.43269 1.24534 1 1.80093 1 2.46959V12.5305C1 12.9371 1.16013 13.3018 1.42143 13.5663C1.4306 13.5799 1.44064 13.5928 1.45216 13.6044C1.52552 13.6704 1.60467 13.7286 1.68797 13.7789C1.89515 13.9077 2.13764 13.9864 2.39948 13.9983C2.42283 13.9994 2.44617 14 2.46952 14H16.4869C16.5103 14 16.5336 13.9994 16.557 13.9983C17.3433 13.9625 17.9565 13.3265 17.9565 12.5304V2.46959C17.9565 1.80093 17.5238 1.24534 16.9194 1.06329ZM11.1494 7.75082L17.2806 2.02839C17.3513 2.15805 17.3913 2.30807 17.3913 2.46956V12.5304C17.3913 12.7101 17.3418 12.8756 17.2555 13.0146L11.1494 7.75082ZM16.487 1.56523C16.5036 1.56523 16.5198 1.56569 16.5356 1.56649C16.5435 1.56688 16.5513 1.56761 16.5592 1.56821C16.5677 1.56884 16.5763 1.56937 16.5846 1.57026C16.5887 1.57069 16.5927 1.57129 16.5967 1.57175C16.6898 1.58298 16.7722 1.60891 16.8544 1.65004L10.6298 7.47044C10.593 7.48346 10.5572 7.50333 10.5239 7.5283L10.2978 7.72612C9.8174 8.17828 9.08264 8.17828 8.60219 7.72612L8.57162 7.69939L2.10217 1.65001C2.18437 1.60891 2.26674 1.58295 2.3598 1.57172C2.36384 1.57126 2.36782 1.57066 2.37189 1.57023C2.38024 1.56934 2.38885 1.56884 2.39739 1.56818C2.40524 1.56758 2.41302 1.56685 2.42094 1.56645C2.4368 1.56566 2.45296 1.5652 2.46959 1.5652H16.487V1.56523ZM1.682 12.9823C1.60759 12.8502 1.56523 12.6964 1.56523 12.5304V2.46959C1.56523 2.3081 1.60524 2.15808 1.67594 2.02842L7.77996 7.72552L1.682 12.9823ZM2.46956 13.4348C2.37788 13.4348 2.28621 13.4162 2.19451 13.3941C2.1746 13.388 2.1551 13.381 2.13586 13.3736L8.21905 8.13536L8.23481 8.15006C8.35125 8.24859 8.47339 8.33281 8.6003 8.40202C9.26797 8.78471 10.147 8.70085 10.7218 8.15006L10.7511 8.12271L16.8207 13.3736C16.8015 13.381 16.782 13.388 16.7621 13.3941C16.6704 13.4162 16.5787 13.4348 16.487 13.4348H2.46956V13.4348Z" fill="url(#paint0_linear_649_91)" stroke="url(#paint1_linear_649_91)" stroke-width="0.25"/>
<defs>
<linearGradient id="paint0_linear_649_91" x1="1" y1="14" x2="18.1634" y2="13.7209" gradientUnits="userSpaceOnUse">
<stop stop-color="#D07BF1"/>
<stop offset="1" stop-color="#8A9EF6"/>
</linearGradient>
<linearGradient id="paint1_linear_649_91" x1="1" y1="14" x2="18.1634" y2="13.7209" gradientUnits="userSpaceOnUse">
<stop stop-color="#D07BF1"/>
<stop offset="1" stop-color="#8A9EF6"/>
</linearGradient>
</defs>
</svg>
