<svg width="60" height="100" viewBox="0 0 60 100" fill="none" xmlns="http://www.w3.org/2000/svg">
<g opacity="0.5">
<mask id="path-1-inside-1_571_296" fill="white">
<path fill-rule="evenodd" clip-rule="evenodd" d="M51.5056 0H7.82189C3.50899 0 0 3.50899 0 7.82189V22.8784C0 23.6985 0.664844 24.3635 1.48516 24.3635C2.30547 24.3635 2.97032 23.6985 2.97032 22.8784V18.0661H56.3571V81.2886H2.97032V32.2182C2.97032 31.3981 2.30547 30.7331 1.48516 30.7331C0.664844 30.7331 0 31.3981 0 32.2182V92.1783C0 96.4912 3.50899 100 7.82189 100H51.5056C55.8185 100 59.3275 96.491 59.3275 92.1783V7.82189C59.3273 3.50899 55.8185 0 51.5056 0ZM56.3571 92.1785C56.3571 94.8535 54.181 97.0301 51.5056 97.0301H7.82189C5.14669 97.0301 2.97032 94.8537 2.97032 92.1785V84.259H56.3571V92.1785ZM56.3571 15.0957H2.97032V7.82189C2.97032 5.14689 5.14649 2.97032 7.82189 2.97032H51.5056C54.1808 2.97032 56.3571 5.14669 56.3571 7.82189V15.0957ZM43.2952 45.2813H46.9184C47.7387 45.2813 48.4036 45.9461 48.4036 46.767V52.5881C48.4036 53.4082 47.7387 54.0733 46.9184 54.0733H43.2952C42.8446 54.0733 42.6624 54.3959 42.6049 54.5346C42.5475 54.6733 42.4483 55.0303 42.7667 55.3489L45.3286 57.9108C45.9087 58.4909 45.9087 59.4309 45.3286 60.011L41.2124 64.1274C40.6323 64.7075 39.6921 64.7077 39.1122 64.1274L36.5503 61.5655C36.2319 61.2471 35.8745 61.346 35.736 61.4036C35.5973 61.461 35.2747 61.6432 35.2747 62.0938V65.7171C35.2747 66.5372 34.6098 67.2022 33.7895 67.2022H27.9682C27.1479 67.2022 26.483 66.5372 26.483 65.7171V62.0938C26.483 61.6432 26.1606 61.461 26.0217 61.4036C25.8834 61.3461 25.5256 61.2471 25.2077 61.5655L22.6455 64.1274C22.0657 64.7077 21.1254 64.7075 20.5453 64.1274L16.4291 60.011C16.1508 59.7323 15.9944 59.3547 15.9944 58.9608C15.9944 58.5668 16.1506 58.1889 16.4293 57.9106L18.9912 55.3487C19.3096 55.0301 19.2104 54.6731 19.153 54.5344C19.0955 54.3957 18.9133 54.0731 18.4627 54.0731H14.8395C14.0192 54.0731 13.3543 53.4081 13.3543 52.5879V46.7666C13.3543 45.9465 14.0192 45.2815 14.8395 45.2815H18.4627C18.9131 45.2815 19.0953 44.959 19.1533 44.8203C19.2108 44.6815 19.31 44.3244 18.9914 44.0059L16.4295 41.4442C16.151 41.1654 15.9945 40.7877 15.9945 40.3938C15.9945 39.9998 16.1508 39.6223 16.4293 39.3436L20.5455 35.2272C21.1256 34.6471 22.0658 34.6469 22.6457 35.2272L25.2077 37.7891C25.526 38.1074 25.8836 38.0086 26.0219 37.951C26.1606 37.8936 26.4832 37.7115 26.4832 37.2607V33.6375C26.4832 32.8174 27.1481 32.1523 27.9684 32.1523H33.7897C34.61 32.1523 35.2749 32.8174 35.2749 33.6375V37.2606C35.2749 37.7111 35.5973 37.8934 35.7362 37.9508C35.8747 38.0082 36.2323 38.107 36.5503 37.7889L39.1124 35.227C39.6923 34.6469 40.6325 34.6469 41.2126 35.227L45.3288 39.3434C45.9089 39.9233 45.9089 40.8635 45.3288 41.4436L42.7669 44.0055C42.4483 44.3242 42.5475 44.6811 42.6049 44.8199C42.6624 44.9586 42.8444 45.2813 43.2952 45.2813ZM43.2958 51.1024H45.4339V48.2512H43.2958C41.787 48.2512 40.4385 47.3504 39.8612 45.9561C39.2837 44.5619 39.5999 42.9719 40.6671 41.9047L42.1788 40.393L40.1628 38.377L38.6506 39.8889C37.5837 40.9557 35.9934 41.2721 34.5995 40.6947C33.2051 40.1174 32.3043 38.7693 32.3043 37.2602V35.1221H29.4534V37.2602C29.4534 38.7691 28.5526 40.1174 27.1582 40.6947C25.7641 41.2725 24.1741 40.9561 23.1069 39.8889L21.5949 38.377L19.5789 40.393L21.0908 41.9047C22.1578 42.9719 22.4741 44.5621 21.8965 45.9563C21.3192 47.3504 19.9711 48.2512 18.4621 48.2512H16.324V51.1022H18.4621C19.9709 51.1022 21.3192 52.003 21.8965 53.3971C22.4742 54.7913 22.158 56.3813 21.091 57.4485L19.5789 58.9604L21.5949 60.9764L23.1071 59.4645C24.1739 58.3977 25.7645 58.0811 27.1582 58.6586C28.5526 59.236 29.4534 60.584 29.4534 62.0932V64.2313H32.3043V62.0932C32.3043 60.5842 33.2051 59.236 34.5995 58.6586C35.994 58.0809 37.5838 58.3975 38.6508 59.4645L40.1628 60.9764L42.1788 58.9606L40.6669 57.4487C39.6003 56.3817 39.2839 54.7916 39.8612 53.3975C40.4385 52.0032 41.7866 51.1024 43.2958 51.1024ZM24.1301 49.6768C24.1301 45.9555 27.1579 42.9277 30.8792 42.9277C34.6007 42.9277 37.6284 45.9555 37.6282 49.6768C37.6282 53.3981 34.6007 56.4258 30.8792 56.4258C27.1579 56.4258 24.1301 53.3981 24.1301 49.6768ZM27.1003 49.6768C27.1003 51.7604 28.7956 53.4557 30.8792 53.4557C32.9628 53.4557 34.6581 51.7606 34.6581 49.677C34.6581 47.5934 32.9628 45.8981 30.8792 45.8981C28.7954 45.8981 27.1003 47.5932 27.1003 49.6768ZM20.6969 5.45508H38.9659C40.7081 5.45508 42.1256 6.87246 42.1256 8.61485V9.52833C42.1256 11.2707 40.7082 12.6881 38.9659 12.6881H20.6969C18.9545 12.6881 17.5371 11.2707 17.5371 9.52833V8.61485C17.5371 6.87246 18.9545 5.45508 20.6969 5.45508ZM38.9659 9.71778C39.0668 9.71778 39.1553 9.6293 39.1553 9.52833V8.61485C39.1553 8.51387 39.0668 8.4254 38.9659 8.4254H20.6969C20.5959 8.4254 20.5074 8.51387 20.5074 8.61485V9.52833C20.5074 9.6293 20.5959 9.71778 20.6969 9.71778H38.9659ZM10.5273 5.68457C8.65989 5.68457 7.14075 7.20371 7.14075 9.0711C7.14075 10.9385 8.65989 12.4576 10.5273 12.4576C12.3947 12.4576 13.9138 10.9385 13.9138 9.0711C13.914 7.20371 12.3947 5.68457 10.5273 5.68457ZM10.5273 9.48731C10.3015 9.48731 10.1111 9.29688 10.1111 9.0711C10.1111 8.84532 10.3015 8.65489 10.5273 8.65489C10.7531 8.65489 10.9435 8.84532 10.9435 9.0711C10.9437 9.29688 10.7531 9.48731 10.5273 9.48731ZM25.866 90.8252C25.866 88.4877 27.7675 86.5859 30.105 86.5859C32.4425 86.5859 34.3443 88.4877 34.3443 90.8252C34.3443 93.1627 32.4427 95.0645 30.105 95.0645C27.7677 95.0645 25.866 93.1627 25.866 90.8252ZM28.8363 90.8252C28.8363 91.5248 29.4054 92.0941 30.105 92.0941C30.8048 92.0941 31.374 91.5248 31.374 90.8252C31.374 90.1256 30.8046 89.5563 30.105 89.5563C29.4054 89.5563 28.8363 90.1256 28.8363 90.8252Z"/>
</mask>
<path fill-rule="evenodd" clip-rule="evenodd" d="M51.5056 0H7.82189C3.50899 0 0 3.50899 0 7.82189V22.8784C0 23.6985 0.664844 24.3635 1.48516 24.3635C2.30547 24.3635 2.97032 23.6985 2.97032 22.8784V18.0661H56.3571V81.2886H2.97032V32.2182C2.97032 31.3981 2.30547 30.7331 1.48516 30.7331C0.664844 30.7331 0 31.3981 0 32.2182V92.1783C0 96.4912 3.50899 100 7.82189 100H51.5056C55.8185 100 59.3275 96.491 59.3275 92.1783V7.82189C59.3273 3.50899 55.8185 0 51.5056 0ZM56.3571 92.1785C56.3571 94.8535 54.181 97.0301 51.5056 97.0301H7.82189C5.14669 97.0301 2.97032 94.8537 2.97032 92.1785V84.259H56.3571V92.1785ZM56.3571 15.0957H2.97032V7.82189C2.97032 5.14689 5.14649 2.97032 7.82189 2.97032H51.5056C54.1808 2.97032 56.3571 5.14669 56.3571 7.82189V15.0957ZM43.2952 45.2813H46.9184C47.7387 45.2813 48.4036 45.9461 48.4036 46.767V52.5881C48.4036 53.4082 47.7387 54.0733 46.9184 54.0733H43.2952C42.8446 54.0733 42.6624 54.3959 42.6049 54.5346C42.5475 54.6733 42.4483 55.0303 42.7667 55.3489L45.3286 57.9108C45.9087 58.4909 45.9087 59.4309 45.3286 60.011L41.2124 64.1274C40.6323 64.7075 39.6921 64.7077 39.1122 64.1274L36.5503 61.5655C36.2319 61.2471 35.8745 61.346 35.736 61.4036C35.5973 61.461 35.2747 61.6432 35.2747 62.0938V65.7171C35.2747 66.5372 34.6098 67.2022 33.7895 67.2022H27.9682C27.1479 67.2022 26.483 66.5372 26.483 65.7171V62.0938C26.483 61.6432 26.1606 61.461 26.0217 61.4036C25.8834 61.3461 25.5256 61.2471 25.2077 61.5655L22.6455 64.1274C22.0657 64.7077 21.1254 64.7075 20.5453 64.1274L16.4291 60.011C16.1508 59.7323 15.9944 59.3547 15.9944 58.9608C15.9944 58.5668 16.1506 58.1889 16.4293 57.9106L18.9912 55.3487C19.3096 55.0301 19.2104 54.6731 19.153 54.5344C19.0955 54.3957 18.9133 54.0731 18.4627 54.0731H14.8395C14.0192 54.0731 13.3543 53.4081 13.3543 52.5879V46.7666C13.3543 45.9465 14.0192 45.2815 14.8395 45.2815H18.4627C18.9131 45.2815 19.0953 44.959 19.1533 44.8203C19.2108 44.6815 19.31 44.3244 18.9914 44.0059L16.4295 41.4442C16.151 41.1654 15.9945 40.7877 15.9945 40.3938C15.9945 39.9998 16.1508 39.6223 16.4293 39.3436L20.5455 35.2272C21.1256 34.6471 22.0658 34.6469 22.6457 35.2272L25.2077 37.7891C25.526 38.1074 25.8836 38.0086 26.0219 37.951C26.1606 37.8936 26.4832 37.7115 26.4832 37.2607V33.6375C26.4832 32.8174 27.1481 32.1523 27.9684 32.1523H33.7897C34.61 32.1523 35.2749 32.8174 35.2749 33.6375V37.2606C35.2749 37.7111 35.5973 37.8934 35.7362 37.9508C35.8747 38.0082 36.2323 38.107 36.5503 37.7889L39.1124 35.227C39.6923 34.6469 40.6325 34.6469 41.2126 35.227L45.3288 39.3434C45.9089 39.9233 45.9089 40.8635 45.3288 41.4436L42.7669 44.0055C42.4483 44.3242 42.5475 44.6811 42.6049 44.8199C42.6624 44.9586 42.8444 45.2813 43.2952 45.2813ZM43.2958 51.1024H45.4339V48.2512H43.2958C41.787 48.2512 40.4385 47.3504 39.8612 45.9561C39.2837 44.5619 39.5999 42.9719 40.6671 41.9047L42.1788 40.393L40.1628 38.377L38.6506 39.8889C37.5837 40.9557 35.9934 41.2721 34.5995 40.6947C33.2051 40.1174 32.3043 38.7693 32.3043 37.2602V35.1221H29.4534V37.2602C29.4534 38.7691 28.5526 40.1174 27.1582 40.6947C25.7641 41.2725 24.1741 40.9561 23.1069 39.8889L21.5949 38.377L19.5789 40.393L21.0908 41.9047C22.1578 42.9719 22.4741 44.5621 21.8965 45.9563C21.3192 47.3504 19.9711 48.2512 18.4621 48.2512H16.324V51.1022H18.4621C19.9709 51.1022 21.3192 52.003 21.8965 53.3971C22.4742 54.7913 22.158 56.3813 21.091 57.4485L19.5789 58.9604L21.5949 60.9764L23.1071 59.4645C24.1739 58.3977 25.7645 58.0811 27.1582 58.6586C28.5526 59.236 29.4534 60.584 29.4534 62.0932V64.2313H32.3043V62.0932C32.3043 60.5842 33.2051 59.236 34.5995 58.6586C35.994 58.0809 37.5838 58.3975 38.6508 59.4645L40.1628 60.9764L42.1788 58.9606L40.6669 57.4487C39.6003 56.3817 39.2839 54.7916 39.8612 53.3975C40.4385 52.0032 41.7866 51.1024 43.2958 51.1024ZM24.1301 49.6768C24.1301 45.9555 27.1579 42.9277 30.8792 42.9277C34.6007 42.9277 37.6284 45.9555 37.6282 49.6768C37.6282 53.3981 34.6007 56.4258 30.8792 56.4258C27.1579 56.4258 24.1301 53.3981 24.1301 49.6768ZM27.1003 49.6768C27.1003 51.7604 28.7956 53.4557 30.8792 53.4557C32.9628 53.4557 34.6581 51.7606 34.6581 49.677C34.6581 47.5934 32.9628 45.8981 30.8792 45.8981C28.7954 45.8981 27.1003 47.5932 27.1003 49.6768ZM20.6969 5.45508H38.9659C40.7081 5.45508 42.1256 6.87246 42.1256 8.61485V9.52833C42.1256 11.2707 40.7082 12.6881 38.9659 12.6881H20.6969C18.9545 12.6881 17.5371 11.2707 17.5371 9.52833V8.61485C17.5371 6.87246 18.9545 5.45508 20.6969 5.45508ZM38.9659 9.71778C39.0668 9.71778 39.1553 9.6293 39.1553 9.52833V8.61485C39.1553 8.51387 39.0668 8.4254 38.9659 8.4254H20.6969C20.5959 8.4254 20.5074 8.51387 20.5074 8.61485V9.52833C20.5074 9.6293 20.5959 9.71778 20.6969 9.71778H38.9659ZM10.5273 5.68457C8.65989 5.68457 7.14075 7.20371 7.14075 9.0711C7.14075 10.9385 8.65989 12.4576 10.5273 12.4576C12.3947 12.4576 13.9138 10.9385 13.9138 9.0711C13.914 7.20371 12.3947 5.68457 10.5273 5.68457ZM10.5273 9.48731C10.3015 9.48731 10.1111 9.29688 10.1111 9.0711C10.1111 8.84532 10.3015 8.65489 10.5273 8.65489C10.7531 8.65489 10.9435 8.84532 10.9435 9.0711C10.9437 9.29688 10.7531 9.48731 10.5273 9.48731ZM25.866 90.8252C25.866 88.4877 27.7675 86.5859 30.105 86.5859C32.4425 86.5859 34.3443 88.4877 34.3443 90.8252C34.3443 93.1627 32.4427 95.0645 30.105 95.0645C27.7677 95.0645 25.866 93.1627 25.866 90.8252ZM28.8363 90.8252C28.8363 91.5248 29.4054 92.0941 30.105 92.0941C30.8048 92.0941 31.374 91.5248 31.374 90.8252C31.374 90.1256 30.8046 89.5563 30.105 89.5563C29.4054 89.5563 28.8363 90.1256 28.8363 90.8252Z" fill="white"/>
<path fill-rule="evenodd" clip-rule="evenodd" d="M51.5056 0H7.82189C3.50899 0 0 3.50899 0 7.82189V22.8784C0 23.6985 0.664844 24.3635 1.48516 24.3635C2.30547 24.3635 2.97032 23.6985 2.97032 22.8784V18.0661H56.3571V81.2886H2.97032V32.2182C2.97032 31.3981 2.30547 30.7331 1.48516 30.7331C0.664844 30.7331 0 31.3981 0 32.2182V92.1783C0 96.4912 3.50899 100 7.82189 100H51.5056C55.8185 100 59.3275 96.491 59.3275 92.1783V7.82189C59.3273 3.50899 55.8185 0 51.5056 0ZM56.3571 92.1785C56.3571 94.8535 54.181 97.0301 51.5056 97.0301H7.82189C5.14669 97.0301 2.97032 94.8537 2.97032 92.1785V84.259H56.3571V92.1785ZM56.3571 15.0957H2.97032V7.82189C2.97032 5.14689 5.14649 2.97032 7.82189 2.97032H51.5056C54.1808 2.97032 56.3571 5.14669 56.3571 7.82189V15.0957ZM43.2952 45.2813H46.9184C47.7387 45.2813 48.4036 45.9461 48.4036 46.767V52.5881C48.4036 53.4082 47.7387 54.0733 46.9184 54.0733H43.2952C42.8446 54.0733 42.6624 54.3959 42.6049 54.5346C42.5475 54.6733 42.4483 55.0303 42.7667 55.3489L45.3286 57.9108C45.9087 58.4909 45.9087 59.4309 45.3286 60.011L41.2124 64.1274C40.6323 64.7075 39.6921 64.7077 39.1122 64.1274L36.5503 61.5655C36.2319 61.2471 35.8745 61.346 35.736 61.4036C35.5973 61.461 35.2747 61.6432 35.2747 62.0938V65.7171C35.2747 66.5372 34.6098 67.2022 33.7895 67.2022H27.9682C27.1479 67.2022 26.483 66.5372 26.483 65.7171V62.0938C26.483 61.6432 26.1606 61.461 26.0217 61.4036C25.8834 61.3461 25.5256 61.2471 25.2077 61.5655L22.6455 64.1274C22.0657 64.7077 21.1254 64.7075 20.5453 64.1274L16.4291 60.011C16.1508 59.7323 15.9944 59.3547 15.9944 58.9608C15.9944 58.5668 16.1506 58.1889 16.4293 57.9106L18.9912 55.3487C19.3096 55.0301 19.2104 54.6731 19.153 54.5344C19.0955 54.3957 18.9133 54.0731 18.4627 54.0731H14.8395C14.0192 54.0731 13.3543 53.4081 13.3543 52.5879V46.7666C13.3543 45.9465 14.0192 45.2815 14.8395 45.2815H18.4627C18.9131 45.2815 19.0953 44.959 19.1533 44.8203C19.2108 44.6815 19.31 44.3244 18.9914 44.0059L16.4295 41.4442C16.151 41.1654 15.9945 40.7877 15.9945 40.3938C15.9945 39.9998 16.1508 39.6223 16.4293 39.3436L20.5455 35.2272C21.1256 34.6471 22.0658 34.6469 22.6457 35.2272L25.2077 37.7891C25.526 38.1074 25.8836 38.0086 26.0219 37.951C26.1606 37.8936 26.4832 37.7115 26.4832 37.2607V33.6375C26.4832 32.8174 27.1481 32.1523 27.9684 32.1523H33.7897C34.61 32.1523 35.2749 32.8174 35.2749 33.6375V37.2606C35.2749 37.7111 35.5973 37.8934 35.7362 37.9508C35.8747 38.0082 36.2323 38.107 36.5503 37.7889L39.1124 35.227C39.6923 34.6469 40.6325 34.6469 41.2126 35.227L45.3288 39.3434C45.9089 39.9233 45.9089 40.8635 45.3288 41.4436L42.7669 44.0055C42.4483 44.3242 42.5475 44.6811 42.6049 44.8199C42.6624 44.9586 42.8444 45.2813 43.2952 45.2813ZM43.2958 51.1024H45.4339V48.2512H43.2958C41.787 48.2512 40.4385 47.3504 39.8612 45.9561C39.2837 44.5619 39.5999 42.9719 40.6671 41.9047L42.1788 40.393L40.1628 38.377L38.6506 39.8889C37.5837 40.9557 35.9934 41.2721 34.5995 40.6947C33.2051 40.1174 32.3043 38.7693 32.3043 37.2602V35.1221H29.4534V37.2602C29.4534 38.7691 28.5526 40.1174 27.1582 40.6947C25.7641 41.2725 24.1741 40.9561 23.1069 39.8889L21.5949 38.377L19.5789 40.393L21.0908 41.9047C22.1578 42.9719 22.4741 44.5621 21.8965 45.9563C21.3192 47.3504 19.9711 48.2512 18.4621 48.2512H16.324V51.1022H18.4621C19.9709 51.1022 21.3192 52.003 21.8965 53.3971C22.4742 54.7913 22.158 56.3813 21.091 57.4485L19.5789 58.9604L21.5949 60.9764L23.1071 59.4645C24.1739 58.3977 25.7645 58.0811 27.1582 58.6586C28.5526 59.236 29.4534 60.584 29.4534 62.0932V64.2313H32.3043V62.0932C32.3043 60.5842 33.2051 59.236 34.5995 58.6586C35.994 58.0809 37.5838 58.3975 38.6508 59.4645L40.1628 60.9764L42.1788 58.9606L40.6669 57.4487C39.6003 56.3817 39.2839 54.7916 39.8612 53.3975C40.4385 52.0032 41.7866 51.1024 43.2958 51.1024ZM24.1301 49.6768C24.1301 45.9555 27.1579 42.9277 30.8792 42.9277C34.6007 42.9277 37.6284 45.9555 37.6282 49.6768C37.6282 53.3981 34.6007 56.4258 30.8792 56.4258C27.1579 56.4258 24.1301 53.3981 24.1301 49.6768ZM27.1003 49.6768C27.1003 51.7604 28.7956 53.4557 30.8792 53.4557C32.9628 53.4557 34.6581 51.7606 34.6581 49.677C34.6581 47.5934 32.9628 45.8981 30.8792 45.8981C28.7954 45.8981 27.1003 47.5932 27.1003 49.6768ZM20.6969 5.45508H38.9659C40.7081 5.45508 42.1256 6.87246 42.1256 8.61485V9.52833C42.1256 11.2707 40.7082 12.6881 38.9659 12.6881H20.6969C18.9545 12.6881 17.5371 11.2707 17.5371 9.52833V8.61485C17.5371 6.87246 18.9545 5.45508 20.6969 5.45508ZM38.9659 9.71778C39.0668 9.71778 39.1553 9.6293 39.1553 9.52833V8.61485C39.1553 8.51387 39.0668 8.4254 38.9659 8.4254H20.6969C20.5959 8.4254 20.5074 8.51387 20.5074 8.61485V9.52833C20.5074 9.6293 20.5959 9.71778 20.6969 9.71778H38.9659ZM10.5273 5.68457C8.65989 5.68457 7.14075 7.20371 7.14075 9.0711C7.14075 10.9385 8.65989 12.4576 10.5273 12.4576C12.3947 12.4576 13.9138 10.9385 13.9138 9.0711C13.914 7.20371 12.3947 5.68457 10.5273 5.68457ZM10.5273 9.48731C10.3015 9.48731 10.1111 9.29688 10.1111 9.0711C10.1111 8.84532 10.3015 8.65489 10.5273 8.65489C10.7531 8.65489 10.9435 8.84532 10.9435 9.0711C10.9437 9.29688 10.7531 9.48731 10.5273 9.48731ZM25.866 90.8252C25.866 88.4877 27.7675 86.5859 30.105 86.5859C32.4425 86.5859 34.3443 88.4877 34.3443 90.8252C34.3443 93.1627 32.4427 95.0645 30.105 95.0645C27.7677 95.0645 25.866 93.1627 25.866 90.8252ZM28.8363 90.8252C28.8363 91.5248 29.4054 92.0941 30.105 92.0941C30.8048 92.0941 31.374 91.5248 31.374 90.8252C31.374 90.1256 30.8046 89.5563 30.105 89.5563C29.4054 89.5563 28.8363 90.1256 28.8363 90.8252Z" fill="url(#paint0_linear_571_296)"/>
<path d="M2.97032 18.0661V17.5661H2.47032V18.0661H2.97032ZM56.3571 18.0661H56.8571V17.5661H56.3571V18.0661ZM56.3571 81.2886V81.7886H56.8571V81.2886H56.3571ZM2.97032 81.2886H2.47032V81.7886H2.97032V81.2886ZM59.3275 7.82189H59.8275V7.82187L59.3275 7.82189ZM2.97032 84.259V83.759H2.47032V84.259H2.97032ZM56.3571 84.259H56.8571V83.759H56.3571V84.259ZM2.97032 15.0957H2.47032V15.5957H2.97032V15.0957ZM56.3571 15.0957V15.5957H56.8571V15.0957H56.3571ZM42.6049 54.5346L42.143 54.3433V54.3433L42.6049 54.5346ZM42.7667 55.3489L42.413 55.7023L42.4131 55.7024L42.7667 55.3489ZM45.3286 60.011L44.975 59.6574L44.975 59.6574L45.3286 60.011ZM41.2124 64.1274L41.5659 64.481L41.5659 64.4809L41.2124 64.1274ZM39.1122 64.1274L39.4658 63.774L39.4657 63.7738L39.1122 64.1274ZM36.5503 61.5655L36.1967 61.919V61.919L36.5503 61.5655ZM35.736 61.4036L35.9273 61.8655L35.9281 61.8652L35.736 61.4036ZM26.0217 61.4036L25.83 61.8653L25.8307 61.8656L26.0217 61.4036ZM25.2077 61.5655L25.5612 61.9191L25.5614 61.9188L25.2077 61.5655ZM22.6455 64.1274L22.292 63.7738L22.2919 63.774L22.6455 64.1274ZM20.5453 64.1274L20.1918 64.4809L20.1918 64.481L20.5453 64.1274ZM16.4291 60.011L16.0753 60.3643L16.0756 60.3645L16.4291 60.011ZM16.4293 57.9106L16.7826 58.2644L16.7829 58.2641L16.4293 57.9106ZM18.9912 55.3487L19.3448 55.7022L19.3449 55.7021L18.9912 55.3487ZM19.153 54.5344L19.6149 54.3431L19.153 54.5344ZM19.1533 44.8203L19.6146 45.0133L19.6154 45.0114L19.1533 44.8203ZM18.9914 44.0059L19.345 43.6523L19.345 43.6523L18.9914 44.0059ZM16.4295 41.4442L16.0758 41.7976L16.076 41.7977L16.4295 41.4442ZM16.4293 39.3436L16.0758 38.99L16.0756 38.9901L16.4293 39.3436ZM20.5455 35.2272L20.192 34.8736L20.192 34.8736L20.5455 35.2272ZM22.6457 35.2272L22.2921 35.5806L22.2922 35.5807L22.6457 35.2272ZM25.2077 37.7891L24.8541 38.1426H24.8541L25.2077 37.7891ZM26.0219 37.951L25.8306 37.489L25.8296 37.4894L26.0219 37.951ZM35.7362 37.9508L35.9277 37.4889L35.9272 37.4887L35.7362 37.9508ZM36.5503 37.7889L36.1967 37.4353L36.1966 37.4354L36.5503 37.7889ZM39.1124 35.227L39.4659 35.5805L39.466 35.5805L39.1124 35.227ZM41.2126 35.227L41.5661 34.8734L41.5661 34.8734L41.2126 35.227ZM45.3288 39.3434L44.9752 39.6969L44.9753 39.697L45.3288 39.3434ZM45.3288 41.4436L44.9752 41.09L45.3288 41.4436ZM42.7669 44.0055L42.4133 43.6519L42.4132 43.652L42.7669 44.0055ZM42.6049 44.8199L42.1429 45.011L42.143 45.0112L42.6049 44.8199ZM45.4339 51.1024V51.6024H45.9339V51.1024H45.4339ZM45.4339 48.2512H45.9339V47.7512H45.4339V48.2512ZM39.8612 45.9561L40.3232 45.7648L40.3231 45.7647L39.8612 45.9561ZM42.1788 40.393L42.5323 40.7465L42.8859 40.393L42.5323 40.0394L42.1788 40.393ZM40.1628 38.377L40.5163 38.0234L40.1628 37.6699L39.8092 38.0234L40.1628 38.377ZM38.6506 39.8889L39.0042 40.2425L39.0042 40.2425L38.6506 39.8889ZM34.5995 40.6947L34.7908 40.2328L34.7907 40.2328L34.5995 40.6947ZM32.3043 35.1221H32.8043V34.6221H32.3043V35.1221ZM29.4534 35.1221V34.6221H28.9534V35.1221H29.4534ZM27.1582 40.6947L26.967 40.2328L26.9668 40.2328L27.1582 40.6947ZM23.1069 39.8889L22.7533 40.2424L23.1069 39.8889ZM21.5949 38.377L21.9485 38.0234L21.5949 37.6699L21.2414 38.0234L21.5949 38.377ZM19.5789 40.393L19.2254 40.0394L18.8718 40.393L19.2254 40.7466L19.5789 40.393ZM21.0908 41.9047L21.4444 41.5512L21.4444 41.5511L21.0908 41.9047ZM21.8965 45.9563L21.4346 45.7649L21.4346 45.765L21.8965 45.9563ZM16.324 48.2512V47.7512H15.824V48.2512H16.324ZM16.324 51.1022H15.824V51.6022H16.324V51.1022ZM21.8965 53.3971L21.4346 53.5884L21.4346 53.5885L21.8965 53.3971ZM21.091 57.4485L21.4446 57.8021L21.4446 57.802L21.091 57.4485ZM19.5789 58.9604L19.2254 58.6068L18.8718 58.9604L19.2254 59.314L19.5789 58.9604ZM21.5949 60.9764L21.2414 61.33L21.5949 61.6835L21.9485 61.33L21.5949 60.9764ZM23.1071 59.4645L23.4606 59.8181L23.4606 59.8181L23.1071 59.4645ZM27.1582 58.6586L26.9668 59.1206L26.967 59.1206L27.1582 58.6586ZM29.4534 64.2313H28.9534V64.7313H29.4534V64.2313ZM32.3043 64.2313V64.7313H32.8043V64.2313H32.3043ZM34.5995 58.6586L34.7907 59.1206L34.7908 59.1206L34.5995 58.6586ZM40.1628 60.9764L39.8092 61.33L40.1627 61.6835L40.5163 61.33L40.1628 60.9764ZM42.1788 58.9606L42.5323 59.3142L42.8859 58.9606L42.5323 58.607L42.1788 58.9606ZM40.6669 57.4487L40.3132 57.8022L40.3133 57.8022L40.6669 57.4487ZM39.8612 53.3975L40.3232 53.5888L40.3232 53.5888L39.8612 53.3975ZM37.6282 49.6768L37.1282 49.6767V49.6768H37.6282ZM13.9138 9.0711L13.4138 9.07105V9.0711H13.9138ZM10.9435 9.0711H10.4435V9.07153L10.9435 9.0711ZM7.82189 0.5H51.5056V-0.5H7.82189V0.5ZM0.5 7.82189C0.5 3.78513 3.78513 0.5 7.82189 0.5V-0.5C3.23285 -0.5 -0.5 3.23285 -0.5 7.82189H0.5ZM0.5 22.8784V7.82189H-0.5V22.8784H0.5ZM1.48516 23.8635C0.941029 23.8635 0.5 23.4224 0.5 22.8784H-0.5C-0.5 23.9746 0.38866 24.8635 1.48516 24.8635V23.8635ZM2.47032 22.8784C2.47032 23.4224 2.02929 23.8635 1.48516 23.8635V24.8635C2.58166 24.8635 3.47032 23.9746 3.47032 22.8784H2.47032ZM2.47032 18.0661V22.8784H3.47032V18.0661H2.47032ZM56.3571 17.5661H2.97032V18.5661H56.3571V17.5661ZM56.8571 81.2886V18.0661H55.8571V81.2886H56.8571ZM2.97032 81.7886H56.3571V80.7886H2.97032V81.7886ZM2.47032 32.2182V81.2886H3.47032V32.2182H2.47032ZM1.48516 31.2331C2.02929 31.2331 2.47032 31.6742 2.47032 32.2182H3.47032C3.47032 31.122 2.58166 30.2331 1.48516 30.2331V31.2331ZM0.5 32.2182C0.5 31.6742 0.94103 31.2331 1.48516 31.2331V30.2331C0.388659 30.2331 -0.5 31.122 -0.5 32.2182H0.5ZM0.5 92.1783V32.2182H-0.5V92.1783H0.5ZM7.82189 99.5C3.78512 99.5 0.5 96.215 0.5 92.1783H-0.5C-0.5 96.7674 3.23286 100.5 7.82189 100.5V99.5ZM51.5056 99.5H7.82189V100.5H51.5056V99.5ZM58.8275 92.1783C58.8275 96.2149 55.5423 99.5 51.5056 99.5V100.5C56.0946 100.5 59.8275 96.7672 59.8275 92.1783H58.8275ZM58.8275 7.82189V92.1783H59.8275V7.82189H58.8275ZM51.5056 0.5C55.5423 0.5 58.8273 3.78512 58.8275 7.82191L59.8275 7.82187C59.8273 3.23286 56.0946 -0.5 51.5056 -0.5V0.5ZM51.5056 97.5301C54.4571 97.5301 56.8571 95.1296 56.8571 92.1785H55.8571C55.8571 94.5774 53.9048 96.5301 51.5056 96.5301V97.5301ZM7.82189 97.5301H51.5056V96.5301H7.82189V97.5301ZM2.47032 92.1785C2.47032 95.1299 4.87055 97.5301 7.82189 97.5301V96.5301C5.42283 96.5301 3.47032 94.5776 3.47032 92.1785H2.47032ZM2.47032 84.259V92.1785H3.47032V84.259H2.47032ZM56.3571 83.759H2.97032V84.759H56.3571V83.759ZM56.8571 92.1785V84.259H55.8571V92.1785H56.8571ZM2.97032 15.5957H56.3571V14.5957H2.97032V15.5957ZM2.47032 7.82189V15.0957H3.47032V7.82189H2.47032ZM7.82189 2.47032C4.87033 2.47032 2.47032 4.87077 2.47032 7.82189H3.47032C3.47032 5.423 5.42266 3.47032 7.82189 3.47032V2.47032ZM51.5056 2.47032H7.82189V3.47032H51.5056V2.47032ZM56.8571 7.82189C56.8571 4.87055 54.4569 2.47032 51.5056 2.47032V3.47032C53.9046 3.47032 55.8571 5.42283 55.8571 7.82189H56.8571ZM56.8571 15.0957V7.82189H55.8571V15.0957H56.8571ZM46.9184 44.7813H43.2952V45.7813H46.9184V44.7813ZM48.9036 46.767C48.9036 45.6701 48.015 44.7813 46.9184 44.7813V45.7813C47.4625 45.7813 47.9036 46.2221 47.9036 46.767H48.9036ZM48.9036 52.5881V46.767H47.9036V52.5881H48.9036ZM46.9184 54.5733C48.0149 54.5733 48.9036 53.6843 48.9036 52.5881H47.9036C47.9036 53.1321 47.4626 53.5733 46.9184 53.5733V54.5733ZM43.2952 54.5733H46.9184V53.5733H43.2952V54.5733ZM43.0669 54.7259C43.0788 54.6971 43.1024 54.6548 43.1368 54.6238C43.1522 54.61 43.1694 54.5987 43.1904 54.5903C43.2109 54.5822 43.2437 54.5733 43.2952 54.5733V53.5733C42.5404 53.5733 42.2294 54.1346 42.143 54.3433L43.0669 54.7259ZM43.1203 54.9954C43.084 54.9591 43.0671 54.9296 43.0584 54.9093C43.0495 54.8885 43.0453 54.8683 43.0442 54.8476C43.0417 54.8013 43.055 54.7547 43.0669 54.7259L42.143 54.3433C42.0566 54.5519 41.8797 55.1687 42.413 55.7023L43.1203 54.9954ZM45.6821 57.5572L43.1202 54.9953L42.4131 55.7024L44.975 58.2643L45.6821 57.5572ZM45.6821 60.3645C46.4575 59.5892 46.4575 58.3326 45.6821 57.5572L44.975 58.2643C45.3599 58.6492 45.3599 59.2726 44.975 59.6574L45.6821 60.3645ZM41.5659 64.4809L45.6822 60.3645L44.975 59.6574L40.8588 63.7739L41.5659 64.4809ZM38.7585 64.4808C39.5338 65.2566 40.7907 65.2562 41.5659 64.481L40.8588 63.7738C40.4739 64.1588 39.8503 64.1587 39.4658 63.774L38.7585 64.4808ZM36.1967 61.919L38.7586 64.481L39.4657 63.7738L36.9038 61.2119L36.1967 61.919ZM35.9281 61.8652C35.9558 61.8537 36.0023 61.8403 36.0488 61.8428C36.0695 61.8439 36.0898 61.8481 36.1106 61.8571C36.1309 61.8658 36.1604 61.8828 36.1967 61.919L36.9038 61.2119C36.3706 60.6787 35.7536 60.8547 35.5439 60.9419L35.9281 61.8652ZM35.7747 62.0938C35.7747 62.0424 35.7836 62.0095 35.7917 61.989C35.8001 61.968 35.8114 61.9508 35.8252 61.9354C35.8562 61.901 35.8985 61.8774 35.9273 61.8655L35.5447 60.9416C35.336 61.028 34.7747 61.339 34.7747 62.0938H35.7747ZM35.7747 65.7171V62.0938H34.7747V65.7171H35.7747ZM33.7895 67.7022C34.886 67.7022 35.7747 66.8133 35.7747 65.7171H34.7747C34.7747 66.2611 34.3336 66.7022 33.7895 66.7022V67.7022ZM27.9682 67.7022H33.7895V66.7022H27.9682V67.7022ZM25.983 65.7171C25.983 66.8133 26.8717 67.7022 27.9682 67.7022V66.7022C27.4241 66.7022 26.983 66.2611 26.983 65.7171H25.983ZM25.983 62.0938V65.7171H26.983V62.0938H25.983ZM25.8307 61.8656C25.8593 61.8775 25.9016 61.901 25.9325 61.9354C25.9463 61.9508 25.9576 61.968 25.966 61.989C25.9741 62.0094 25.983 62.0423 25.983 62.0938H26.983C26.983 61.3391 26.4221 61.0281 26.2128 60.9415L25.8307 61.8656ZM25.5614 61.9188C25.5975 61.8827 25.6269 61.8658 25.6471 61.8571C25.6678 61.8482 25.6881 61.844 25.7089 61.8429C25.7554 61.8404 25.8021 61.8538 25.83 61.8653L26.2135 60.9418C26.0047 60.8551 25.3869 60.6785 24.8539 61.2122L25.5614 61.9188ZM22.9991 64.481L25.5612 61.9191L24.8541 61.2119L22.292 63.7738L22.9991 64.481ZM20.1918 64.481C20.967 65.2562 22.2239 65.2566 22.9992 64.4808L22.2919 63.774C21.9074 64.1587 21.2838 64.1588 20.8989 63.7739L20.1918 64.481ZM16.0756 60.3645L20.1918 64.4809L20.8989 63.7739L16.7827 59.6574L16.0756 60.3645ZM15.4944 58.9608C15.4944 59.4874 15.7035 59.992 16.0753 60.3643L16.7829 59.6577C16.5981 59.4726 16.4944 59.2221 16.4944 58.9608H15.4944ZM16.076 57.5568C15.7031 57.9292 15.4944 58.4345 15.4944 58.9608H16.4944C16.4944 58.6992 16.5981 58.4486 16.7826 58.2644L16.076 57.5568ZM18.6377 54.9951L16.0758 57.557L16.7829 58.2641L19.3448 55.7022L18.6377 54.9951ZM18.691 54.7257C18.7029 54.7545 18.7162 54.8011 18.7137 54.8475C18.7126 54.8681 18.7084 54.8883 18.6995 54.9091C18.6908 54.9294 18.6739 54.9589 18.6376 54.9952L19.3449 55.7021C19.8782 55.1685 19.7013 54.5518 19.6149 54.3431L18.691 54.7257ZM18.4627 54.5731C18.5142 54.5731 18.547 54.582 18.5675 54.5901C18.5885 54.5985 18.6057 54.6098 18.6211 54.6237C18.6555 54.6546 18.6791 54.6969 18.691 54.7257L19.6149 54.3431C19.5285 54.1344 19.2175 53.5731 18.4627 53.5731V54.5731ZM14.8395 54.5731H18.4627V53.5731H14.8395V54.5731ZM12.8543 52.5879C12.8543 53.6842 13.743 54.5731 14.8395 54.5731V53.5731C14.2953 53.5731 13.8543 53.132 13.8543 52.5879H12.8543ZM12.8543 46.7666V52.5879H13.8543V46.7666H12.8543ZM14.8395 44.7815C13.743 44.7815 12.8543 45.6704 12.8543 46.7666H13.8543C13.8543 46.2226 14.2953 45.7815 14.8395 45.7815V44.7815ZM18.4627 44.7815H14.8395V45.7815H18.4627V44.7815ZM18.6921 44.6274C18.6796 44.6573 18.6557 44.6998 18.6212 44.7308C18.6057 44.7447 18.5884 44.7561 18.5674 44.7644C18.547 44.7726 18.5141 44.7815 18.4627 44.7815V45.7815C19.2173 45.7815 19.5281 45.2202 19.6146 45.0133L18.6921 44.6274ZM18.6379 44.3594C18.6742 44.3958 18.6912 44.4253 18.6999 44.4456C18.7088 44.4663 18.713 44.4865 18.7141 44.5072C18.7166 44.5535 18.7033 44.6002 18.6913 44.6293L19.6154 45.0114C19.7016 44.8028 19.8787 44.186 19.345 43.6523L18.6379 44.3594ZM16.076 41.7977L18.6379 44.3594L19.345 43.6523L16.7831 41.0906L16.076 41.7977ZM15.4945 40.3938C15.4945 40.9203 15.7037 41.4252 16.0758 41.7976L16.7832 41.0907C16.5983 40.9057 16.4945 40.6551 16.4945 40.3938H15.4945ZM16.0756 38.9901C15.7034 39.3626 15.4945 39.8673 15.4945 40.3938H16.4945C16.4945 40.1323 16.5982 39.8819 16.783 39.697L16.0756 38.9901ZM20.192 34.8736L16.0758 38.99L16.7829 39.6971L20.8991 35.5807L20.192 34.8736ZM22.9994 34.8737C22.2241 34.0979 20.9672 34.0984 20.192 34.8736L20.8991 35.5807C21.284 35.1958 21.9076 35.1958 22.2921 35.5806L22.9994 34.8737ZM25.5612 37.4355L22.9993 34.8736L22.2922 35.5807L24.8541 38.1426L25.5612 37.4355ZM25.8296 37.4894C25.8022 37.5009 25.7557 37.5142 25.7092 37.5117C25.6884 37.5106 25.6681 37.5064 25.6473 37.4975C25.627 37.4887 25.5975 37.4718 25.5612 37.4355L24.8541 38.1426C25.3873 38.6758 26.0044 38.4999 26.2142 38.4125L25.8296 37.4894ZM25.9832 37.2607C25.9832 37.3123 25.9743 37.3452 25.9662 37.3656C25.9578 37.3866 25.9465 37.4038 25.9327 37.4191C25.9018 37.4535 25.8595 37.4771 25.8306 37.489L26.2132 38.4129C26.4218 38.3266 26.9832 38.0158 26.9832 37.2607H25.9832ZM25.9832 33.6375V37.2607H26.9832V33.6375H25.9832ZM27.9684 31.6523C26.8719 31.6523 25.9832 32.5413 25.9832 33.6375H26.9832C26.9832 33.0935 27.4243 32.6523 27.9684 32.6523V31.6523ZM33.7897 31.6523H27.9684V32.6523H33.7897V31.6523ZM35.7749 33.6375C35.7749 32.5413 34.8862 31.6523 33.7897 31.6523V32.6523C34.3338 32.6523 34.7749 33.0935 34.7749 33.6375H35.7749ZM35.7749 37.2606V33.6375H34.7749V37.2606H35.7749ZM35.9272 37.4887C35.8986 37.4769 35.8563 37.4534 35.8254 37.419C35.8116 37.4036 35.8003 37.3864 35.7919 37.3654C35.7838 37.3449 35.7749 37.312 35.7749 37.2606H34.7749C34.7749 38.0153 35.3358 38.3263 35.5451 38.4128L35.9272 37.4887ZM36.1966 37.4354C36.1605 37.4716 36.1311 37.4885 36.1108 37.4972C36.0901 37.5061 36.0698 37.5103 36.049 37.5114C36.0025 37.5139 35.9558 37.5006 35.9277 37.4889L35.5447 38.4127C35.7536 38.4993 36.371 38.6756 36.9039 38.1423L36.1966 37.4354ZM38.7588 34.8734L36.1967 37.4353L36.9038 38.1424L39.4659 35.5805L38.7588 34.8734ZM41.5661 34.8734C40.7908 34.0981 39.534 34.098 38.7588 34.8735L39.466 35.5805C39.8506 35.1957 40.4742 35.1957 40.859 35.5805L41.5661 34.8734ZM45.6823 38.9898L41.5661 34.8734L40.859 35.5805L44.9752 39.6969L45.6823 38.9898ZM45.6823 41.7971C46.4576 41.0218 46.4577 39.7649 45.6823 38.9898L44.9753 39.697C45.36 40.0816 45.3601 40.7052 44.9752 41.09L45.6823 41.7971ZM43.1204 44.359L45.6823 41.7971L44.9752 41.09L42.4133 43.6519L43.1204 44.359ZM43.067 44.6289C43.055 44.5998 43.0417 44.5532 43.0442 44.5069C43.0453 44.4862 43.0495 44.466 43.0584 44.4452C43.0671 44.425 43.0841 44.3954 43.1205 44.3589L42.4132 43.652C41.8797 44.1859 42.0566 44.8023 42.1429 45.011L43.067 44.6289ZM43.2952 44.7813C43.2437 44.7813 43.2108 44.7724 43.1903 44.7642C43.1693 44.7558 43.1521 44.7445 43.1368 44.7307C43.1024 44.6998 43.0789 44.6576 43.0669 44.6287L42.143 45.0112C42.2294 45.2198 42.5401 45.7813 43.2952 45.7813V44.7813ZM45.4339 50.6024H43.2958V51.6024H45.4339V50.6024ZM44.9339 48.2512V51.1024H45.9339V48.2512H44.9339ZM43.2958 48.7512H45.4339V47.7512H43.2958V48.7512ZM39.3992 46.1474C40.054 47.7286 41.5848 48.7512 43.2958 48.7512V47.7512C41.9892 47.7512 40.8231 46.9722 40.3232 45.7648L39.3992 46.1474ZM40.3135 41.5512C39.1033 42.7613 38.7443 44.5665 39.3993 46.1474L40.3231 45.7647C39.823 44.5574 40.0964 43.1824 41.0206 42.2583L40.3135 41.5512ZM41.8252 40.0394L40.3135 41.5512L41.0206 42.2583L42.5323 40.7465L41.8252 40.0394ZM39.8092 38.7305L41.8252 40.7465L42.5323 40.0394L40.5163 38.0234L39.8092 38.7305ZM39.0042 40.2425L40.5163 38.7305L39.8092 38.0234L38.2971 39.5353L39.0042 40.2425ZM34.4081 41.1567C35.9889 41.8114 37.7942 41.4522 39.0042 40.2425L38.2971 39.5353C37.3731 40.4592 35.9979 40.7327 34.7908 40.2328L34.4081 41.1567ZM31.8043 37.2602C31.8043 38.9716 32.827 40.502 34.4082 41.1567L34.7907 40.2328C33.5833 39.7328 32.8043 38.5671 32.8043 37.2602H31.8043ZM31.8043 35.1221V37.2602H32.8043V35.1221H31.8043ZM29.4534 35.6221H32.3043V34.6221H29.4534V35.6221ZM29.9534 37.2602V35.1221H28.9534V37.2602H29.9534ZM27.3495 41.1567C28.9308 40.502 29.9534 38.9714 29.9534 37.2602H28.9534C28.9534 38.5669 28.1744 39.7328 26.967 40.2328L27.3495 41.1567ZM22.7533 40.2424C23.9635 41.4526 25.7686 41.8118 27.3497 41.1567L26.9668 40.2328C25.7596 40.7331 24.3846 40.4596 23.4604 39.5353L22.7533 40.2424ZM21.2414 38.7305L22.7533 40.2424L23.4604 39.5353L21.9485 38.0234L21.2414 38.7305ZM19.9325 40.7465L21.9485 38.7305L21.2414 38.0234L19.2254 40.0394L19.9325 40.7465ZM21.4444 41.5511L19.9325 40.0394L19.2254 40.7466L20.7373 42.2583L21.4444 41.5511ZM22.3584 46.1476C23.0134 44.5667 22.6544 42.7614 21.4444 41.5512L20.7373 42.2582C21.6613 43.1824 21.9347 44.5576 21.4346 45.7649L22.3584 46.1476ZM18.4621 48.7512C20.1734 48.7512 21.7037 47.7286 22.3585 46.1476L21.4346 45.765C20.9346 46.9722 19.7689 47.7512 18.4621 47.7512V48.7512ZM16.324 48.7512H18.4621V47.7512H16.324V48.7512ZM16.824 51.1022V48.2512H15.824V51.1022H16.824ZM18.4621 50.6022H16.324V51.6022H18.4621V50.6022ZM22.3585 53.2058C21.7037 51.6248 20.1731 50.6022 18.4621 50.6022V51.6022C19.7687 51.6022 20.9346 52.3812 21.4346 53.5884L22.3585 53.2058ZM21.4446 57.802C22.6546 56.5918 23.0136 54.7867 22.3584 53.2057L21.4346 53.5885C21.9349 54.7958 21.6615 56.1708 20.7375 57.095L21.4446 57.802ZM19.9325 59.314L21.4446 57.8021L20.7375 57.0949L19.2254 58.6068L19.9325 59.314ZM21.9485 60.6229L19.9325 58.6068L19.2254 59.314L21.2414 61.33L21.9485 60.6229ZM22.7535 59.1109L21.2414 60.6228L21.9485 61.33L23.4606 59.8181L22.7535 59.1109ZM27.3496 58.1967C25.769 57.5417 23.9633 57.9012 22.7535 59.111L23.4606 59.8181C24.3845 58.8942 25.76 58.6205 26.9668 59.1206L27.3496 58.1967ZM29.9534 62.0932C29.9534 60.3818 28.9307 58.8514 27.3495 58.1967L26.967 59.1206C28.1744 59.6206 28.9534 60.7863 28.9534 62.0932H29.9534ZM29.9534 64.2313V62.0932H28.9534V64.2313H29.9534ZM32.3043 63.7313H29.4534V64.7313H32.3043V63.7313ZM31.8043 62.0932V64.2313H32.8043V62.0932H31.8043ZM34.4082 58.1967C32.8269 58.8514 31.8043 60.382 31.8043 62.0932H32.8043C32.8043 60.7865 33.5833 59.6206 34.7907 59.1206L34.4082 58.1967ZM39.0044 59.111C37.7944 57.901 35.9895 57.5415 34.4081 58.1967L34.7908 59.1206C35.9985 58.6203 37.3732 58.894 38.2973 59.8181L39.0044 59.111ZM40.5163 60.6229L39.0044 59.111L38.2973 59.8181L39.8092 61.33L40.5163 60.6229ZM41.8252 58.607L39.8092 60.6229L40.5163 61.33L42.5323 59.3142L41.8252 58.607ZM40.3133 57.8022L41.8252 59.3142L42.5323 58.607L41.0204 57.0951L40.3133 57.8022ZM39.3992 53.2062C38.7445 54.7872 39.1037 56.5922 40.3132 57.8022L41.0205 57.0952C40.0968 56.1712 39.8232 54.7961 40.3232 53.5888L39.3992 53.2062ZM43.2958 50.6024C41.5844 50.6024 40.054 51.625 39.3992 53.2062L40.3232 53.5888C40.8231 52.3813 41.9888 51.6024 43.2958 51.6024V50.6024ZM30.8792 42.4277C26.8817 42.4277 23.6301 45.6793 23.6301 49.6768H24.6301C24.6301 46.2316 27.434 43.4277 30.8792 43.4277V42.4277ZM38.1282 49.6768C38.1284 45.6793 34.8768 42.4277 30.8792 42.4277V43.4277C34.3245 43.4277 37.1284 46.2316 37.1282 49.6767L38.1282 49.6768ZM30.8792 56.9258C34.8768 56.9258 38.1282 53.6742 38.1282 49.6768H37.1282C37.1282 53.1219 34.3245 55.9258 30.8792 55.9258V56.9258ZM23.6301 49.6768C23.6301 53.6742 26.8817 56.9258 30.8792 56.9258V55.9258C27.434 55.9258 24.6301 53.1219 24.6301 49.6768H23.6301ZM30.8792 52.9557C29.0717 52.9557 27.6003 51.4842 27.6003 49.6768H26.6003C26.6003 52.0365 28.5194 53.9557 30.8792 53.9557V52.9557ZM34.1581 49.677C34.1581 51.4844 32.6867 52.9557 30.8792 52.9557V53.9557C33.2389 53.9557 35.1581 52.0367 35.1581 49.677H34.1581ZM30.8792 46.3981C32.6866 46.3981 34.1581 47.8695 34.1581 49.677H35.1581C35.1581 47.3172 33.2389 45.3981 30.8792 45.3981V46.3981ZM27.6003 49.6768C27.6003 47.8693 29.0715 46.3981 30.8792 46.3981V45.3981C28.5192 45.3981 26.6003 47.317 26.6003 49.6768H27.6003ZM38.9659 4.95508H20.6969V5.95508H38.9659V4.95508ZM42.6256 8.61485C42.6256 6.5963 40.9842 4.95508 38.9659 4.95508V5.95508C40.4319 5.95508 41.6256 7.14863 41.6256 8.61485H42.6256ZM42.6256 9.52833V8.61485H41.6256V9.52833H42.6256ZM38.9659 13.1881C40.9844 13.1881 42.6256 11.5469 42.6256 9.52833H41.6256C41.6256 10.9946 40.4321 12.1881 38.9659 12.1881V13.1881ZM20.6969 13.1881H38.9659V12.1881H20.6969V13.1881ZM17.0371 9.52833C17.0371 11.5469 18.6784 13.1881 20.6969 13.1881V12.1881C19.2306 12.1881 18.0371 10.9946 18.0371 9.52833H17.0371ZM17.0371 8.61485V9.52833H18.0371V8.61485H17.0371ZM20.6969 4.95508C18.6784 4.95508 17.0371 6.59632 17.0371 8.61485H18.0371C18.0371 7.14861 19.2306 5.95508 20.6969 5.95508V4.95508ZM38.6553 9.52833C38.6553 9.43153 38.6968 9.35548 38.7449 9.30737C38.793 9.25926 38.8691 9.21778 38.9659 9.21778V10.2178C39.343 10.2178 39.6553 9.90544 39.6553 9.52833H38.6553ZM38.6553 8.61485V9.52833H39.6553V8.61485H38.6553ZM38.9659 8.9254C38.8691 8.9254 38.793 8.88392 38.7449 8.83581C38.6968 8.78769 38.6553 8.71164 38.6553 8.61485H39.6553C39.6553 8.23773 39.343 7.9254 38.9659 7.9254V8.9254ZM20.6969 8.9254H38.9659V7.9254H20.6969V8.9254ZM21.0074 8.61485C21.0074 8.71165 20.966 8.7877 20.9178 8.83581C20.8697 8.88392 20.7937 8.9254 20.6969 8.9254V7.9254C20.3198 7.9254 20.0074 8.23773 20.0074 8.61485H21.0074ZM21.0074 9.52833V8.61485H20.0074V9.52833H21.0074ZM20.6969 9.21778C20.7937 9.21778 20.8697 9.25926 20.9178 9.30737C20.966 9.35548 21.0074 9.43153 21.0074 9.52833H20.0074C20.0074 9.90545 20.3198 10.2178 20.6969 10.2178V9.21778ZM38.9659 9.21778H20.6969V10.2178H38.9659V9.21778ZM7.64075 9.0711C7.64075 7.47986 8.93603 6.18457 10.5273 6.18457V5.18457C8.38375 5.18457 6.64075 6.92757 6.64075 9.0711H7.64075ZM10.5273 11.9576C8.93603 11.9576 7.64075 10.6623 7.64075 9.0711H6.64075C6.64075 11.2146 8.38375 12.9576 10.5273 12.9576V11.9576ZM13.4138 9.0711C13.4138 10.6623 12.1185 11.9576 10.5273 11.9576V12.9576C12.6708 12.9576 14.4138 11.2146 14.4138 9.0711H13.4138ZM10.5273 6.18457C12.1186 6.18457 13.414 7.47989 13.4138 9.07105L14.4138 9.07115C14.414 6.92753 12.6708 5.18457 10.5273 5.18457V6.18457ZM9.61107 9.0711C9.61107 9.57302 10.0254 9.98731 10.5273 9.98731V8.98731C10.5571 8.98731 10.5775 8.99979 10.5881 9.01032C10.5986 9.02085 10.6111 9.04126 10.6111 9.0711H9.61107ZM10.5273 8.15489C10.0254 8.15489 9.61107 8.56918 9.61107 9.0711H10.6111C10.6111 9.10094 10.5986 9.12135 10.5881 9.13188C10.5775 9.14241 10.5571 9.15489 10.5273 9.15489V8.15489ZM11.4435 9.0711C11.4435 8.56918 11.0292 8.15489 10.5273 8.15489V9.15489C10.4974 9.15489 10.477 9.14241 10.4665 9.13188C10.456 9.12135 10.4435 9.10094 10.4435 9.0711H11.4435ZM10.5273 9.98731C11.0288 9.98731 11.4439 9.57332 11.4435 9.07067L10.4435 9.07153C10.4435 9.04138 10.4561 9.0208 10.4666 9.01026C10.4771 8.99975 10.4975 8.98731 10.5273 8.98731V9.98731ZM30.105 86.0859C27.4914 86.0859 25.366 88.2116 25.366 90.8252H26.366C26.366 88.7638 28.0437 87.0859 30.105 87.0859V86.0859ZM34.8443 90.8252C34.8443 88.2116 32.7187 86.0859 30.105 86.0859V87.0859C32.1664 87.0859 33.8443 88.7638 33.8443 90.8252H34.8443ZM30.105 95.5645C32.7189 95.5645 34.8443 93.4388 34.8443 90.8252H33.8443C33.8443 92.8866 32.1666 94.5645 30.105 94.5645V95.5645ZM25.366 90.8252C25.366 93.4388 27.4916 95.5645 30.105 95.5645V94.5645C28.0439 94.5645 26.366 92.8866 26.366 90.8252H25.366ZM30.105 91.5941C29.6817 91.5941 29.3363 91.2488 29.3363 90.8252H28.3363C28.3363 91.8009 29.1292 92.5941 30.105 92.5941V91.5941ZM30.874 90.8252C30.874 91.2487 30.5287 91.5941 30.105 91.5941V92.5941C31.081 92.5941 31.874 91.8009 31.874 90.8252H30.874ZM30.105 90.0563C30.5285 90.0563 30.874 90.4017 30.874 90.8252H31.874C31.874 89.8495 31.0808 89.0563 30.105 89.0563V90.0563ZM29.3363 90.8252C29.3363 90.4016 29.6817 90.0563 30.105 90.0563V89.0563C29.1292 89.0563 28.3363 89.8496 28.3363 90.8252H29.3363Z" fill="black" mask="url(#path-1-inside-1_571_296)"/>
</g>
<defs>
<linearGradient id="paint0_linear_571_296" x1="25.866" y1="95.0645" x2="34.4487" y2="94.9575" gradientUnits="userSpaceOnUse">
<stop stop-color="#D07BF1"/>
<stop offset="1" stop-color="#8A9EF6"/>
</linearGradient>
</defs>
</svg>
