<svg width="18" height="17" viewBox="0 0 18 17" fill="none" xmlns="http://www.w3.org/2000/svg">
<path d="M13.4443 16.5L13.4457 16.5C13.6942 16.5014 13.9406 16.4536 14.1705 16.3594L14.36 16.8221L14.1706 16.3594C14.4005 16.2652 14.6096 16.1265 14.7858 15.9512L14.7868 15.9502L16.7449 14.0122C16.7783 13.9772 16.8065 13.9376 16.8285 13.8949L16.7179 14.0043L14.7561 15.946L13.4443 16.5ZM13.4443 16.5C13.3107 16.4996 13.1775 16.4849 13.047 16.4563L13.0471 16.4562L13.041 16.455C9.98778 15.8234 7.17488 14.3428 4.92582 12.1835C2.72869 10.0217 1.20462 7.26994 0.537778 4.26065C0.474934 3.95838 0.490695 3.64502 0.583575 3.35056C0.676726 3.05524 0.84431 2.78886 1.0702 2.57705L1.07023 2.57708L1.07494 2.57255L3.0857 0.637194C3.09882 0.62487 3.11257 0.61328 3.12687 0.602465M13.4443 16.5L3.12687 0.602465M3.12687 0.602465L3.08843 0.639463L1.0785 2.57402C0.854333 2.78393 0.68834 3.04835 0.596724 3.34152C0.504673 3.63608 0.490878 3.94953 0.556694 4.25104L0.556806 4.25156C1.21687 7.26022 2.73415 10.0133 4.92529 12.1782L4.92526 12.1782L4.93041 12.1832C7.17896 14.3422 9.99152 15.8222 13.0443 16.453M3.12687 0.602465L13.0443 16.453M13.0443 16.453C13.0441 16.453 13.0439 16.4529 13.0437 16.4529L13.146 15.9635L13.0449 16.4531C13.0447 16.4531 13.0445 16.453 13.0443 16.453ZM13.0443 16.453C13.3492 16.5167 13.6651 16.5037 13.9638 16.4153C14.2624 16.3269 14.5345 16.1658 14.7556 15.9465L13.0443 16.453ZM16.6382 13.2279C16.6547 13.2378 16.6706 13.2486 16.6858 13.2602L16.6375 13.229L12.9695 10.8591L12.8147 10.7591C12.8209 10.7621 12.827 10.7654 12.833 10.7688L16.6231 13.2186L16.6305 13.2234L16.6382 13.2279ZM12.4702 10.7957C12.5002 10.772 12.5339 10.754 12.5699 10.7421L12.3867 10.888L10.7074 12.2254C10.7073 12.2255 10.7073 12.2255 10.7073 12.2255C10.7071 12.2256 10.7069 12.2258 10.7067 12.2258C10.7066 12.2259 10.7065 12.2259 10.7063 12.226C10.6979 12.2229 10.6895 12.2197 10.6811 12.2166L10.906 12.038L12.4699 10.7959C12.47 10.7958 12.4701 10.7958 12.4702 10.7957ZM7.19283 9.94763C6.42821 9.23358 5.79134 8.3975 5.30691 7.47588C5.80228 8.39095 6.43775 9.22468 7.19151 9.94624C7.19236 9.94708 7.1932 9.94792 7.19405 9.94876L7.19283 9.94763ZM10.3625 12.0908C9.18476 11.6013 8.11518 10.8813 7.21734 9.97188C8.12392 10.8688 9.19079 11.5875 10.3625 12.0908Z" stroke="url(#paint0_linear_649_92)"/>
<defs>
<linearGradient id="paint0_linear_649_92" x1="3.2382e-08" y1="17" x2="17.5988" y2="16.7757" gradientUnits="userSpaceOnUse">
<stop stop-color="#D07BF1"/>
<stop offset="1" stop-color="#8A9EF6"/>
</linearGradient>
</defs>
</svg>
