<svg width="30" height="35" viewBox="0 0 30 35" fill="none" xmlns="http://www.w3.org/2000/svg">
<path fill-rule="evenodd" clip-rule="evenodd" d="M23.2183 4.95321H10.0481L13.5242 1.47715C13.8624 1.1389 13.8624 0.591938 13.5242 0.253688C13.1859 -0.0845626 12.639 -0.0845626 12.3007 0.253688L7.34929 5.2051C7.01104 5.54335 7.01104 6.09031 7.34929 6.42856L12.3007 11.38C12.4662 11.5455 12.6893 11.6319 12.9124 11.6319C13.1355 11.6319 13.3514 11.5455 13.5242 11.38C13.8624 11.0417 13.8624 10.4948 13.5242 10.1565L10.0481 6.68045H23.2111C23.6861 6.68045 24.0747 6.29182 24.0747 5.81683C24.0747 5.34184 23.6933 4.95321 23.2183 4.95321ZM27.098 7.20606C27.357 6.80304 27.2419 6.27047 26.8389 6.01139C26.4358 5.7523 25.9033 5.86745 25.6442 6.27047C25.3851 6.67349 25.5003 7.20606 25.9033 7.46515C26.0472 7.5587 26.2127 7.60188 26.3711 7.60188C26.6518 7.60188 26.9324 7.46515 27.098 7.20606ZM28.5224 10.0841C28.6448 10.0841 28.7671 10.0553 28.8823 10.005C29.3141 9.80344 29.5012 9.29247 29.3069 8.86066C29.1126 8.42885 28.5944 8.24173 28.1626 8.43605C27.7308 8.63036 27.5365 9.14853 27.738 9.58034C27.8819 9.897 28.1986 10.0841 28.5224 10.0841ZM8.27063 16.6337C8.74562 16.6337 9.13425 17.0224 9.13425 17.4974C9.13425 17.9723 8.74562 18.361 8.27063 18.361C7.79564 18.361 7.40701 17.9723 7.40701 17.4974C7.40701 17.0224 7.79564 16.6337 8.27063 16.6337ZM5.79431 17.4972C5.65757 17.0367 5.17538 16.7776 4.72198 16.9143C4.26138 17.051 4.0023 17.5332 4.13904 17.9866C4.25419 18.3609 4.59244 18.6056 4.96667 18.6056C5.04584 18.6056 5.1322 18.5912 5.21136 18.5696C5.67196 18.4328 5.93105 17.9506 5.79431 17.4972ZM3.94443 27.5299C3.54141 27.2709 3.00885 27.386 2.74976 27.789C2.49067 28.192 2.60582 28.7246 3.00885 28.9837C3.15278 29.0773 3.31831 29.1204 3.47664 29.1204C3.75731 29.1204 4.03799 28.9837 4.20352 28.7246C4.4626 28.3216 4.34745 27.789 3.94443 27.5299ZM0.857322 23.3845C1.28193 23.3845 1.64897 23.0751 1.71374 22.6433C1.77851 22.1683 1.45466 21.7365 0.979668 21.6645C0.504678 21.5997 0.0728685 21.9236 0.00809714 22.3986C-0.0566742 22.8736 0.274379 23.3054 0.742173 23.3701C0.778157 23.3845 0.814141 23.3845 0.857322 23.3845ZM2.77132 18.8789C3.13836 19.1884 3.17434 19.7353 2.86488 20.0952C2.69215 20.2895 2.45466 20.3974 2.20997 20.3974C2.00846 20.3974 1.81414 20.3327 1.64862 20.1887C1.28158 19.8793 1.24559 19.3323 1.55506 18.9725C1.86452 18.6054 2.41148 18.5695 2.77132 18.8789ZM11.6029 16.6338C12.0779 16.6338 12.4665 17.0224 12.4665 17.4974C12.4665 17.9724 12.0779 18.361 11.6029 18.361C11.1279 18.361 10.7393 17.9724 10.7393 17.4974C10.7393 17.0224 11.1279 16.6338 11.6029 16.6338ZM0.965338 24.989C0.533528 25.1905 0.339214 25.7014 0.540725 26.1332C0.684662 26.4499 1.00132 26.637 1.32518 26.637C1.44752 26.637 1.56987 26.6082 1.68502 26.5579C2.11683 26.3563 2.31114 25.8454 2.10963 25.4136C1.91532 24.9818 1.39715 24.7874 0.965338 24.989ZM24.0668 17.5047C23.93 17.0441 24.1891 16.562 24.6497 16.4252C25.1031 16.2885 25.5853 16.5476 25.722 17.001C25.8588 17.4616 25.6069 17.9437 25.1463 18.0805C25.0599 18.1021 24.9736 18.1165 24.8944 18.1165C24.5202 18.1165 24.1819 17.879 24.0668 17.5047ZM28.2121 14.8055C27.8523 14.496 27.3053 14.5392 26.9959 14.899C26.6864 15.2589 26.7296 15.8058 27.0894 16.1153C27.255 16.252 27.4565 16.324 27.6508 16.324C27.8955 16.324 28.133 16.2232 28.3057 16.0217C28.6152 15.6619 28.572 15.1149 28.2121 14.8055ZM14.9347 16.6337C15.4097 16.6337 15.7983 17.0224 15.7983 17.4974C15.7983 17.9723 15.4097 18.361 14.9347 18.361C14.4597 18.361 14.0711 17.9723 14.0711 17.4974C14.0711 17.0224 14.4597 16.6337 14.9347 16.6337ZM20.7276 17.4974C20.7276 17.0224 21.1162 16.6337 21.5912 16.6337C22.0662 16.6337 22.4548 17.0224 22.4548 17.4974C22.4548 17.9723 22.0662 18.361 21.5912 18.361C21.1162 18.361 20.7276 17.9723 20.7276 17.4974ZM19.1228 17.4974C19.1228 17.0224 18.7341 16.6337 18.2592 16.6337C17.7842 16.6337 17.3955 17.0224 17.3955 17.4974C17.3955 17.9723 17.7842 18.361 18.2592 18.361C18.7341 18.361 19.1228 17.9723 19.1228 17.4974ZM28.147 12.3437C28.2117 11.8759 28.6435 11.5449 29.1185 11.6097C29.5935 11.6744 29.9174 12.1134 29.8598 12.574C29.795 13.013 29.428 13.3225 29.0034 13.3225C28.9602 13.3225 28.9242 13.3225 28.881 13.3153C28.4132 13.2505 28.0822 12.8187 28.147 12.3437ZM15.3299 23.6219C15.6682 23.2836 16.2151 23.2836 16.5534 23.6219L21.5048 28.5733C21.8431 28.9115 21.8431 29.4585 21.5048 29.7968L16.5534 34.7482C16.3807 34.9137 16.1648 35.0001 15.9417 35.0001C15.7186 35.0001 15.4955 34.9137 15.3299 34.7482C14.9917 34.4099 14.9917 33.863 15.3299 33.5247L18.806 30.0486H6.63618C6.16119 30.0486 5.77256 29.66 5.77256 29.185C5.77256 28.71 6.16119 28.3214 6.63618 28.3214H18.806L15.3299 24.8453C14.9917 24.5071 14.9917 23.9601 15.3299 23.6219Z" fill="url(#paint0_linear_400_25408)"/>
<defs>
<linearGradient id="paint0_linear_400_25408" x1="5.77286" y1="35" x2="21.9531" y2="34.7228" gradientUnits="userSpaceOnUse">
<stop stop-color="#D07BF1"/>
<stop offset="1" stop-color="#8A9EF6"/>
</linearGradient>
</defs>
</svg>
