<svg width="47" height="36" viewBox="0 0 47 36" fill="none" xmlns="http://www.w3.org/2000/svg">
<path fill-rule="evenodd" clip-rule="evenodd" d="M23.1033 0.117647C23.3974 -0.0392157 23.7504 -0.0392157 24.0445 0.117647L45.7624 11.7005C46.0972 11.8621 46.3281 12.2049 46.3281 12.6016V31.4547C46.3281 32.007 45.8804 32.4547 45.3281 32.4547C44.7758 32.4547 44.3281 32.007 44.3281 31.4547V14.2683L37.6259 17.8428V27.1038C37.6259 28.2023 37.1318 29.2677 36.39 30.2039C35.6418 31.1482 34.59 32.0295 33.3335 32.7834C30.8197 34.2917 27.3785 35.355 23.5738 35.355C19.769 35.355 16.3278 34.2917 13.814 32.7834C12.5576 32.0295 11.5057 31.1482 10.7575 30.2039C10.0157 29.2677 9.52161 28.2023 9.52161 27.1038V17.8426L1.34972 13.4843C1.02386 13.3105 0.820312 12.9712 0.820312 12.6019C0.820312 12.2326 1.02386 11.8934 1.34972 11.7196L23.1033 0.117647ZM36.1232 16.3775C36.1448 16.365 36.1669 16.3532 36.1894 16.3422L43.2025 12.6019L23.5739 2.13333L3.94531 12.6019L10.9615 16.3439C10.9817 16.3538 11.0016 16.3644 11.021 16.3756L23.5739 23.0705L36.1232 16.3775ZM23.1033 25.0862L11.5216 18.9093V27.1038C11.5216 27.6006 11.7526 28.2393 12.3251 28.9618C12.8912 29.6762 13.7428 30.4082 14.843 31.0684C17.0424 32.388 20.1273 33.355 23.5738 33.355C27.0202 33.355 30.1051 32.388 32.3046 31.0684C33.4048 30.4082 34.2564 29.6762 34.8224 28.9618C35.3949 28.2393 35.6259 27.6006 35.6259 27.1038V18.9094L24.0445 25.0862C23.7504 25.2431 23.3974 25.2431 23.1033 25.0862Z" fill="url(#paint0_linear_400_25387)"/>
<defs>
<linearGradient id="paint0_linear_400_25387" x1="0.820313" y1="35.355" x2="46.8836" y2="34.6159" gradientUnits="userSpaceOnUse">
<stop stop-color="#D07BF1"/>
<stop offset="1" stop-color="#8A9EF6"/>
</linearGradient>
</defs>
</svg>
