<svg width="107" height="100" viewBox="0 0 107 100" fill="none" xmlns="http://www.w3.org/2000/svg">
<g opacity="0.5">
<mask id="path-1-inside-1_571_298" fill="white">
<path fill-rule="evenodd" clip-rule="evenodd" d="M97.2917 0H9.375C4.20573 0 0 4.20573 0 9.375V71.875C0 77.0443 4.20573 81.25 9.375 81.25H36.4974L32.3307 93.75H22.0833C20.3573 93.75 18.9583 95.1489 18.9583 96.875C18.9583 98.6011 20.3573 100 22.0833 100H84.5833C86.3094 100 87.7083 98.6011 87.7083 96.875C87.7083 95.1489 86.3094 93.75 84.5833 93.75H74.3359L70.1693 81.25H97.2917C102.461 81.25 106.667 77.0443 106.667 71.875V9.375C106.667 4.20573 102.461 0 97.2917 0ZM38.9193 93.75L43.0859 81.25H63.5807L67.7474 93.75H38.9193ZM100.417 71.875C100.417 73.5978 99.0145 75 97.2917 75H9.375C7.65218 75 6.25 73.5978 6.25 71.875V68.75H100.417V71.875ZM100.417 62.5H6.25V9.375C6.25 7.65218 7.65218 6.25 9.375 6.25H97.2917C99.0145 6.25 100.417 7.65218 100.417 9.375V62.5ZM62.708 15.625C62.708 17.3511 61.3091 18.75 59.583 18.75C57.8569 18.75 56.458 17.3511 56.458 15.625C56.458 13.8989 57.8569 12.5 59.583 12.5C61.3091 12.5 62.708 13.8989 62.708 15.625ZM47.083 18.75C48.8091 18.75 50.208 17.3511 50.208 15.625C50.208 13.8989 48.8091 12.5 47.083 12.5C45.3569 12.5 43.958 13.8989 43.958 15.625C43.958 17.3511 45.3569 18.75 47.083 18.75ZM75.208 15.625C75.208 17.3511 73.8091 18.75 72.083 18.75C70.3569 18.75 68.958 17.3511 68.958 15.625C68.958 13.8989 70.3569 12.5 72.083 12.5C73.8091 12.5 75.208 13.8989 75.208 15.625ZM15.833 12.5H34.583C36.3091 12.5 37.708 13.8989 37.708 15.625V53.125C37.708 54.8511 36.3091 56.25 34.583 56.25H15.833C14.1069 56.25 12.708 54.8511 12.708 53.125V15.625C12.708 13.8989 14.1069 12.5 15.833 12.5ZM18.958 50H31.458V43.75H18.958V50ZM18.958 37.5H31.458V31.25H18.958V37.5ZM18.958 25H31.458V18.75H18.958V25ZM80.5428 44.6655C79.3229 43.4448 77.3438 43.4448 76.1239 44.6655L72.5692 48.2194L62.1834 32.6416C61.604 31.7725 60.6283 31.25 59.5834 31.25C58.5384 31.25 57.5627 31.7725 56.9833 32.6416L44.4833 51.3916C43.5262 52.8271 43.9136 54.7681 45.35 55.7251C46.7798 56.6781 48.7215 56.3005 49.6835 54.8584L59.5834 40.0089L69.4833 54.8584C70.0025 55.6372 70.8439 56.1426 71.7757 56.2345C72.7084 56.3273 73.6312 55.9969 74.2928 55.3345L78.3334 51.2948L82.3739 55.3345C83.5938 56.5552 85.5729 56.5552 86.7928 55.3345C88.0135 54.1146 88.0135 52.1362 86.7928 50.9155L80.5428 44.6655ZM75.208 28.125C75.208 22.9557 79.4137 18.75 84.583 18.75C89.7523 18.75 93.958 22.9557 93.958 28.125C93.958 33.2943 89.7523 37.5 84.583 37.5C79.4137 37.5 75.208 33.2943 75.208 28.125ZM81.458 28.125C81.458 29.8478 82.8602 31.25 84.583 31.25C86.3058 31.25 87.708 29.8478 87.708 28.125C87.708 26.4022 86.3058 25 84.583 25C82.8602 25 81.458 26.4022 81.458 28.125Z"/>
</mask>
<path fill-rule="evenodd" clip-rule="evenodd" d="M97.2917 0H9.375C4.20573 0 0 4.20573 0 9.375V71.875C0 77.0443 4.20573 81.25 9.375 81.25H36.4974L32.3307 93.75H22.0833C20.3573 93.75 18.9583 95.1489 18.9583 96.875C18.9583 98.6011 20.3573 100 22.0833 100H84.5833C86.3094 100 87.7083 98.6011 87.7083 96.875C87.7083 95.1489 86.3094 93.75 84.5833 93.75H74.3359L70.1693 81.25H97.2917C102.461 81.25 106.667 77.0443 106.667 71.875V9.375C106.667 4.20573 102.461 0 97.2917 0ZM38.9193 93.75L43.0859 81.25H63.5807L67.7474 93.75H38.9193ZM100.417 71.875C100.417 73.5978 99.0145 75 97.2917 75H9.375C7.65218 75 6.25 73.5978 6.25 71.875V68.75H100.417V71.875ZM100.417 62.5H6.25V9.375C6.25 7.65218 7.65218 6.25 9.375 6.25H97.2917C99.0145 6.25 100.417 7.65218 100.417 9.375V62.5ZM62.708 15.625C62.708 17.3511 61.3091 18.75 59.583 18.75C57.8569 18.75 56.458 17.3511 56.458 15.625C56.458 13.8989 57.8569 12.5 59.583 12.5C61.3091 12.5 62.708 13.8989 62.708 15.625ZM47.083 18.75C48.8091 18.75 50.208 17.3511 50.208 15.625C50.208 13.8989 48.8091 12.5 47.083 12.5C45.3569 12.5 43.958 13.8989 43.958 15.625C43.958 17.3511 45.3569 18.75 47.083 18.75ZM75.208 15.625C75.208 17.3511 73.8091 18.75 72.083 18.75C70.3569 18.75 68.958 17.3511 68.958 15.625C68.958 13.8989 70.3569 12.5 72.083 12.5C73.8091 12.5 75.208 13.8989 75.208 15.625ZM15.833 12.5H34.583C36.3091 12.5 37.708 13.8989 37.708 15.625V53.125C37.708 54.8511 36.3091 56.25 34.583 56.25H15.833C14.1069 56.25 12.708 54.8511 12.708 53.125V15.625C12.708 13.8989 14.1069 12.5 15.833 12.5ZM18.958 50H31.458V43.75H18.958V50ZM18.958 37.5H31.458V31.25H18.958V37.5ZM18.958 25H31.458V18.75H18.958V25ZM80.5428 44.6655C79.3229 43.4448 77.3438 43.4448 76.1239 44.6655L72.5692 48.2194L62.1834 32.6416C61.604 31.7725 60.6283 31.25 59.5834 31.25C58.5384 31.25 57.5627 31.7725 56.9833 32.6416L44.4833 51.3916C43.5262 52.8271 43.9136 54.7681 45.35 55.7251C46.7798 56.6781 48.7215 56.3005 49.6835 54.8584L59.5834 40.0089L69.4833 54.8584C70.0025 55.6372 70.8439 56.1426 71.7757 56.2345C72.7084 56.3273 73.6312 55.9969 74.2928 55.3345L78.3334 51.2948L82.3739 55.3345C83.5938 56.5552 85.5729 56.5552 86.7928 55.3345C88.0135 54.1146 88.0135 52.1362 86.7928 50.9155L80.5428 44.6655ZM75.208 28.125C75.208 22.9557 79.4137 18.75 84.583 18.75C89.7523 18.75 93.958 22.9557 93.958 28.125C93.958 33.2943 89.7523 37.5 84.583 37.5C79.4137 37.5 75.208 33.2943 75.208 28.125ZM81.458 28.125C81.458 29.8478 82.8602 31.25 84.583 31.25C86.3058 31.25 87.708 29.8478 87.708 28.125C87.708 26.4022 86.3058 25 84.583 25C82.8602 25 81.458 26.4022 81.458 28.125Z" fill="white"/>
<path fill-rule="evenodd" clip-rule="evenodd" d="M97.2917 0H9.375C4.20573 0 0 4.20573 0 9.375V71.875C0 77.0443 4.20573 81.25 9.375 81.25H36.4974L32.3307 93.75H22.0833C20.3573 93.75 18.9583 95.1489 18.9583 96.875C18.9583 98.6011 20.3573 100 22.0833 100H84.5833C86.3094 100 87.7083 98.6011 87.7083 96.875C87.7083 95.1489 86.3094 93.75 84.5833 93.75H74.3359L70.1693 81.25H97.2917C102.461 81.25 106.667 77.0443 106.667 71.875V9.375C106.667 4.20573 102.461 0 97.2917 0ZM38.9193 93.75L43.0859 81.25H63.5807L67.7474 93.75H38.9193ZM100.417 71.875C100.417 73.5978 99.0145 75 97.2917 75H9.375C7.65218 75 6.25 73.5978 6.25 71.875V68.75H100.417V71.875ZM100.417 62.5H6.25V9.375C6.25 7.65218 7.65218 6.25 9.375 6.25H97.2917C99.0145 6.25 100.417 7.65218 100.417 9.375V62.5ZM62.708 15.625C62.708 17.3511 61.3091 18.75 59.583 18.75C57.8569 18.75 56.458 17.3511 56.458 15.625C56.458 13.8989 57.8569 12.5 59.583 12.5C61.3091 12.5 62.708 13.8989 62.708 15.625ZM47.083 18.75C48.8091 18.75 50.208 17.3511 50.208 15.625C50.208 13.8989 48.8091 12.5 47.083 12.5C45.3569 12.5 43.958 13.8989 43.958 15.625C43.958 17.3511 45.3569 18.75 47.083 18.75ZM75.208 15.625C75.208 17.3511 73.8091 18.75 72.083 18.75C70.3569 18.75 68.958 17.3511 68.958 15.625C68.958 13.8989 70.3569 12.5 72.083 12.5C73.8091 12.5 75.208 13.8989 75.208 15.625ZM15.833 12.5H34.583C36.3091 12.5 37.708 13.8989 37.708 15.625V53.125C37.708 54.8511 36.3091 56.25 34.583 56.25H15.833C14.1069 56.25 12.708 54.8511 12.708 53.125V15.625C12.708 13.8989 14.1069 12.5 15.833 12.5ZM18.958 50H31.458V43.75H18.958V50ZM18.958 37.5H31.458V31.25H18.958V37.5ZM18.958 25H31.458V18.75H18.958V25ZM80.5428 44.6655C79.3229 43.4448 77.3438 43.4448 76.1239 44.6655L72.5692 48.2194L62.1834 32.6416C61.604 31.7725 60.6283 31.25 59.5834 31.25C58.5384 31.25 57.5627 31.7725 56.9833 32.6416L44.4833 51.3916C43.5262 52.8271 43.9136 54.7681 45.35 55.7251C46.7798 56.6781 48.7215 56.3005 49.6835 54.8584L59.5834 40.0089L69.4833 54.8584C70.0025 55.6372 70.8439 56.1426 71.7757 56.2345C72.7084 56.3273 73.6312 55.9969 74.2928 55.3345L78.3334 51.2948L82.3739 55.3345C83.5938 56.5552 85.5729 56.5552 86.7928 55.3345C88.0135 54.1146 88.0135 52.1362 86.7928 50.9155L80.5428 44.6655ZM75.208 28.125C75.208 22.9557 79.4137 18.75 84.583 18.75C89.7523 18.75 93.958 22.9557 93.958 28.125C93.958 33.2943 89.7523 37.5 84.583 37.5C79.4137 37.5 75.208 33.2943 75.208 28.125ZM81.458 28.125C81.458 29.8478 82.8602 31.25 84.583 31.25C86.3058 31.25 87.708 29.8478 87.708 28.125C87.708 26.4022 86.3058 25 84.583 25C82.8602 25 81.458 26.4022 81.458 28.125Z" fill="url(#paint0_linear_571_298)"/>
<path d="M36.4974 81.25L38.3948 81.8825L39.2722 79.25H36.4974V81.25ZM32.3307 93.75V95.75H33.7722L34.2281 94.3825L32.3307 93.75ZM74.3359 93.75L72.4386 94.3825L72.8944 95.75H74.3359V93.75ZM70.1693 81.25V79.25H67.3944L68.2719 81.8825L70.1693 81.25ZM43.0859 81.25V79.25H41.6444L41.1886 80.6175L43.0859 81.25ZM38.9193 93.75L37.0219 93.1175L36.1444 95.75H38.9193V93.75ZM63.5807 81.25L65.4781 80.6175L65.0222 79.25H63.5807V81.25ZM67.7474 93.75V95.75H70.5222L69.6448 93.1175L67.7474 93.75ZM6.25 68.75V66.75H4.25V68.75H6.25ZM100.417 68.75H102.417V66.75H100.417V68.75ZM6.25 62.5H4.25V64.5H6.25V62.5ZM100.417 62.5V64.5H102.417V62.5H100.417ZM31.458 50V52H33.458V50H31.458ZM18.958 50H16.958V52H18.958V50ZM31.458 43.75H33.458V41.75H31.458V43.75ZM18.958 43.75V41.75H16.958V43.75H18.958ZM31.458 37.5V39.5H33.458V37.5H31.458ZM18.958 37.5H16.958V39.5H18.958V37.5ZM31.458 31.25H33.458V29.25H31.458V31.25ZM18.958 31.25V29.25H16.958V31.25H18.958ZM31.458 25V27H33.458V25H31.458ZM18.958 25H16.958V27H18.958V25ZM31.458 18.75H33.458V16.75H31.458V18.75ZM18.958 18.75V16.75H16.958V18.75H18.958ZM76.1239 44.6655L77.5379 46.0799L77.5386 46.0793L76.1239 44.6655ZM80.5428 44.6655L79.1282 46.0793L79.1286 46.0797L80.5428 44.6655ZM72.5692 48.2194L70.9051 49.3288L72.2582 51.3584L73.9833 49.6338L72.5692 48.2194ZM62.1834 32.6416L60.5193 33.751L60.5194 33.751L62.1834 32.6416ZM56.9833 32.6416L58.6474 33.751V33.751L56.9833 32.6416ZM45.35 55.7251L46.4591 54.0609L46.4589 54.0607L45.35 55.7251ZM49.6835 54.8584L51.3473 55.9682L51.3475 55.9678L49.6835 54.8584ZM59.5834 40.0089L61.2474 38.8995L59.5834 36.4035L57.9193 38.8995L59.5834 40.0089ZM69.4833 54.8584L71.1473 53.749L71.1473 53.749L69.4833 54.8584ZM71.7757 56.2345L71.9737 54.2444L71.9722 54.2442L71.7757 56.2345ZM74.2928 55.3345L72.8788 53.9201L72.8777 53.9211L74.2928 55.3345ZM78.3334 51.2948L79.7474 49.8804L78.3334 48.4666L76.9193 49.8804L78.3334 51.2948ZM82.3739 55.3345L83.7886 53.9207L83.788 53.9201L82.3739 55.3345ZM86.7928 55.3345L85.3791 53.9198L85.3782 53.9207L86.7928 55.3345ZM9.375 2H97.2917V-2H9.375V2ZM2 9.375C2 5.3103 5.3103 2 9.375 2V-2C3.10116 -2 -2 3.10116 -2 9.375H2ZM2 71.875V9.375H-2V71.875H2ZM9.375 79.25C5.3103 79.25 2 75.9397 2 71.875H-2C-2 78.1488 3.10116 83.25 9.375 83.25V79.25ZM36.4974 79.25H9.375V83.25H36.4974V79.25ZM34.2281 94.3825L38.3948 81.8825L34.6 80.6175L30.4334 93.1175L34.2281 94.3825ZM22.0833 95.75H32.3307V91.75H22.0833V95.75ZM20.9583 96.875C20.9583 96.2535 21.4618 95.75 22.0833 95.75V91.75C19.2527 91.75 16.9583 94.0444 16.9583 96.875H20.9583ZM22.0833 98C21.4618 98 20.9583 97.4965 20.9583 96.875H16.9583C16.9583 99.7056 19.2527 102 22.0833 102V98ZM84.5833 98H22.0833V102H84.5833V98ZM85.7083 96.875C85.7083 97.4965 85.2048 98 84.5833 98V102C87.414 102 89.7083 99.7056 89.7083 96.875H85.7083ZM84.5833 95.75C85.2048 95.75 85.7083 96.2535 85.7083 96.875H89.7083C89.7083 94.0444 87.414 91.75 84.5833 91.75V95.75ZM74.3359 95.75H84.5833V91.75H74.3359V95.75ZM68.2719 81.8825L72.4386 94.3825L76.2333 93.1175L72.0666 80.6175L68.2719 81.8825ZM97.2917 79.25H70.1693V83.25H97.2917V79.25ZM104.667 71.875C104.667 75.9397 101.356 79.25 97.2917 79.25V83.25C103.566 83.25 108.667 78.1488 108.667 71.875H104.667ZM104.667 9.375V71.875H108.667V9.375H104.667ZM97.2917 2C101.356 2 104.667 5.3103 104.667 9.375H108.667C108.667 3.10116 103.566 -2 97.2917 -2V2ZM41.1886 80.6175L37.0219 93.1175L40.8166 94.3825L44.9833 81.8825L41.1886 80.6175ZM63.5807 79.25H43.0859V83.25H63.5807V79.25ZM69.6448 93.1175L65.4781 80.6175L61.6834 81.8825L65.85 94.3825L69.6448 93.1175ZM38.9193 95.75H67.7474V91.75H38.9193V95.75ZM97.2917 77C100.119 77 102.417 74.7024 102.417 71.875H98.4167C98.4167 72.4932 97.9099 73 97.2917 73V77ZM9.375 77H97.2917V73H9.375V77ZM4.25 71.875C4.25 74.7024 6.54761 77 9.375 77V73C8.75675 73 8.25 72.4932 8.25 71.875H4.25ZM4.25 68.75V71.875H8.25V68.75H4.25ZM100.417 66.75H6.25V70.75H100.417V66.75ZM102.417 71.875V68.75H98.4167V71.875H102.417ZM6.25 64.5H100.417V60.5H6.25V64.5ZM4.25 9.375V62.5H8.25V9.375H4.25ZM9.375 4.25C6.54761 4.25 4.25 6.54761 4.25 9.375H8.25C8.25 8.75675 8.75675 8.25 9.375 8.25V4.25ZM97.2917 4.25H9.375V8.25H97.2917V4.25ZM102.417 9.375C102.417 6.54761 100.119 4.25 97.2917 4.25V8.25C97.9099 8.25 98.4167 8.75675 98.4167 9.375H102.417ZM102.417 62.5V9.375H98.4167V62.5H102.417ZM59.583 20.75C62.4137 20.75 64.708 18.4556 64.708 15.625H60.708C60.708 16.2465 60.2045 16.75 59.583 16.75V20.75ZM54.458 15.625C54.458 18.4556 56.7524 20.75 59.583 20.75V16.75C58.9615 16.75 58.458 16.2465 58.458 15.625H54.458ZM59.583 10.5C56.7524 10.5 54.458 12.7944 54.458 15.625H58.458C58.458 15.0035 58.9615 14.5 59.583 14.5V10.5ZM64.708 15.625C64.708 12.7944 62.4137 10.5 59.583 10.5V14.5C60.2045 14.5 60.708 15.0035 60.708 15.625H64.708ZM48.208 15.625C48.208 16.2465 47.7045 16.75 47.083 16.75V20.75C49.9137 20.75 52.208 18.4556 52.208 15.625H48.208ZM47.083 14.5C47.7045 14.5 48.208 15.0035 48.208 15.625H52.208C52.208 12.7944 49.9137 10.5 47.083 10.5V14.5ZM45.958 15.625C45.958 15.0035 46.4615 14.5 47.083 14.5V10.5C44.2524 10.5 41.958 12.7944 41.958 15.625H45.958ZM47.083 16.75C46.4615 16.75 45.958 16.2465 45.958 15.625H41.958C41.958 18.4556 44.2524 20.75 47.083 20.75V16.75ZM72.083 20.75C74.9137 20.75 77.208 18.4556 77.208 15.625H73.208C73.208 16.2465 72.7045 16.75 72.083 16.75V20.75ZM66.958 15.625C66.958 18.4556 69.2524 20.75 72.083 20.75V16.75C71.4615 16.75 70.958 16.2465 70.958 15.625H66.958ZM72.083 10.5C69.2524 10.5 66.958 12.7944 66.958 15.625H70.958C70.958 15.0035 71.4615 14.5 72.083 14.5V10.5ZM77.208 15.625C77.208 12.7944 74.9137 10.5 72.083 10.5V14.5C72.7045 14.5 73.208 15.0035 73.208 15.625H77.208ZM34.583 10.5H15.833V14.5H34.583V10.5ZM39.708 15.625C39.708 12.7944 37.4137 10.5 34.583 10.5V14.5C35.2045 14.5 35.708 15.0035 35.708 15.625H39.708ZM39.708 53.125V15.625H35.708V53.125H39.708ZM34.583 58.25C37.4137 58.25 39.708 55.9556 39.708 53.125H35.708C35.708 53.7465 35.2045 54.25 34.583 54.25V58.25ZM15.833 58.25H34.583V54.25H15.833V58.25ZM10.708 53.125C10.708 55.9556 13.0024 58.25 15.833 58.25V54.25C15.2115 54.25 14.708 53.7465 14.708 53.125H10.708ZM10.708 15.625V53.125H14.708V15.625H10.708ZM15.833 10.5C13.0024 10.5 10.708 12.7944 10.708 15.625H14.708C14.708 15.0035 15.2115 14.5 15.833 14.5V10.5ZM31.458 48H18.958V52H31.458V48ZM29.458 43.75V50H33.458V43.75H29.458ZM18.958 45.75H31.458V41.75H18.958V45.75ZM20.958 50V43.75H16.958V50H20.958ZM31.458 35.5H18.958V39.5H31.458V35.5ZM29.458 31.25V37.5H33.458V31.25H29.458ZM18.958 33.25H31.458V29.25H18.958V33.25ZM20.958 37.5V31.25H16.958V37.5H20.958ZM31.458 23H18.958V27H31.458V23ZM29.458 18.75V25H33.458V18.75H29.458ZM18.958 20.75H31.458V16.75H18.958V20.75ZM20.958 25V18.75H16.958V25H20.958ZM77.5386 46.0793C77.9773 45.6402 78.6894 45.6402 79.1282 46.0793L81.9575 43.2518C79.9565 41.2494 76.7102 41.2494 74.7092 43.2518L77.5386 46.0793ZM73.9833 49.6338L77.5379 46.0799L74.7098 43.2512L71.1551 46.805L73.9833 49.6338ZM60.5194 33.751L70.9051 49.3288L74.2333 47.11L63.8475 31.5322L60.5194 33.751ZM59.5834 33.25C59.9594 33.25 60.3107 33.4381 60.5193 33.751L63.8476 31.5322C62.8973 30.1068 61.2972 29.25 59.5834 29.25V33.25ZM58.6474 33.751C58.856 33.4381 59.2074 33.25 59.5834 33.25V29.25C57.8695 29.25 56.2694 30.1068 55.3192 31.5322L58.6474 33.751ZM46.1474 52.501L58.6474 33.751L55.3192 31.5322L42.8192 50.2822L46.1474 52.501ZM46.4589 54.0607C45.9427 53.7168 45.8026 53.0181 46.1474 52.501L42.8192 50.2822C41.2498 52.6362 41.8844 55.8193 44.241 57.3895L46.4589 54.0607ZM48.0196 53.7486C47.6738 54.267 46.9751 54.4047 46.4591 54.0609L44.2408 57.3893C46.5845 58.9514 49.7693 58.3339 51.3473 55.9682L48.0196 53.7486ZM57.9193 38.8995L48.0194 53.749L51.3475 55.9678L61.2474 41.1184L57.9193 38.8995ZM71.1473 53.749L61.2474 38.8995L57.9193 41.1184L67.8192 55.9678L71.1473 53.749ZM71.9722 54.2442C71.6372 54.2111 71.3342 54.0293 71.1473 53.749L67.8192 55.9678C68.6707 57.2451 70.0507 58.074 71.5793 58.2249L71.9722 54.2442ZM72.8777 53.9211C72.6399 54.1593 72.3091 54.2777 71.9737 54.2444L71.5778 58.2247C73.1076 58.3769 74.6225 57.8345 75.7079 56.7478L72.8777 53.9211ZM76.9193 49.8804L72.8788 53.9201L75.7069 56.7488L79.7474 52.7091L76.9193 49.8804ZM83.788 53.9201L79.7474 49.8804L76.9193 52.7091L80.9598 56.7488L83.788 53.9201ZM85.3782 53.9207C84.9394 54.3598 84.2273 54.3598 83.7886 53.9207L80.9592 56.7482C82.9602 58.7506 86.2065 58.7506 88.2075 56.7482L85.3782 53.9207ZM85.3786 52.3297C85.8185 52.7697 85.8179 53.4813 85.3791 53.9198L88.2066 56.7492C90.2092 54.7478 90.2085 51.5028 88.207 49.5013L85.3786 52.3297ZM79.1286 46.0797L85.3786 52.3297L88.207 49.5013L81.957 43.2513L79.1286 46.0797ZM84.583 16.75C78.3092 16.75 73.208 21.8512 73.208 28.125H77.208C77.208 24.0603 80.5183 20.75 84.583 20.75V16.75ZM95.958 28.125C95.958 21.8512 90.8568 16.75 84.583 16.75V20.75C88.6477 20.75 91.958 24.0603 91.958 28.125H95.958ZM84.583 39.5C90.8568 39.5 95.958 34.3988 95.958 28.125H91.958C91.958 32.1897 88.6477 35.5 84.583 35.5V39.5ZM73.208 28.125C73.208 34.3988 78.3092 39.5 84.583 39.5V35.5C80.5183 35.5 77.208 32.1897 77.208 28.125H73.208ZM84.583 29.25C83.9648 29.25 83.458 28.7432 83.458 28.125H79.458C79.458 30.9524 81.7556 33.25 84.583 33.25V29.25ZM85.708 28.125C85.708 28.7432 85.2013 29.25 84.583 29.25V33.25C87.4104 33.25 89.708 30.9524 89.708 28.125H85.708ZM84.583 27C85.2013 27 85.708 27.5068 85.708 28.125H89.708C89.708 25.2976 87.4104 23 84.583 23V27ZM83.458 28.125C83.458 27.5068 83.9648 27 84.583 27V23C81.7556 23 79.458 25.2976 79.458 28.125H83.458Z" fill="black" mask="url(#path-1-inside-1_571_298)"/>
</g>
<defs>
<linearGradient id="paint0_linear_571_298" x1="75.208" y1="37.5" x2="94.1888" y2="37.2634" gradientUnits="userSpaceOnUse">
<stop stop-color="#D07BF1"/>
<stop offset="1" stop-color="#8A9EF6"/>
</linearGradient>
</defs>
</svg>
