<svg width="28" height="15" viewBox="0 0 28 15" fill="none" xmlns="http://www.w3.org/2000/svg">
<path fill-rule="evenodd" clip-rule="evenodd" d="M23.8103 9.53768C24.6895 10.3961 25.6175 11.2038 26.4061 12.1487C26.7544 12.5687 27.0843 13.002 27.3365 13.4894C27.694 14.1822 27.3702 14.9445 26.7491 14.9859L22.8876 14.9842C21.8916 15.0668 21.0971 14.6658 20.4291 13.9849C19.8945 13.4403 19.3994 12.8608 18.8853 12.2978C18.6745 12.0678 18.4539 11.8513 18.1904 11.6801C17.6633 11.338 17.2057 11.4427 16.9045 11.9925C16.5977 12.5517 16.5281 13.1709 16.4979 13.7941C16.4566 14.7034 16.1817 14.9424 15.2684 14.9841C13.3164 15.0761 11.4638 14.7808 9.74289 13.7961C8.22565 12.928 7.04909 11.7025 6.02503 10.3151C4.03115 7.61357 2.50424 4.645 1.13191 1.59327C0.823011 0.905713 1.04892 0.536635 1.80754 0.523572C3.06726 0.4991 4.32681 0.500842 5.58802 0.521831C6.10001 0.52932 6.43896 0.82298 6.63664 1.30667C7.31819 2.9825 8.15215 4.5769 9.19894 6.05478C9.47771 6.44824 9.76196 6.84171 10.1667 7.11864C10.6146 7.42528 10.9555 7.32365 11.1662 6.82481C11.2998 6.50851 11.3584 6.16782 11.3885 5.82905C11.4883 4.66355 11.5015 3.50006 11.3264 2.33866C11.2189 1.61382 10.8107 1.1446 10.0874 1.00743C9.71833 0.9375 9.77329 0.800163 9.95199 0.589498C10.2624 0.226167 10.5543 0 11.1362 0H15.5003C16.1873 0.135596 16.3399 0.444235 16.4339 1.13554L16.4377 5.98311C16.4302 6.25073 16.5714 7.04488 17.0534 7.22202C17.4392 7.34812 17.6935 7.03948 17.925 6.79485C18.9698 5.68588 19.7156 4.37529 20.3818 3.0182C20.6775 2.42148 20.9317 1.80176 21.178 1.18257C21.3606 0.72309 21.647 0.49701 22.1646 0.507025L26.3647 0.51077C26.4893 0.51077 26.6153 0.512599 26.7359 0.533239C27.4437 0.653855 27.6376 0.958314 27.419 1.64944C27.0746 2.73377 26.4044 3.6374 25.7492 4.5452C25.0487 5.5144 24.2996 6.45042 23.605 7.42537C22.9668 8.31567 23.0175 8.76443 23.8103 9.53768Z" fill="white"/>
</svg>
