<svg width="113" height="101" viewBox="0 0 113 101" fill="none" xmlns="http://www.w3.org/2000/svg">
<g opacity="0.56">
<mask id="path-1-inside-1_571_295" fill="white">
<path fill-rule="evenodd" clip-rule="evenodd" d="M12.8285 100.005H100.172C107.245 100.005 113 94.2493 113 87.1762V23.9682V13.1244C113 6.05124 107.245 0.295898 100.172 0.295898H12.8285C5.75534 0.295898 0 6.05124 0 13.1244V23.9682V87.1762C0 94.2493 5.75534 100.005 12.8285 100.005ZM3.82126 22.0576V13.1244C3.82126 8.15805 7.86215 4.11715 12.8285 4.11715H100.172C105.138 4.11715 109.179 8.15805 109.179 13.1244V22.0576H3.82126ZM3.82126 25.8789H109.179V87.1762C109.179 92.1425 105.138 96.1834 100.172 96.1834H12.8285C7.86215 96.1834 3.82126 92.1425 3.82126 87.1762V25.8789ZM65.7322 70.834H95.7552C96.8108 70.834 97.6659 69.9789 97.6659 68.9233C97.6659 67.8689 96.8097 67.0127 95.7552 67.0127H65.7322C64.6766 67.0127 63.8215 67.8689 63.8215 68.9233C63.8215 69.9789 64.6766 70.834 65.7322 70.834ZM95.7552 84.6474H65.7322C64.6766 84.6474 63.8215 83.7923 63.8215 82.7368C63.8215 81.6823 64.6766 80.8262 65.7322 80.8262H95.7552C96.8097 80.8262 97.6659 81.6823 97.6659 82.7368C97.6659 83.7923 96.8108 84.6474 95.7552 84.6474ZM65.7322 43.207H95.7552C96.8108 43.207 97.6659 42.3519 97.6659 41.2964C97.6659 40.2419 96.8097 39.3857 95.7552 39.3857H65.7322C64.6766 39.3857 63.8215 40.2419 63.8215 41.2964C63.8215 42.3519 64.6766 43.207 65.7322 43.207ZM95.7552 57.0205H65.7322C64.6766 57.0205 63.8215 56.1654 63.8215 55.1098C63.8215 54.0554 64.6766 53.1992 65.7322 53.1992H95.7552C96.8097 53.1992 97.6659 54.0554 97.6659 55.1098C97.6659 56.1654 96.8108 57.0205 95.7552 57.0205ZM27.544 19.069C24.2654 19.069 21.5978 16.4024 21.5978 13.1238C21.5978 9.84527 24.2654 7.17871 27.544 7.17871C30.8225 7.17871 33.4891 9.84527 33.4891 13.1238C33.4891 16.4024 30.8225 19.069 27.544 19.069ZM27.544 11C26.3722 11 25.419 11.9531 25.419 13.1238C25.419 14.2945 26.3722 15.2477 27.544 15.2477C28.7147 15.2477 29.6678 14.2945 29.6678 13.1238C29.6678 11.9531 28.7147 11 27.544 11ZM7.83203 13.1238C7.83203 16.4024 10.4997 19.069 13.7772 19.069C17.0557 19.069 19.7233 16.4024 19.7233 13.1238C19.7233 9.84527 17.0557 7.17871 13.7772 7.17871C10.4997 7.17871 7.83203 9.84527 7.83203 13.1238ZM11.6533 13.1238C11.6533 11.9531 12.6065 11 13.7772 11C14.9489 11 15.9021 11.9531 15.9021 13.1238C15.9021 14.2945 14.9489 15.2477 13.7772 15.2477C12.6065 15.2477 11.6533 14.2945 11.6533 13.1238ZM41.3095 19.069C38.0309 19.069 35.3644 16.4024 35.3644 13.1238C35.3644 9.84527 38.0309 7.17871 41.3095 7.17871C44.5881 7.17871 47.2557 9.84527 47.2557 13.1238C47.2557 16.4024 44.5881 19.069 41.3095 19.069ZM41.3095 11C40.1378 11 39.1856 11.9531 39.1856 13.1238C39.1856 14.2945 40.1388 15.2477 41.3095 15.2477C42.4813 15.2477 43.4344 14.2945 43.4344 13.1238C43.4344 11.9531 42.4813 11 41.3095 11ZM16.6496 84.648H51.3139C52.3694 84.648 53.2245 83.7929 53.2245 82.7374V41.2964C53.2245 40.2419 52.3694 39.3857 51.3139 39.3857H16.6496C15.5941 39.3857 14.739 40.2419 14.739 41.2964V82.7374C14.739 83.7929 15.5941 84.648 16.6496 84.648ZM49.4033 80.8268H18.5603V43.207H49.4033V80.8268Z"/>
</mask>
<path fill-rule="evenodd" clip-rule="evenodd" d="M12.8285 100.005H100.172C107.245 100.005 113 94.2493 113 87.1762V23.9682V13.1244C113 6.05124 107.245 0.295898 100.172 0.295898H12.8285C5.75534 0.295898 0 6.05124 0 13.1244V23.9682V87.1762C0 94.2493 5.75534 100.005 12.8285 100.005ZM3.82126 22.0576V13.1244C3.82126 8.15805 7.86215 4.11715 12.8285 4.11715H100.172C105.138 4.11715 109.179 8.15805 109.179 13.1244V22.0576H3.82126ZM3.82126 25.8789H109.179V87.1762C109.179 92.1425 105.138 96.1834 100.172 96.1834H12.8285C7.86215 96.1834 3.82126 92.1425 3.82126 87.1762V25.8789ZM65.7322 70.834H95.7552C96.8108 70.834 97.6659 69.9789 97.6659 68.9233C97.6659 67.8689 96.8097 67.0127 95.7552 67.0127H65.7322C64.6766 67.0127 63.8215 67.8689 63.8215 68.9233C63.8215 69.9789 64.6766 70.834 65.7322 70.834ZM95.7552 84.6474H65.7322C64.6766 84.6474 63.8215 83.7923 63.8215 82.7368C63.8215 81.6823 64.6766 80.8262 65.7322 80.8262H95.7552C96.8097 80.8262 97.6659 81.6823 97.6659 82.7368C97.6659 83.7923 96.8108 84.6474 95.7552 84.6474ZM65.7322 43.207H95.7552C96.8108 43.207 97.6659 42.3519 97.6659 41.2964C97.6659 40.2419 96.8097 39.3857 95.7552 39.3857H65.7322C64.6766 39.3857 63.8215 40.2419 63.8215 41.2964C63.8215 42.3519 64.6766 43.207 65.7322 43.207ZM95.7552 57.0205H65.7322C64.6766 57.0205 63.8215 56.1654 63.8215 55.1098C63.8215 54.0554 64.6766 53.1992 65.7322 53.1992H95.7552C96.8097 53.1992 97.6659 54.0554 97.6659 55.1098C97.6659 56.1654 96.8108 57.0205 95.7552 57.0205ZM27.544 19.069C24.2654 19.069 21.5978 16.4024 21.5978 13.1238C21.5978 9.84527 24.2654 7.17871 27.544 7.17871C30.8225 7.17871 33.4891 9.84527 33.4891 13.1238C33.4891 16.4024 30.8225 19.069 27.544 19.069ZM27.544 11C26.3722 11 25.419 11.9531 25.419 13.1238C25.419 14.2945 26.3722 15.2477 27.544 15.2477C28.7147 15.2477 29.6678 14.2945 29.6678 13.1238C29.6678 11.9531 28.7147 11 27.544 11ZM7.83203 13.1238C7.83203 16.4024 10.4997 19.069 13.7772 19.069C17.0557 19.069 19.7233 16.4024 19.7233 13.1238C19.7233 9.84527 17.0557 7.17871 13.7772 7.17871C10.4997 7.17871 7.83203 9.84527 7.83203 13.1238ZM11.6533 13.1238C11.6533 11.9531 12.6065 11 13.7772 11C14.9489 11 15.9021 11.9531 15.9021 13.1238C15.9021 14.2945 14.9489 15.2477 13.7772 15.2477C12.6065 15.2477 11.6533 14.2945 11.6533 13.1238ZM41.3095 19.069C38.0309 19.069 35.3644 16.4024 35.3644 13.1238C35.3644 9.84527 38.0309 7.17871 41.3095 7.17871C44.5881 7.17871 47.2557 9.84527 47.2557 13.1238C47.2557 16.4024 44.5881 19.069 41.3095 19.069ZM41.3095 11C40.1378 11 39.1856 11.9531 39.1856 13.1238C39.1856 14.2945 40.1388 15.2477 41.3095 15.2477C42.4813 15.2477 43.4344 14.2945 43.4344 13.1238C43.4344 11.9531 42.4813 11 41.3095 11ZM16.6496 84.648H51.3139C52.3694 84.648 53.2245 83.7929 53.2245 82.7374V41.2964C53.2245 40.2419 52.3694 39.3857 51.3139 39.3857H16.6496C15.5941 39.3857 14.739 40.2419 14.739 41.2964V82.7374C14.739 83.7929 15.5941 84.648 16.6496 84.648ZM49.4033 80.8268H18.5603V43.207H49.4033V80.8268Z" fill="white"/>
<path fill-rule="evenodd" clip-rule="evenodd" d="M12.8285 100.005H100.172C107.245 100.005 113 94.2493 113 87.1762V23.9682V13.1244C113 6.05124 107.245 0.295898 100.172 0.295898H12.8285C5.75534 0.295898 0 6.05124 0 13.1244V23.9682V87.1762C0 94.2493 5.75534 100.005 12.8285 100.005ZM3.82126 22.0576V13.1244C3.82126 8.15805 7.86215 4.11715 12.8285 4.11715H100.172C105.138 4.11715 109.179 8.15805 109.179 13.1244V22.0576H3.82126ZM3.82126 25.8789H109.179V87.1762C109.179 92.1425 105.138 96.1834 100.172 96.1834H12.8285C7.86215 96.1834 3.82126 92.1425 3.82126 87.1762V25.8789ZM65.7322 70.834H95.7552C96.8108 70.834 97.6659 69.9789 97.6659 68.9233C97.6659 67.8689 96.8097 67.0127 95.7552 67.0127H65.7322C64.6766 67.0127 63.8215 67.8689 63.8215 68.9233C63.8215 69.9789 64.6766 70.834 65.7322 70.834ZM95.7552 84.6474H65.7322C64.6766 84.6474 63.8215 83.7923 63.8215 82.7368C63.8215 81.6823 64.6766 80.8262 65.7322 80.8262H95.7552C96.8097 80.8262 97.6659 81.6823 97.6659 82.7368C97.6659 83.7923 96.8108 84.6474 95.7552 84.6474ZM65.7322 43.207H95.7552C96.8108 43.207 97.6659 42.3519 97.6659 41.2964C97.6659 40.2419 96.8097 39.3857 95.7552 39.3857H65.7322C64.6766 39.3857 63.8215 40.2419 63.8215 41.2964C63.8215 42.3519 64.6766 43.207 65.7322 43.207ZM95.7552 57.0205H65.7322C64.6766 57.0205 63.8215 56.1654 63.8215 55.1098C63.8215 54.0554 64.6766 53.1992 65.7322 53.1992H95.7552C96.8097 53.1992 97.6659 54.0554 97.6659 55.1098C97.6659 56.1654 96.8108 57.0205 95.7552 57.0205ZM27.544 19.069C24.2654 19.069 21.5978 16.4024 21.5978 13.1238C21.5978 9.84527 24.2654 7.17871 27.544 7.17871C30.8225 7.17871 33.4891 9.84527 33.4891 13.1238C33.4891 16.4024 30.8225 19.069 27.544 19.069ZM27.544 11C26.3722 11 25.419 11.9531 25.419 13.1238C25.419 14.2945 26.3722 15.2477 27.544 15.2477C28.7147 15.2477 29.6678 14.2945 29.6678 13.1238C29.6678 11.9531 28.7147 11 27.544 11ZM7.83203 13.1238C7.83203 16.4024 10.4997 19.069 13.7772 19.069C17.0557 19.069 19.7233 16.4024 19.7233 13.1238C19.7233 9.84527 17.0557 7.17871 13.7772 7.17871C10.4997 7.17871 7.83203 9.84527 7.83203 13.1238ZM11.6533 13.1238C11.6533 11.9531 12.6065 11 13.7772 11C14.9489 11 15.9021 11.9531 15.9021 13.1238C15.9021 14.2945 14.9489 15.2477 13.7772 15.2477C12.6065 15.2477 11.6533 14.2945 11.6533 13.1238ZM41.3095 19.069C38.0309 19.069 35.3644 16.4024 35.3644 13.1238C35.3644 9.84527 38.0309 7.17871 41.3095 7.17871C44.5881 7.17871 47.2557 9.84527 47.2557 13.1238C47.2557 16.4024 44.5881 19.069 41.3095 19.069ZM41.3095 11C40.1378 11 39.1856 11.9531 39.1856 13.1238C39.1856 14.2945 40.1388 15.2477 41.3095 15.2477C42.4813 15.2477 43.4344 14.2945 43.4344 13.1238C43.4344 11.9531 42.4813 11 41.3095 11ZM16.6496 84.648H51.3139C52.3694 84.648 53.2245 83.7929 53.2245 82.7374V41.2964C53.2245 40.2419 52.3694 39.3857 51.3139 39.3857H16.6496C15.5941 39.3857 14.739 40.2419 14.739 41.2964V82.7374C14.739 83.7929 15.5941 84.648 16.6496 84.648ZM49.4033 80.8268H18.5603V43.207H49.4033V80.8268Z" fill="url(#paint0_linear_571_295)"/>
<path d="M3.82126 22.0576H2.82126V23.0576H3.82126V22.0576ZM109.179 22.0576V23.0576H110.179V22.0576H109.179ZM109.179 25.8789H110.179V24.8789H109.179V25.8789ZM3.82126 25.8789V24.8789H2.82126V25.8789H3.82126ZM18.5603 80.8268H17.5603V81.8268H18.5603V80.8268ZM49.4033 80.8268V81.8268H50.4033V80.8268H49.4033ZM18.5603 43.207V42.207H17.5603V43.207H18.5603ZM49.4033 43.207H50.4033V42.207H49.4033V43.207ZM100.172 99.0047H12.8285V101.005H100.172V99.0047ZM112 87.1762C112 93.697 106.692 99.0047 100.172 99.0047V101.005C107.797 101.005 114 94.8016 114 87.1762H112ZM112 23.9682V87.1762H114V23.9682H112ZM112 13.1244V23.9682H114V13.1244H112ZM100.172 1.2959C106.692 1.2959 112 6.60352 112 13.1244H114C114 5.49895 107.797 -0.704102 100.172 -0.704102V1.2959ZM12.8285 1.2959H100.172V-0.704102H12.8285V1.2959ZM1 13.1244C1 6.60352 6.30763 1.2959 12.8285 1.2959V-0.704102C5.20306 -0.704102 -1 5.49895 -1 13.1244H1ZM1 23.9682V13.1244H-1V23.9682H1ZM1 87.1762V23.9682H-1V87.1762H1ZM12.8285 99.0047C6.30763 99.0047 1 93.697 1 87.1762H-1C-1 94.8016 5.20306 101.005 12.8285 101.005V99.0047ZM2.82126 13.1244V22.0576H4.82126V13.1244H2.82126ZM12.8285 3.11715C7.30986 3.11715 2.82126 7.60576 2.82126 13.1244H4.82126C4.82126 8.71033 8.41443 5.11715 12.8285 5.11715V3.11715ZM100.172 3.11715H12.8285V5.11715H100.172V3.11715ZM110.179 13.1244C110.179 7.60576 105.69 3.11715 100.172 3.11715V5.11715C104.586 5.11715 108.179 8.71033 108.179 13.1244H110.179ZM110.179 22.0576V13.1244H108.179V22.0576H110.179ZM3.82126 23.0576H109.179V21.0576H3.82126V23.0576ZM109.179 24.8789H3.82126V26.8789H109.179V24.8789ZM110.179 87.1762V25.8789H108.179V87.1762H110.179ZM100.172 97.1834C105.69 97.1834 110.179 92.6948 110.179 87.1762H108.179C108.179 91.5902 104.586 95.1834 100.172 95.1834V97.1834ZM12.8285 97.1834H100.172V95.1834H12.8285V97.1834ZM2.82126 87.1762C2.82126 92.6948 7.30986 97.1834 12.8285 97.1834V95.1834C8.41443 95.1834 4.82126 91.5902 4.82126 87.1762H2.82126ZM2.82126 25.8789V87.1762H4.82126V25.8789H2.82126ZM95.7552 69.834H65.7322V71.834H95.7552V69.834ZM96.6659 68.9233C96.6659 69.4266 96.2585 69.834 95.7552 69.834V71.834C97.3631 71.834 98.6659 70.5311 98.6659 68.9233H96.6659ZM95.7552 68.0127C96.2574 68.0127 96.6659 68.4211 96.6659 68.9233H98.6659C98.6659 67.3166 97.362 66.0127 95.7552 66.0127V68.0127ZM65.7322 68.0127H95.7552V66.0127H65.7322V68.0127ZM64.8215 68.9233C64.8215 68.4208 65.2293 68.0127 65.7322 68.0127V66.0127C64.124 66.0127 62.8215 67.3169 62.8215 68.9233H64.8215ZM65.7322 69.834C65.2289 69.834 64.8215 69.4266 64.8215 68.9233H62.8215C62.8215 70.5311 64.1243 71.834 65.7322 71.834V69.834ZM65.7322 85.6474H95.7552V83.6474H65.7322V85.6474ZM62.8215 82.7368C62.8215 84.3446 64.1243 85.6474 65.7322 85.6474V83.6474C65.2289 83.6474 64.8215 83.2401 64.8215 82.7368H62.8215ZM65.7322 79.8262C64.124 79.8262 62.8215 81.1304 62.8215 82.7368H64.8215C64.8215 82.2343 65.2293 81.8262 65.7322 81.8262V79.8262ZM95.7552 79.8262H65.7322V81.8262H95.7552V79.8262ZM98.6659 82.7368C98.6659 81.13 97.362 79.8262 95.7552 79.8262V81.8262C96.2574 81.8262 96.6659 82.2346 96.6659 82.7368H98.6659ZM95.7552 85.6474C97.3631 85.6474 98.6659 84.3446 98.6659 82.7368H96.6659C96.6659 83.2401 96.2585 83.6474 95.7552 83.6474V85.6474ZM95.7552 42.207H65.7322V44.207H95.7552V42.207ZM96.6659 41.2964C96.6659 41.7996 96.2585 42.207 95.7552 42.207V44.207C97.3631 44.207 98.6659 42.9042 98.6659 41.2964H96.6659ZM95.7552 40.3857C96.2574 40.3857 96.6659 40.7942 96.6659 41.2964H98.6659C98.6659 39.6896 97.362 38.3857 95.7552 38.3857V40.3857ZM65.7322 40.3857H95.7552V38.3857H65.7322V40.3857ZM64.8215 41.2964C64.8215 40.7938 65.2293 40.3857 65.7322 40.3857V38.3857C64.124 38.3857 62.8215 39.69 62.8215 41.2964H64.8215ZM65.7322 42.207C65.2289 42.207 64.8215 41.7996 64.8215 41.2964H62.8215C62.8215 42.9042 64.1243 44.207 65.7322 44.207V42.207ZM65.7322 58.0205H95.7552V56.0205H65.7322V58.0205ZM62.8215 55.1098C62.8215 56.7177 64.1243 58.0205 65.7322 58.0205V56.0205C65.2289 56.0205 64.8215 55.6131 64.8215 55.1098H62.8215ZM65.7322 52.1992C64.124 52.1992 62.8215 53.5035 62.8215 55.1098H64.8215C64.8215 54.6073 65.2293 54.1992 65.7322 54.1992V52.1992ZM95.7552 52.1992H65.7322V54.1992H95.7552V52.1992ZM98.6659 55.1098C98.6659 53.5031 97.362 52.1992 95.7552 52.1992V54.1992C96.2574 54.1992 96.6659 54.6077 96.6659 55.1098H98.6659ZM95.7552 58.0205C97.3631 58.0205 98.6659 56.7177 98.6659 55.1098H96.6659C96.6659 55.6131 96.2585 56.0205 95.7552 56.0205V58.0205ZM20.5978 13.1238C20.5978 16.9549 23.7134 20.069 27.544 20.069V18.069C24.8175 18.069 22.5978 15.8499 22.5978 13.1238H20.5978ZM27.544 6.17871C23.7134 6.17871 20.5978 9.29276 20.5978 13.1238H22.5978C22.5978 10.3978 24.8175 8.17871 27.544 8.17871V6.17871ZM34.4891 13.1238C34.4891 9.29299 31.3748 6.17871 27.544 6.17871V8.17871C30.2702 8.17871 32.4891 10.3976 32.4891 13.1238H34.4891ZM27.544 20.069C31.3748 20.069 34.4891 16.9547 34.4891 13.1238H32.4891C32.4891 15.8501 30.2702 18.069 27.544 18.069V20.069ZM26.419 13.1238C26.419 12.5058 26.9242 12 27.544 12V9.99997C25.8203 9.99997 24.419 11.4005 24.419 13.1238H26.419ZM27.544 14.2477C26.9242 14.2477 26.419 13.7419 26.419 13.1238H24.419C24.419 14.8471 25.8203 16.2477 27.544 16.2477V14.2477ZM28.6678 13.1238C28.6678 13.7422 28.1624 14.2477 27.544 14.2477V16.2477C29.2669 16.2477 30.6678 14.8468 30.6678 13.1238H28.6678ZM27.544 12C28.1624 12 28.6678 12.5054 28.6678 13.1238H30.6678C30.6678 11.4009 29.2669 9.99997 27.544 9.99997V12ZM13.7772 18.069C11.0518 18.069 8.83203 15.85 8.83203 13.1238H6.83203C6.83203 16.9548 9.94749 20.069 13.7772 20.069V18.069ZM18.7233 13.1238C18.7233 15.8499 16.5037 18.069 13.7772 18.069V20.069C17.6078 20.069 20.7233 16.9549 20.7233 13.1238H18.7233ZM13.7772 8.17871C16.5037 8.17871 18.7233 10.3978 18.7233 13.1238H20.7233C20.7233 9.29276 17.6078 6.17871 13.7772 6.17871V8.17871ZM8.83203 13.1238C8.83203 10.3977 11.0518 8.17871 13.7772 8.17871V6.17871C9.94749 6.17871 6.83203 9.29287 6.83203 13.1238H8.83203ZM13.7772 9.99997C12.0542 9.99997 10.6533 11.4009 10.6533 13.1238H12.6533C12.6533 12.5054 13.1588 12 13.7772 12V9.99997ZM16.9021 13.1238C16.9021 11.4005 15.5009 9.99997 13.7772 9.99997V12C14.3969 12 14.9021 12.5058 14.9021 13.1238H16.9021ZM13.7772 16.2477C15.5009 16.2477 16.9021 14.8471 16.9021 13.1238H14.9021C14.9021 13.7419 14.3969 14.2477 13.7772 14.2477V16.2477ZM10.6533 13.1238C10.6533 14.8468 12.0542 16.2477 13.7772 16.2477V14.2477C13.1588 14.2477 12.6533 13.7422 12.6533 13.1238H10.6533ZM34.3644 13.1238C34.3644 16.9547 37.4787 20.069 41.3095 20.069V18.069C38.5832 18.069 36.3644 15.8501 36.3644 13.1238H34.3644ZM41.3095 6.17871C37.4787 6.17871 34.3644 9.29299 34.3644 13.1238H36.3644C36.3644 10.3976 38.5832 8.17871 41.3095 8.17871V6.17871ZM48.2557 13.1238C48.2557 9.29276 45.1401 6.17871 41.3095 6.17871V8.17871C44.036 8.17871 46.2557 10.3978 46.2557 13.1238H48.2557ZM41.3095 20.069C45.1401 20.069 48.2557 16.9549 48.2557 13.1238H46.2557C46.2557 15.8499 44.036 18.069 41.3095 18.069V20.069ZM40.1856 13.1238C40.1856 12.5051 40.6904 12 41.3095 12V9.99997C39.5851 9.99997 38.1856 11.4012 38.1856 13.1238H40.1856ZM41.3095 14.2477C40.6911 14.2477 40.1856 13.7422 40.1856 13.1238H38.1856C38.1856 14.8468 39.5865 16.2477 41.3095 16.2477V14.2477ZM42.4344 13.1238C42.4344 13.7419 41.9293 14.2477 41.3095 14.2477V16.2477C43.0332 16.2477 44.4344 14.8471 44.4344 13.1238H42.4344ZM41.3095 12C41.9293 12 42.4344 12.5058 42.4344 13.1238H44.4344C44.4344 11.4005 43.0332 9.99997 41.3095 9.99997V12ZM51.3139 83.648H16.6496V85.648H51.3139V83.648ZM52.2245 82.7374C52.2245 83.2406 51.8171 83.648 51.3139 83.648V85.648C52.9217 85.648 54.2245 84.3452 54.2245 82.7374H52.2245ZM52.2245 41.2964V82.7374H54.2245V41.2964H52.2245ZM51.3139 40.3857C51.8168 40.3857 52.2245 40.7938 52.2245 41.2964H54.2245C54.2245 39.69 52.9221 38.3857 51.3139 38.3857V40.3857ZM16.6496 40.3857H51.3139V38.3857H16.6496V40.3857ZM15.739 41.2964C15.739 40.7938 16.1468 40.3857 16.6496 40.3857V38.3857C15.0415 38.3857 13.739 39.69 13.739 41.2964H15.739ZM15.739 82.7374V41.2964H13.739V82.7374H15.739ZM16.6496 83.648C16.1464 83.648 15.739 83.2406 15.739 82.7374H13.739C13.739 84.3452 15.0418 85.648 16.6496 85.648V83.648ZM18.5603 81.8268H49.4033V79.8268H18.5603V81.8268ZM17.5603 43.207V80.8268H19.5603V43.207H17.5603ZM49.4033 42.207H18.5603V44.207H49.4033V42.207ZM50.4033 80.8268V43.207H48.4033V80.8268H50.4033Z" fill="black" mask="url(#path-1-inside-1_571_295)"/>
</g>
<defs>
<linearGradient id="paint0_linear_571_295" x1="14.739" y1="84.648" x2="53.6999" y2="84.2351" gradientUnits="userSpaceOnUse">
<stop stop-color="#D07BF1"/>
<stop offset="1" stop-color="#8A9EF6"/>
</linearGradient>
</defs>
</svg>
