<svg width="32" height="36" viewBox="0 0 32 36" fill="none" xmlns="http://www.w3.org/2000/svg">
<path fill-rule="evenodd" clip-rule="evenodd" d="M16.5742 0.0253512C16.4269 -0.0084504 16.2739 -0.0084504 16.1267 0.0253512L3.01234 3.03588C2.44377 3.06748 1.90487 3.3073 1.50009 3.71208C1.06484 4.14734 0.820312 4.73767 0.820312 5.35322V15.0455C0.820312 29.6003 13.1761 34.4178 15.609 35.2259C16.0882 35.3984 16.6126 35.3984 17.0918 35.2259C19.5248 34.4178 31.8805 29.6003 31.8805 15.0455V5.35322C31.8805 4.73768 31.636 4.14734 31.2007 3.71208C30.796 3.3073 30.2571 3.06748 29.6885 3.03588L16.5742 0.0253512ZM3.36497 5.00695L16.3504 2.02601L29.3359 5.00695C29.4093 5.0238 29.4843 5.0323 29.5596 5.0323C29.6447 5.0323 29.7263 5.06611 29.7865 5.1263C29.8467 5.18648 29.8805 5.2681 29.8805 5.35322V15.0455C29.8805 28.201 18.7401 32.5737 16.449 33.332C16.4379 33.3357 16.4269 33.3395 16.416 33.3436C16.3737 33.3592 16.3272 33.3592 16.2849 33.3436C16.2739 33.3395 16.2629 33.3357 16.2519 33.332C13.9607 32.5737 2.82031 28.201 2.82031 15.0455V5.35322C2.82031 5.26811 2.85412 5.18648 2.91431 5.1263C2.97449 5.06611 3.05612 5.0323 3.14123 5.0323C3.21653 5.0323 3.29158 5.0238 3.36497 5.00695ZM24.3062 14.0021C24.7059 13.6208 24.7208 12.9879 24.3395 12.5883C23.9583 12.1886 23.3253 12.1737 22.9257 12.555L13.9243 21.1423L9.77676 17.1788C9.37748 16.7972 8.74447 16.8116 8.36291 17.2109C7.98134 17.6101 7.9957 18.2431 8.39498 18.6247L13.2328 23.2479C13.6191 23.6171 14.2274 23.6173 14.614 23.2485L24.3062 14.0021Z" fill="url(#paint0_linear_400_25396)"/>
<defs>
<linearGradient id="paint0_linear_400_25396" x1="0.820313" y1="35.3553" x2="32.2639" y2="35.011" gradientUnits="userSpaceOnUse">
<stop stop-color="#D07BF1"/>
<stop offset="1" stop-color="#8A9EF6"/>
</linearGradient>
</defs>
</svg>
