<svg width="27" height="35" viewBox="0 0 27 35" fill="none" xmlns="http://www.w3.org/2000/svg">
<path fill-rule="evenodd" clip-rule="evenodd" d="M13.125 0C13.3365 0 13.5375 0.0918067 13.676 0.251563C14.1894 0.843828 26.25 14.8379 26.25 21.875C26.25 29.1122 20.3622 35 13.125 35C5.88779 35 0 29.1122 0 21.875C0 14.8379 12.0606 0.843828 12.574 0.251563C12.7125 0.0918067 12.9135 0 13.125 0ZM1.45831 21.875C1.45831 28.308 6.69204 33.5417 13.125 33.5417C19.558 33.5417 24.7917 28.308 24.7917 21.875C24.7917 19.2261 22.694 14.8268 18.7254 9.15277C16.4475 5.89613 14.1492 3.0813 13.1253 1.85767C10.7434 4.70757 1.45831 16.1833 1.45831 21.875ZM5.10564 21.8747C5.10564 26.2974 8.70373 29.8955 13.1264 29.8955C13.5292 29.8955 13.8556 30.2221 13.8556 30.6247C13.8556 31.0274 13.5292 31.3539 13.1264 31.3539C7.89962 31.3539 3.64726 27.1015 3.64726 21.8747C3.64726 21.472 3.97381 21.1455 4.37645 21.1455C4.77915 21.1455 5.10564 21.4721 5.10564 21.8747Z" fill="white"/>
<path fill-rule="evenodd" clip-rule="evenodd" d="M13.125 0C13.3365 0 13.5375 0.0918067 13.676 0.251563C14.1894 0.843828 26.25 14.8379 26.25 21.875C26.25 29.1122 20.3622 35 13.125 35C5.88779 35 0 29.1122 0 21.875C0 14.8379 12.0606 0.843828 12.574 0.251563C12.7125 0.0918067 12.9135 0 13.125 0ZM1.45831 21.875C1.45831 28.308 6.69204 33.5417 13.125 33.5417C19.558 33.5417 24.7917 28.308 24.7917 21.875C24.7917 19.2261 22.694 14.8268 18.7254 9.15277C16.4475 5.89613 14.1492 3.0813 13.1253 1.85767C10.7434 4.70757 1.45831 16.1833 1.45831 21.875ZM5.10564 21.8747C5.10564 26.2974 8.70373 29.8955 13.1264 29.8955C13.5292 29.8955 13.8556 30.2221 13.8556 30.6247C13.8556 31.0274 13.5292 31.3539 13.1264 31.3539C7.89962 31.3539 3.64726 27.1015 3.64726 21.8747C3.64726 21.472 3.97381 21.1455 4.37645 21.1455C4.77915 21.1455 5.10564 21.4721 5.10564 21.8747Z" fill="url(#paint0_linear_400_25399)"/>
<defs>
<linearGradient id="paint0_linear_400_25399" x1="3.64655" y1="31.3542" x2="13.9806" y2="31.2254" gradientUnits="userSpaceOnUse">
<stop stop-color="#D07BF1"/>
<stop offset="1" stop-color="#8A9EF6"/>
</linearGradient>
</defs>
</svg>
