<svg width="20" height="20" viewBox="0 0 20 20" fill="none" xmlns="http://www.w3.org/2000/svg">
<path fill-rule="evenodd" clip-rule="evenodd" d="M0.28198 0.279215C-0.0927756 0.65397 -0.0956474 1.26442 0.275563 1.64268L8.5719 10.0967L0.465504 18.3572C0.0942934 18.7355 0.0971665 19.3459 0.471922 19.7207C0.846677 20.0954 1.4514 20.0926 1.82261 19.7143L9.91635 11.4667L17.9341 19.6368C18.3053 20.0151 18.91 20.0179 19.2847 19.6432C19.6595 19.2684 19.6624 18.658 19.2912 18.2797L11.2608 10.0967L19.4811 1.72017C19.8523 1.3419 19.8494 0.731456 19.4747 0.356701C19.0999 -0.0180546 18.4952 -0.0152066 18.124 0.36306L9.91635 8.72671L1.63267 0.285573C1.26146 -0.0926938 0.656735 -0.0955405 0.28198 0.279215Z" fill="white" fill-opacity="0.3"/>
</svg>
